
<svg version="1.0" xmlns="http://www.w3.org/2000/svg"
 width="817.000000pt" height="1280.000000pt" viewBox="0 0 817.000000 1280.000000"
 preserveAspectRatio="xMidYMid meet">
<metadata>
Created by potrace 1.15, written by Peter Selinger 2001-2017
</metadata>
<g transform="translate(0.000000,1280.000000) scale(0.100000,-0.100000)"
fill="#000000" stroke="none">
<path d="M6620 12781 c-357 -97 -712 -592 -948 -1323 -174 -537 -267 -1124
-279 -1758 -8 -416 13 -603 93 -852 115 -356 300 -596 698 -907 186 -145 255
-211 284 -273 21 -43 22 -57 22 -364 0 -723 -41 -1680 -110 -2554 -29 -357
-61 -692 -140 -1465 -103 -1001 -114 -1132 -131 -1543 -13 -303 -4 -574 26
-823 19 -148 67 -391 96 -480 90 -274 276 -431 514 -432 280 0 483 196 550
533 61 310 80 580 72 1030 -7 396 -24 640 -117 1665 -124 1367 -158 1843 -195
2710 -17 404 -40 1511 -33 1624 8 139 69 214 301 372 240 163 374 273 471 389
193 230 299 483 353 836 36 235 19 871 -32 1271 -149 1151 -568 2031 -1088
2288 -148 73 -278 91 -407 56z"/>
<path d="M2750 12748 c-60 -137 -131 -711 -184 -1493 -46 -677 -60 -1048 -60
-1645 -1 -465 2 -563 17 -667 21 -147 54 -258 113 -376 58 -115 95 -169 261
-378 150 -189 210 -277 253 -374 74 -164 91 -316 71 -596 -7 -90 -46 -515 -87
-944 -147 -1548 -189 -2043 -233 -2780 -41 -674 -46 -830 -46 -1505 0 -717 7
-879 56 -1230 50 -357 110 -517 239 -633 290 -261 732 -100 858 313 24 78 66
324 88 510 21 184 29 691 15 964 -17 318 -34 520 -111 1296 -158 1587 -203
2272 -231 3470 -14 602 -9 909 15 995 38 135 93 226 256 420 175 210 286 398
358 610 70 203 87 456 79 1165 -6 504 -11 658 -42 1145 -57 912 -155 1779
-200 1767 -33 -9 -51 -255 -80 -1122 -32 -964 -52 -1308 -91 -1580 -25 -173
-51 -243 -87 -238 -76 11 -114 392 -137 1388 -30 1271 -42 1507 -84 1548 -44
44 -64 -208 -91 -1123 -31 -1060 -56 -1447 -110 -1680 -40 -178 -110 -179
-150 -3 -47 206 -63 540 -75 1576 -12 1012 -24 1237 -65 1237 -40 -1 -68 -312
-105 -1175 -46 -1061 -75 -1461 -121 -1655 -37 -153 -89 -154 -124 -2 -51 221
-70 606 -85 1762 -12 870 -21 1075 -52 1075 -5 0 -18 -19 -28 -42z"/>
<path d="M604 12690 c-94 -22 -172 -140 -237 -360 -85 -282 -133 -672 -173
-1392 -21 -366 -30 -2277 -15 -3238 12 -821 16 -860 131 -1291 73 -276 80
-326 80 -593 0 -475 -35 -1222 -80 -1731 -41 -458 -77 -759 -174 -1465 -116
-847 -130 -981 -130 -1320 -1 -294 12 -415 63 -626 54 -218 104 -320 203 -409
239 -215 667 -165 842 99 65 97 114 291 143 556 27 255 8 608 -62 1145 -13
105 -40 309 -59 455 -90 686 -147 1302 -181 1960 -20 406 -38 1099 -33 1340
l4 205 36 105 c20 58 99 238 176 400 192 403 262 584 326 835 85 336 100 603
76 1340 -58 1796 -279 3196 -591 3741 -101 176 -235 271 -345 244z"/>
</g>
</svg>
