<svg class="svg-icon" style="width: 1em; height: 1em;vertical-align: middle;fill: currentColor;overflow: hidden;" viewBox="0 0 1024 1024" version="1.1" xmlns="http://www.w3.org/2000/svg"><path d="M475.428571 36.571429v365.714285q0 34.857143-20.285714 63.428572T402.285714 505.714286v445.142857q0 29.714286-21.714285 51.428571t-51.428572 21.714286H256q-29.714286 0-51.428571-21.714286t-21.714286-51.428571V505.714286q-32.571429-11.428571-52.857143-40T109.714286 402.285714V36.571429q0-14.857143 10.857143-25.714286t25.714285-10.857143 25.714286 10.857143 10.857143 25.714286v237.714285q0 14.857143 10.857143 25.714286t25.714285 10.857143 25.714286-10.857143 10.857143-25.714286V36.571429q0-14.857143 10.857143-25.714286t25.714286-10.857143 25.714285 10.857143 10.857143 25.714286v237.714285q0 14.857143 10.857143 25.714286t25.714286 10.857143 25.714285-10.857143 10.857143-25.714286V36.571429q0-14.857143 10.857143-25.714286t25.714286-10.857143 25.714286 10.857143 10.857142 25.714286z m438.857143 0v914.285714q0 29.714286-21.714285 51.428571t-51.428572 21.714286h-73.142857q-29.714286 0-51.428571-21.714286t-21.714286-51.428571v-292.571429H566.857143q-7.428571 0-12.857143-5.428571T548.571429 640V182.857143q0-75.428571 53.714285-129.142857t129.142857-53.714286h146.285715q14.857143 0 25.714285 10.857143t10.857143 25.714286z"  /></svg>