<svg xmlns="http://www.w3.org/2000/svg" class="_2DO-5SnSF_147bBb5qWMlX" width="16" height="20" viewBox="0 0 16 20" fill="none" aria-label="Location pin icon"><title>Location pin icon</title><path fill-rule="evenodd" clip-rule="evenodd" d="M8 0C3.5879 0 0 3.57642 0 7.99164C0 9.84522 0.64432 11.6412 1.82265 13.072L7.22807 19.6357C7.41803 19.8664 7.70119 20 8 20C8.29881 20 8.58197 19.8664 8.77193 19.6357L14.1773 13.072C15.3557 11.6412 16 9.84522 16 7.99164C16 3.57642 12.4121 0 8 0ZM6 8C6 6.89543 6.89543 6 8 6C9.10457 6 10 6.89543 10 8C10 9.10457 9.10457 10 8 10C6.89543 10 6 9.10457 6 8Z" fill="currentColor"/></svg>