<svg data-v-72c5d582="" xmlns="http://www.w3.org/2000/svg" width="36" height="36" viewBox="0 0 68.79 68.794"><path d="m674.718 596.213-8.3-8.3a6.878 6.878 0 0 0-9.718 0l-3.774 3.774a3.425 3.425 0 0 1-2.438 1.008 3.419 3.419 0 0 1-2.437-1.008l-16.36-16.373a3.445 3.445 0 0 1 0-4.876l3.774-3.774a6.882 6.882 0 0 0 0-9.721l-8.3-8.274a6.873 6.873 0 0 0-9.708-.009l-3.028 3a22.194 22.194 0 0 0 0 31.355l25.921 25.935a22.16 22.16 0 0 0 31.356 0l3.02-3.02a6.879 6.879 0 0 0-.008-9.717zm-53.762-42.705.667-.66a.949.949 0 0 1 .676-.279.958.958 0 0 1 .68.282l8.3 8.274a.959.959 0 0 1 0 1.354l-.677.677zm-2.356 25.326a16.17 16.17 0 0 1-1.693-21.007l9.6 9.6a9.378 9.378 0 0 0 .995 12.066l16.36 16.373a9.374 9.374 0 0 0 12.065.995l9.6 9.6a16.159 16.159 0 0 1-21.007-1.694zm52.213 22.238a.95.95 0 0 1-.28.677l-.677.676-9.657-9.657.677-.677a.959.959 0 0 1 1.354 0l8.3 8.3a.95.95 0 0 1 .286.681z" transform="translate(-607.937 -546.654)" style="fill: rgb(33, 56, 139);"/></svg>