<svg xmlns="http://www.w3.org/2000/svg" class="_2DO-5SnSF_147bBb5qWMlX" width="22" height="20" viewBox="0 0 22 20" fill="none" aria-label="Location pin icon"><title>PickUp Shop Icon</title><path d="M7.52297 0H4.32843C3.79799 0 3.28929 0.210713 2.91421 0.585786L0.87868 2.62132C0.316071 3.18393 0 3.94699 0 4.74264V6C0 7.10457 0.89543 8 2 8H4C5.10457 8 6 7.10457 6 6V4C6 3.87278 6.02428 3.74673 6.07152 3.62861L7.52297 0Z" fill="currentColor"/><path d="M8 6C8 7.10457 8.89543 8 10 8H12C13.1046 8 14 7.10457 14 6V4.19258L12.323 0H9.67703L8 4.19258V6Z" fill="currentColor"/><path d="M15.9285 3.62861L14.477 0H17.6716C18.202 0 18.7107 0.210714 19.0858 0.585786L21.1213 2.62132C21.6839 3.18393 22 3.94699 22 4.74264V6C22 7.10457 21.1046 8 20 8H18C16.8954 8 16 7.10457 16 6V4C16 3.87278 15.9757 3.74673 15.9285 3.62861Z" fill="currentColor"/><path fill-rule="evenodd" clip-rule="evenodd" d="M1 18V9.87397C1.31962 9.95624 1.6547 9.99999 2 9.99999H4C5.19469 9.99999 6.26705 9.47623 7 8.64581C7.73294 9.47623 8.80531 9.99999 10 9.99999H12C13.1947 9.99999 14.2671 9.47623 15 8.64581C15.7329 9.47623 16.8053 9.99999 18 9.99999H20C20.3453 9.99999 20.6804 9.95624 21 9.87397V18C21 19.1046 20.1046 20 19 20H10V13H6V20H3C1.89543 20 1 19.1046 1 18ZM18 13H13V17H18V13Z" fill="currentColor"/></svg>