<svg xmlns="http://www.w3.org/2000/svg" viewBox="0 0 104.9 107.46"><defs><style>.cls-1{fill:#fff;}.cls-2{fill:#f9ff93;}.cls-3{fill:#ea0006;}</style></defs><g id="Capa_2" data-name="Capa 2"><g id="Capa_1-2" data-name="Capa 1"><path class="cls-1" d="M98.87,74.44a52.46,52.46,0,0,0,5.62-15.85,1.17,1.17,0,0,1,.16-.34v49H72.49a12.82,12.82,0,0,0,5.69-3.06A17.35,17.35,0,0,0,83,93.57a2.3,2.3,0,0,1,1-1.84A53,53,0,0,0,98.87,74.44Z"/><path class="cls-1" d="M104.4,54.09c-.88-4.07-2.79-6.7-5.85-7.82a2.32,2.32,0,0,1-1.19-1.18c-2.08-4.73-4.1-9.5-6.11-14.27a6.11,6.11,0,0,1-.44-2.05c-.37-7.14-.67-14.27-1.06-21.41C89.53,3.23,87.19.54,84.55.54V.25h20.1V55C104.56,54.67,104.47,54.38,104.4,54.09Z"/><path d="M87.35,41.93c-.85,0-1.62-1-1.59-2.19s.79-2.07,1.6-2,1.53,1,1.53,2.12S88.18,41.92,87.35,41.93Z"/><path d="M83.31,14c-.88,0-1.53-.91-1.51-2.11s.7-2.08,1.57-2.06A1.94,1.94,0,0,1,84.9,12C84.88,13.14,84.18,14,83.31,14Z"/><path d="M83.36,35.11c-.83,0-1.54-.91-1.56-2.06s.61-2.1,1.47-2.16,1.63.92,1.63,2.11S84.18,35.09,83.36,35.11Z"/><path class="cls-2" d="M88.89,39.82c0-1.11-.71-2.11-1.53-2.12s-1.57.94-1.6,2,.74,2.2,1.59,2.19S88.89,40.94,88.89,39.82ZM81.8,33.05c0,1.15.73,2.09,1.56,2.06s1.53-1,1.54-2.11-.75-2.17-1.63-2.11S81.78,31.87,81.8,33.05Zm-1.43,10.3c.36-1.76.73-3.51,1.07-5.29.68-3.53-.08-6.26-2.32-8.34l-.38-.39c.76-1.79,1.45-3.48,2.19-5.11,1-2.14,2.88-2.21,3.8-.06,3.09,7.12,6.11,14.27,9.16,21.41a1.91,1.91,0,0,1,0,.37H83.75c.35-1.25.63-2.67-.53-3.35a1.67,1.67,0,0,0-1.75.29c-.8.73-.59,1.9-.15,3.07H79.85C80,45.06,80.2,44.2,80.37,43.35Z"/><path class="cls-3" d="M79.79,92.93c-.17,4.19-3,8.46-6.32,9.58a8.69,8.69,0,0,1-2.71.4q-18.21,0-36.43,0c-4.4,0-7.85-3.4-8.93-8.74-.07-.34-.1-.7-.17-1.25h5.94c1.2,0,1.86-.75,1.87-2.07s-.65-2.11-1.83-2.12c-2,0-4-.07-6,0a4.44,4.44,0,0,1-3.07-1.1A49,49,0,0,1,6.82,67.86,62.57,62.57,0,0,1,4,59.08c-1.24-4.83,1-8.8,4.75-8.8H96.44c3.69,0,5.83,4,4.73,8.77a48.87,48.87,0,0,1-13,24c-5.68,5.79-5.71,5.74-12.79,5.74H38.22a2.1,2.1,0,0,0,0,4.19H79.79Z"/><path d="M77.37,18c-.84-.06-1.48-1-1.46-2.17a2.39,2.39,0,0,1,.69-1.73,1.27,1.27,0,0,1,.87-.34c.82,0,1.52,1,1.52,2.12S78.28,18,77.45,18Z"/><path class="cls-2" d="M72.09,24.07l-1.49.14c-.1-2.11-.21-4.22-.27-6.33a2,2,0,0,1,.46-1.31c1.61-1.48,3.22-2.94,4.83-4.4l1,2a2.39,2.39,0,0,0-.69,1.73c0,1.15.62,2.11,1.46,2.17h.08l1.87,2.17a7.1,7.1,0,0,0-.89,1.43c-.72,1.52-1.35,3.12-2,4.69L75,25.2A2.92,2.92,0,0,0,75.19,24c0-1.17-.7-2.06-1.57-2S72.08,22.91,72.09,24.07Z"/><path class="cls-2" d="M83.37,9.84c-.87,0-1.56.89-1.57,2.06S82.43,14,83.31,14s1.57-.87,1.59-2A1.94,1.94,0,0,0,83.37,9.84Zm-7.75,2.33q3.75-3.39,7.5-6.74c1.6-1.43,3.23-.34,3.49,2.22,0,.37.06.73.08,1.1.2,4.11.38,8.22.58,12.55-.29-.35-.49-.57-.66-.8-2.11-2.8-5.26-2.83-7.29-.29L77.45,18c.83,0,1.54-1,1.54-2.12s-.7-2.09-1.52-2.12a1.27,1.27,0,0,0-.87.34Z"/><path d="M75,25.2a1.49,1.49,0,0,1-1.27.91c-.87,0-1.57-.88-1.59-2S72.76,22,73.62,22s1.55.86,1.57,2A2.92,2.92,0,0,1,75,25.2Z"/><path class="cls-2" d="M71,30.35c-.1-1.67-.19-3.17-.27-4.66,0-.49,0-1-.09-1.48l1.49-.14c0,1.16.72,2.05,1.59,2A1.49,1.49,0,0,0,75,25.2l1.45,1.13c-.23.54-.46,1.06-.71,1.58a2.39,2.39,0,0,1-1.12,1.16C73.42,29.58,72.24,29.91,71,30.35Z"/><path class="cls-1" d="M62.12,12.2c-1.52-2.52-3.84-2.76-6-3.54Q46.69,5.18,37.22,1.81a4.18,4.18,0,0,0-1.45-.25V.25H84.55V.54a4.7,4.7,0,0,0-3.1,1.3C77.51,5.31,73.61,8.89,69.7,12.42c-.29.25-.57.5-.84.72C66.2,10.74,64.84,10.53,62.12,12.2Z"/><path d="M68.43,41.64c-.82,0-1.57-.91-1.61-2s.72-2.22,1.57-2.22,1.54,1,1.55,2.09S69.27,41.61,68.43,41.64Z"/><path d="M63.52,26.91c.88,0,1.62,1,1.6,2.15s-.73,2-1.59,2S62,30.16,62,29,62.67,26.93,63.52,26.91Z"/><path d="M62.05,44.76a1.93,1.93,0,0,1-1.54-2.09c0-1.18.74-2.13,1.63-2.08s1.51,1,1.48,2.14S62.9,44.78,62.05,44.76Z"/><path class="cls-2" d="M68.39,37.41c-.85,0-1.61,1.06-1.57,2.22s.79,2,1.61,2,1.52-1,1.51-2.14S69.22,37.41,68.39,37.41Zm-7.88,5.26a1.93,1.93,0,0,0,1.54,2.09c.85,0,1.55-.9,1.57-2s-.61-2.1-1.48-2.14S60.5,41.49,60.51,42.67Zm11,3.31H58c-.28-1.14-.49-2.16-.79-3.11s-.72-1.75-1.14-2.8c.39-.18.72-.35,1.06-.47q9-3.18,18.06-6.34c.84-.3,1.66-.55,2.44.22a3.08,3.08,0,0,1,.89,2.85c-.56,3-1.19,6-1.83,9A1,1,0,0,1,76,46a16.3,16.3,0,0,1-2.24,0c.44-1.34.69-2.65-.31-3.38a1.59,1.59,0,0,0-1.75.07C70.79,43.49,70.91,44.73,71.47,46Z"/><path d="M58.9,27.42a1.12,1.12,0,0,1-.59-.17,2.25,2.25,0,0,1-.93-2,2.34,2.34,0,0,1,.67-1.72,1.34,1.34,0,0,1,.89-.34c.86,0,1.55,1,1.53,2.11S59.75,27.43,58.9,27.42Z"/><path class="cls-2" d="M62,29c0,1.14.69,2.05,1.55,2.06s1.56-.88,1.59-2-.72-2.18-1.6-2.15S62,27.89,62,29ZM57.2,21.85l6.11-5.54c.86-.79,1.71-1.37,2.73-.61s1.14,1.9,1.19,3.27c.14,3.43.35,6.85.52,10.28,0,.72,0,1.45,0,2.26-3.32,1.17-6.66,2.33-10,3.47l-.2-1.07a2.13,2.13,0,0,0,1.23-2.07c0-1.1-.72-2.09-1.55-2.11h0l1.08-2.48a1.12,1.12,0,0,0,.59.17c.85,0,1.56-.93,1.57-2.08s-.67-2.1-1.53-2.11a1.34,1.34,0,0,0-.89.34Z"/><path d="M57.27,34c-.87,0-1.63-1-1.6-2.17s.75-2.06,1.56-2.06h0c.83,0,1.55,1,1.55,2.11a2.13,2.13,0,0,1-1.23,2.07A1,1,0,0,1,57.27,34Z"/><path class="cls-2" d="M54.21,35.71c-1.16-2.61-2.28-5.27-3.43-8,.31-.31.55-.56.79-.78,1.88-1.71,3.75-3.41,5.63-5.1l.85,1.72a2.34,2.34,0,0,0-.67,1.72,2.25,2.25,0,0,0,.93,2l-1.08,2.48c-.81,0-1.54.95-1.56,2.06S56.4,34,57.27,34a1,1,0,0,0,.3-.05l.2,1.07c-1,.35-1.93.68-2.9,1A.63.63,0,0,1,54.21,35.71Z"/><path d="M48.36,44.77c-.85,0-1.53-1-1.51-2.14s.69-2.06,1.57-2.05,1.53.92,1.51,2.12S49.22,44.78,48.36,44.77Z"/><path d="M49.89,14.68c.86,0,1.53.94,1.53,2.1s-.7,2.09-1.53,2.11-1.62-1-1.59-2.18S49,14.67,49.89,14.68Z"/><path d="M44.17,36.24c-.88,0-1.61-1.06-1.55-2.23s.76-2,1.62-2a1.92,1.92,0,0,1,1.51,2.13C45.73,35.3,45,36.25,44.17,36.24Z"/><path d="M42.12,44.76c-.86,0-1.56-.87-1.59-2s.63-2.11,1.5-2.15,1.57.84,1.59,2S43,44.73,42.12,44.76Z"/><path class="cls-2" d="M35.72,34.87c-.86,0-1.52,1-1.5,2.15s.7,2.06,1.58,2,1.53-.95,1.5-2.14S36.58,34.85,35.72,34.87Zm11.13,7.76c0,1.16.66,2.11,1.51,2.14s1.56-.9,1.57-2.07-.63-2.09-1.51-2.12S46.86,41.46,46.85,42.63Zm-2.68-6.39c.84,0,1.56-.94,1.58-2.06a1.92,1.92,0,0,0-1.51-2.13c-.86,0-1.57.82-1.62,2S43.29,36.22,44.17,36.24Zm-3.64,6.49c0,1.16.73,2.07,1.59,2s1.52-1,1.5-2.15-.7-2.06-1.59-2S40.51,41.54,40.53,42.73ZM39.08,18.31c1.05-2.46,3-2.48,4,0q5.61,13.05,11.16,26.15c.18.41.28.9.49,1.59H27.46a17,17,0,0,1,.5-1.67Q33.51,31.31,39.08,18.31Zm1.7,5.77c-.88,0-1.51.94-1.5,2.14s.72,2.08,1.58,2a1.9,1.9,0,0,0,1.5-2.14C42.34,25,41.66,24.07,40.78,24.08Z"/><path d="M40.86,28.26c-.86,0-1.56-.88-1.58-2s.62-2.11,1.5-2.14,1.56.87,1.58,2A1.9,1.9,0,0,1,40.86,28.26Z"/><path d="M37.93,9.93c0,1.18-.65,2.11-1.52,2.12s-1.56-.92-1.57-2.08.66-2.08,1.54-2.1S37.92,8.74,37.93,9.93Z"/><path d="M35.8,39.05c-.88,0-1.56-.84-1.58-2s.64-2.12,1.5-2.15,1.56.87,1.58,2S36.68,39,35.8,39.05Z"/><path class="cls-2" d="M48.3,16.71c0,1.17.72,2.2,1.59,2.18s1.53-1,1.53-2.11-.67-2.08-1.53-2.1S48.33,15.59,48.3,16.71ZM37.93,9.93c0-1.19-.67-2.07-1.55-2.06s-1.55.94-1.54,2.1.71,2.08,1.57,2.08S37.94,11.11,37.93,9.93ZM36.78,6q10.68,3.86,21.38,7.75a9.77,9.77,0,0,1,1.43.81c-3.56,3.23-7,6.3-10.4,9.43-1.23-2.85-2.36-5.61-3.58-8.3-1.78-3.86-5.56-4.63-8-1.67a14.37,14.37,0,0,0-1.19,2c-.21.39-.39.83-.72,1.52a9.82,9.82,0,0,1-.61-1.53c-.43-2-.84-4-1.23-6.09C33.31,7,34.62,5.24,36.78,6Z"/><path class="cls-1" d="M20.94,91.55a3.2,3.2,0,0,1,1.2,2.26c.93,7,4.74,12,10,13.16a1.9,1.9,0,0,1,.47.24H.25V56.53H.46a15.8,15.8,0,0,0,.37,3.29A52.31,52.31,0,0,0,13,84.13,98.59,98.59,0,0,0,20.94,91.55Z"/><path class="cls-1" d="M29,11.35C26.5,9.06,24,6.74,21.42,4.51a4.9,4.9,0,0,0-3.24-1.36V.25H35.77V1.56c-2.44,0-4.56,2.19-5.06,5.58a18.49,18.49,0,0,0,.12,3.92c.06.66.25,1.31.44,2.27Z"/><path d="M24.29,20.14c0-1.19.79-2.12,1.68-2a1.44,1.44,0,0,1,1,.66,2.43,2.43,0,0,1,.42,1.54c-.05,1.15-.71,2-1.55,2H25.8A1.91,1.91,0,0,1,24.29,20.14Z"/><path d="M25.93,24.66a1.9,1.9,0,0,1,1.52,2.11,1.88,1.88,0,0,1-1.57,2.05,1.17,1.17,0,0,1-.32,0,2.08,2.08,0,0,1-1.25-2.15c.05-1.13.73-2,1.58-2Z"/><path class="cls-2" d="M29.15,31.51c-1.28-.45-2.57-.91-3.85-1.38l.26-1.35a1.17,1.17,0,0,0,.32,0,1.88,1.88,0,0,0,1.57-2.05,1.9,1.9,0,0,0-1.52-2.11h0l0-2.4c.84,0,1.5-.81,1.55-2A2.43,2.43,0,0,0,27,18.76l1.43-2.89,5.83,5.23C32.8,24.49,31.43,27.75,30,31,29.87,31.28,29.39,31.59,29.15,31.51Z"/><path d="M24.68,41.5c0,1.22-.73,2.18-1.6,2.14a2,2,0,0,1-1.48-2.16c0-1.16.68-2.06,1.55-2.06S24.67,40.35,24.68,41.5Z"/><path d="M19.66,21.53a2,2,0,0,1,1.46,2.22c-.05,1.12-.81,2.05-1.62,2S18,24.69,18,23.59,18.79,21.45,19.66,21.53Z"/><path d="M18.9,33.76c.87,0,1.56.85,1.57,2s-.66,2.11-1.52,2.12-1.57-.9-1.59-2.05S18,33.77,18.9,33.76Z"/><path d="M19.48,13.87c.88,0,1.57.84,1.59,2s-.65,2.14-1.49,2.18S18,17.16,18,16A2,2,0,0,1,19.48,13.87Z"/><path class="cls-2" d="M20.47,35.8c0-1.19-.7-2.07-1.57-2s-1.55,1-1.54,2.11.72,2.06,1.59,2.05S20.49,37,20.47,35.8ZM23.66,46c-3.93.06-7.85.06-11.79,0-.24,0-.65-.45-.72-.8-.84-4-1.66-8.1-2.41-12.18-.42-2.25.94-4.12,2.57-3.54,5.47,1.93,10.91,3.94,16.36,5.91a2.22,2.22,0,0,1,.35.25c-.85,2-1.73,3.94-2.51,6-.45,1.16-.71,2.46-1.12,3.64C24.27,45.6,23.91,46,23.66,46Zm-.58-2.38c.87,0,1.6-.92,1.6-2.14s-.69-2.06-1.53-2.08-1.54.9-1.55,2.06A2,2,0,0,0,23.08,43.64Z"/><path d="M34.25,21.1l-5.83-5.23c-3-2.7-6-5.38-9-8-1.44-1.26-3.07,0-3.28,2.3-.09,1-.1,2-.14,3-.2,4.42-.41,8.84-.6,13.2.12.14.16.22.22.23q4.85,1.78,9.68,3.53c1.28.47,2.57.93,3.85,1.38.24.08.72-.23.86-.54C31.43,27.75,32.8,24.49,34.25,21.1ZM28,44.33a17,17,0,0,0-.5,1.67H54.75c-.21-.69-.31-1.18-.49-1.59Q48.69,31.33,43.1,18.26c-1.05-2.43-3-2.41-4,0Q33.5,31.29,28,44.33Zm-16.81.89c.07.35.48.8.72.8,3.94.06,7.86.06,11.79,0,.25,0,.61-.42.73-.77.41-1.18.67-2.48,1.12-3.64.78-2,1.66-3.94,2.51-6a2.22,2.22,0,0,0-.35-.25c-5.45-2-10.89-4-16.36-5.91-1.63-.58-3,1.29-2.57,3.54C9.49,37.12,10.31,41.17,11.15,45.22ZM78.74,29.33l.38.39c2.24,2.08,3,4.81,2.32,8.34-.34,1.78-.71,3.53-1.07,5.29-.17.85-.35,1.71-.52,2.6h1.47c-.44-1.17-.65-2.34.15-3.07a1.67,1.67,0,0,1,1.75-.29c1.16.68.88,2.1.53,3.35H93.93a1.91,1.91,0,0,0,0-.37c-3-7.14-6.07-14.29-9.16-21.41-.92-2.15-2.81-2.08-3.8.06C80.19,25.85,79.5,27.54,78.74,29.33Zm-8-3.64c.08,1.49.17,3,.27,4.66,1.28-.44,2.46-.77,3.61-1.28a2.39,2.39,0,0,0,1.12-1.16c.25-.52.48-1,.71-1.58.68-1.57,1.31-3.17,2-4.69a7.1,7.1,0,0,1,.89-1.43c2-2.54,5.18-2.51,7.29.29.17.23.37.45.66.8-.2-4.33-.38-8.44-.58-12.55,0-.37,0-.73-.08-1.1C86.35,5.09,84.72,4,83.12,5.43q-3.75,3.36-7.5,6.74c-1.61,1.46-3.22,2.92-4.83,4.4a2,2,0,0,0-.46,1.31c.06,2.11.17,4.22.27,6.33C70.64,24.7,70.67,25.2,70.69,25.69ZM6.82,67.86a49,49,0,0,0,15.32,19.8,4.44,4.44,0,0,0,3.07,1.1c2-.09,4,0,6,0,1.18,0,1.84.8,1.83,2.12s-.67,2-1.87,2.07H25.23c.07.55.1.91.17,1.25,1.08,5.34,4.53,8.73,8.93,8.74q18.21,0,36.43,0a8.69,8.69,0,0,0,2.71-.4c3.3-1.12,6.15-5.39,6.32-9.58H38.23a2.1,2.1,0,0,1,0-4.19H75.36c7.08,0,7.11.05,12.79-5.74a48.87,48.87,0,0,0,13-24c1.1-4.81-1-8.75-4.73-8.77H8.72c-3.77,0-6,4-4.75,8.8A62.57,62.57,0,0,0,6.82,67.86ZM58,46H71.47c-.56-1.25-.68-2.49.23-3.22a1.59,1.59,0,0,1,1.75-.07c1,.73.75,2,.31,3.38A16.3,16.3,0,0,0,76,46a1,1,0,0,0,.69-.7c.64-3,1.27-6,1.83-9a3.08,3.08,0,0,0-.89-2.85c-.78-.77-1.6-.52-2.44-.22q-9,3.18-18.06,6.34c-.34.12-.67.29-1.06.47.42,1,.83,1.89,1.14,2.8S57.72,44.84,58,46ZM54.21,35.71a.63.63,0,0,0,.66.28c1-.33,1.93-.66,2.9-1,3.32-1.14,6.66-2.3,10-3.47,0-.81,0-1.54,0-2.26-.17-3.43-.38-6.85-.52-10.28,0-1.37-.22-2.57-1.19-3.27s-1.87-.18-2.73.61L57.2,21.85c-1.88,1.69-3.75,3.39-5.63,5.1-.24.22-.48.47-.79.78C51.93,30.44,53.05,33.1,54.21,35.71ZM37.6,14c2.45-3,6.23-2.19,8,1.67,1.22,2.69,2.35,5.45,3.58,8.3,3.44-3.13,6.84-6.2,10.4-9.43a9.77,9.77,0,0,0-1.43-.81Q47.47,9.85,36.78,6c-2.16-.77-3.47,1-2.93,4,.39,2,.8,4.06,1.23,6.09a9.82,9.82,0,0,0,.61,1.53c.33-.69.51-1.13.72-1.52A14.37,14.37,0,0,1,37.6,14ZM21.42,4.51C24,6.74,26.5,9.06,29,11.35l2.23,2c-.19-1-.38-1.61-.44-2.27a18.49,18.49,0,0,1-.12-3.92c.5-3.39,2.62-5.58,5.06-5.58a4.18,4.18,0,0,1,1.45.25q9.47,3.36,18.93,6.85c2.13.78,4.45,1,6,3.54,2.72-1.67,4.08-1.46,6.74.94.27-.22.55-.47.84-.72,3.91-3.53,7.81-7.11,11.75-10.58a4.7,4.7,0,0,1,3.1-1.3c2.64,0,5,2.69,5.2,6.82.39,7.14.69,14.27,1.06,21.41a6.11,6.11,0,0,0,.44,2.05c2,4.77,4,9.54,6.11,14.27a2.32,2.32,0,0,0,1.19,1.18c3.06,1.12,5,3.75,5.85,7.82.07.29.16.58.25.87v3.29a1.17,1.17,0,0,0-.16.34,52.46,52.46,0,0,1-5.62,15.85A53,53,0,0,1,84,91.73a2.3,2.3,0,0,0-1,1.84,17.35,17.35,0,0,1-4.82,10.58,12.82,12.82,0,0,1-5.69,3.06H32.6a1.9,1.9,0,0,0-.47-.24c-5.25-1.2-9.06-6.16-10-13.16a3.2,3.2,0,0,0-1.2-2.26A98.59,98.59,0,0,1,13,84.13,52.31,52.31,0,0,1,.83,59.82a15.8,15.8,0,0,1-.37-3.29A12.86,12.86,0,0,1,2,50.31,7.48,7.48,0,0,1,8,46c-.12-.66-.23-1.22-.34-1.79-.67-3.44-1.41-6.88-2-10.35-.81-4.64,1.87-8.92,5.41-8.7.38,0,.77.09,1.22.13.13-2.69.25-5.2.38-7.71s.21-5,.36-7.54c.27-4.25,2.53-6.91,5.16-6.91A4.9,4.9,0,0,1,21.42,4.51Z"/><path class="cls-2" d="M25.3,30.13q-4.85-1.74-9.68-3.53c-.06,0-.1-.09-.22-.23.19-4.36.4-8.78.6-13.2,0-1,.05-2,.14-3,.21-2.33,1.84-3.56,3.28-2.3,3,2.64,6,5.32,9,8L27,18.76a1.44,1.44,0,0,0-1-.66c-.89-.08-1.66.85-1.68,2a1.91,1.91,0,0,0,1.51,2.12h.06l0,2.4c-.85,0-1.53.84-1.58,2a2.08,2.08,0,0,0,1.25,2.15Zm-5.8-4.38c.81.05,1.57-.88,1.62-2a2,2,0,0,0-1.46-2.22c-.87-.08-1.65.88-1.67,2.06S18.67,25.71,19.5,25.75ZM18,16c0,1.14.76,2.08,1.61,2.05s1.52-1,1.49-2.18-.71-2.06-1.59-2A2,2,0,0,0,18,16Z"/><path class="cls-1" d="M12.66,17.6c-.13,2.51-.25,5-.38,7.71-.45,0-.84-.1-1.22-.13-3.54-.22-6.22,4.06-5.41,8.7.61,3.47,1.35,6.91,2,10.35.11.57.22,1.13.34,1.79a7.48,7.48,0,0,0-6,4.29A12.86,12.86,0,0,0,.46,56.53H.25V.25H18.18v2.9c-2.63,0-4.89,2.66-5.16,6.91C12.87,12.57,12.78,15.09,12.66,17.6Z"/></g></g></svg>