<svg xmlns="http://www.w3.org/2000/svg" viewBox="0 0 104.4 106.96"><defs><style>.cls-1{fill:#e9b74a;}.cls-2{fill:#b67b3b;}.cls-3{fill:#d0944c;}.cls-4{fill:#e0ab64;}.cls-5{fill:#84582d;}.cls-6{fill:#f4be52;}.cls-7{fill:#79983e;}.cls-8{fill:#fcc666;}.cls-9{fill:#97b147;}.cls-10{fill:#fadf8c;}.cls-11{fill:#a5522b;}.cls-12{fill:#e2bc6c;}</style></defs><g id="Capa_2" data-name="Capa 2"><g id="Capa_1-2" data-name="Capa 1"><path class="cls-1" d="M44,41A49.3,49.3,0,0,0,39,34.9a36.6,36.6,0,0,1-2.62-3.16c-1.68-2.36-1.73-4.14-.13-6.55a51.44,51.44,0,0,1,5.57-6.86L57.07,2.4A4,4,0,0,1,57.48,2C58.66,1,59.84-.78,61.32.37s1,3.27.81,5c-.65,6.86-2.41,13.41-3.71,20.09-.94,4.85-1.76,9.75-2.63,14.62a3.56,3.56,0,0,0,0,2.12c-1,.92-.39,1.88,0,2.83-.23.51-1.2.71-.44,1.63l-.43,1.25c-2.15-.33-3,1.79-4,3.44a3,3,0,0,0-1.79-2.15c-.33-.51-.22-1.32-.72-1.72l-.67-.65C46.78,44.56,45.25,42.91,44,41Zm10-18.35c0-.8.5-.84,1-.86s.86-.37.5-.95c-1.22-1.93-.17-2.21,1.13-2.27-1.25-2.67-1.16-3,1.05-3.9.15-.06.39-.15.41-.28.34-2.09,1.52-3.86,1.48-6.09V7c.37-.37.71,1.12,1,.07.44-1.4-.83-3.2-2-2.92-2,.47-3.06,2-3.19,4.59l-.72.86c-1.65-.67-1.16-.07-2,1-1.94,2.48.5,2.39.93,3.43-1.25-.07-2.65-.4-2.43,2.15a6.14,6.14,0,0,1-1.22-2c-.23-.66-.73-1.29-1.39-.82s-.63,1.27-.24,2c.13.27.82.33.26.9a1.66,1.66,0,0,0-.28,2.25c.48.59,1.1,1.31,2.07.47.73-.64,1.55,0,2,1a1.9,1.9,0,0,1-.41,2.3c-.75.71-1.44.31-2-.34a15.13,15.13,0,0,1-1.08-1.58c-2,1.81-2,1.86-3.83,1.39-1-.25-1.92-.64-2.46.93a.56.56,0,0,1-.76.32c-1.8-.79-1.85.46-1.61,2.11s.21,1.64-1.33,2a2.8,2.8,0,0,1,0-.41c.1-.56,1.13-.67.53-1.51a1.08,1.08,0,0,0-1.6-.17c-.57.38-.25.93-.2,1.58.12,1.4-.78,3.16,1.27,3.37a2.25,2.25,0,0,0,0,.63c.26,1.68,3,3.18,4,2.09.58-.64,1.18-.37,1.78-.5h1c.51,1,1.86,1.63,1.05,3.22-.9,1.77-.06,3.13.51,4.6.3.79.65,1.07,1.35.56.46-.35,1-1.36,1.61-.1a1.61,1.61,0,0,0-1.33,2,2,2,0,0,0,1.65,1.87c1.76.13,1.84-1.4,1.75-3,1.08,0,.38,1.63,1.18,2.05.52-1.62,0-3-.14-4.47-.23-1.73-.88-2.74-2.41-2.37l-1-.45c-.32-1.56-.56-3.22.81-4.12a32.82,32.82,0,0,1,4-2c-.29.72-.6,1.46.17,2a.63.63,0,0,0,1-.37c.44-1.43-.53-1.39-1.19-1.64A4.07,4.07,0,0,1,55.48,28c.61-1.13.33-1.76-.52-2.28.55-.66,1.43-1.17.91-2.4C55.44,22.32,54.67,22.46,53.93,22.66Zm-.39,11.15c-.18-1-.7-1.55-1.56-1.55a1.37,1.37,0,0,0-1.44,1.45,1.75,1.75,0,0,0,1.53,1.93C52.89,35.68,53.37,34.89,53.54,33.81ZM47.61,18.68A1.94,1.94,0,0,0,46,17.49c-.57,0-1.17.32-1,1.05s.64,1.78,1.44,1.87S47.35,19.55,47.61,18.68ZM52.9,44.54c-.6.93-1.62,1-2.39,1.75C52.61,47.38,52.61,47.38,52.9,44.54Zm-7-9.94c0-.54-.28-.9-.73-1s-.77.25-.85.79.25.85.7.86S45.79,35.31,45.86,34.6ZM57.09,17.37c.43,0,.62-.23.63-.74s-.14-.82-.54-.87a.58.58,0,0,0-.75.58A.91.91,0,0,0,57.09,17.37ZM58,20.1c-.11-.47-.45-.46-.8-.4a.51.51,0,0,0-.4.58c0,.57.38.66.74.61S58.05,20.63,58,20.1Z"/><path class="cls-2" d="M18.12,61.87c.88,0,1.57-.35,1.64-1.68a2.1,2.1,0,0,1,.76-1.39,3.2,3.2,0,0,1,.61.72c.3.68.3,2,1.33,1,.78-.73,1.21-1.6.14-2.54-1.2-1.15-.9-1.88.39-2.41a3.42,3.42,0,0,1,1.65-.31l.73-.05.34-.24,1.48-.09c-.32.85-1.32,1.25-1,2.49-1.73.49-1.27,1.83-.65,3,.43.82.53,1.27-.34,1.44-.55.11-1.13.28-1.07,1.08.09,1.12.89.54,1.38.64a3.5,3.5,0,0,0,1,0l2.78,1a5.6,5.6,0,0,1-1,2.3c-.05-.9-.09-1.76-.87-1.91-1.08-.21-1.82.47-2.38,1.56a1.46,1.46,0,0,1-1.48-.17c-1.2-1-1.82-.4-2.16,1.15a2,2,0,0,1-.3.5c-.68.07-1.38.09-1.54,1.19l0,.1L17.72,68c.36-.22.72-.43,1.07-.67,2.22-1.49,2.24-2,.71-4.4C19.08,62.23,18.37,62.61,18.12,61.87Z"/><path class="cls-3" d="M9.39,77.52c-.75-1.33,0-3-.71-4.41-.28-.58.32-1.18.85-1.38s1.32-.41,2-.61l.34-.11a2.55,2.55,0,0,1,.54,2.53c-.23.71,0,1.12.52,1.31s1.2.76,1.7-.17a3.2,3.2,0,0,0,.1-3,7.88,7.88,0,0,1-1.16-3.06l.76-.09c.17.19.24,0,.31-.14l0,0h1.05l0,1.35c.29,1,.29,2.47,1.49,2.55S19,71.2,19.26,69.86a4.66,4.66,0,0,1,.23-.58l0-.1c.23.48.45.95.68,1.42-.59,1.23-.59,2.77-1.37,3.89-1.06.69-2.37.83-3.13,2.18-1.53-1.71-2.83,0-4.21.44C10.75,76.91,10.1,77.46,9.39,77.52Z"/><path class="cls-4" d="M44,41c1.29,1.9,2.82,3.55,3.71,5.85-.8,1.29-2.12,2-2.54,3.7-1.92.61-2,.49-1.94-2.51a2,2,0,0,0,1.14-2.5c-.35-1.18-1.34-.66-2.12-.37-.6.22-1.17.67-1.84.52A4.42,4.42,0,0,1,40,43.45C41.3,42.59,42.48,41.44,44,41Z"/><path class="cls-2" d="M67.84,47.19c1.09,0,2.29-.9,3.15.7a6.68,6.68,0,0,0-.7,5.65c-.56,1.69.52,3.2.32,4.85-3,.06-2.73-.46-2.78,2.71.09,1.29-.63,1.22-1.31,1.24a11.46,11.46,0,0,1-.79-3.74,4.4,4.4,0,0,1,.54-.52c2.41-1.66,2.42-1.69.81-4.39a3.42,3.42,0,0,1-.21-.59c1.09.22,1.5-.38,1.3-1.7h0l.35-.45h0c.37,0,.91.2.93-.49s-.44-.75-.87-.75C68.3,48.89,66.88,48.58,67.84,47.19Z"/><path class="cls-4" d="M85.52,62.31c.26,1.74,2.11,1.35,2.5,2.91a5,5,0,0,1-.24,3.16,5.71,5.71,0,0,0-.48,3.05h0c-1,.1-1.81-.14-1.71-1.75l-.12-3.18c.37-1.41-.45-1.07-1-1.11-1.39-.09-2.85.27-4.07-1,0-1,.67-1.24,1.25-1.57C82.87,62.13,84.21,62.38,85.52,62.31Z"/><path class="cls-3" d="M55.77,45.06c-.34-1-.91-1.91,0-2.83a2.59,2.59,0,0,1,2.66-.1.74.74,0,0,1-.67.57c-.74.07-1,.78-1,1.5,0,1,.77.62,1.24.67a2,2,0,0,0,2.18-.95c.66-.09,1,.54,1.34,1,.25,1.42,1.73,1.24,2.09,2.52a4,4,0,0,1,.25,2.31c-1.09-1.28-2.2-1.48-3.34-.08l-1.73-.13,0-.73h0c1.44-1.14.39-1.67-.36-2.27-.28-.4-.65-.33-1-.32A1.73,1.73,0,0,0,55.77,45.06Z"/><path class="cls-4" d="M63.66,47.45c-.36-1.28-1.84-1.1-2.09-2.52,2.87-2.63,4.31,1,6.27,2.26-1,1.39.46,1.7.73,2.53L68.51,51h0l-.35.45h0l-1.87.89c-.81-.21-1.22-1-1.6-1.78,1.63-1.92,1.63-1.92-.54-2.93A2.3,2.3,0,0,0,63.66,47.45Z"/><path class="cls-2" d="M76.86,52.84c1.63-1,2-.76,2.16,1.54a2.45,2.45,0,0,0,.56,1.37l.07.45c-1.1.16-1.36.95-1.05,2.18-1.26-.42-2.48-1.1-3.83-.89.44-1.61-1.16-2.34-1.06-3.82C74.77,53.41,76.16,55.17,76.86,52.84Z"/><path class="cls-4" d="M15.69,69.72c0-.45,0-.9,0-1.35-.19-2.45,1.68-3.1,2.67-4.58-.69-.44-1.15.32-1.7.29-.88-.33-.71-.82-.18-1.46a1.67,1.67,0,0,1,1.68-.75c.25.74,1,.36,1.38,1,1.53,2.37,1.51,2.91-.71,4.4-.35.24-.71.45-1.07.67C16.7,67.92,16,68.54,15.69,69.72Z"/><path class="cls-2" d="M85.52,62.31c-1.31.07-2.65-.18-3.91.55-.58.33-1.2.57-1.25,1.57l-.57.57a1.66,1.66,0,0,1-1.28-.8A10.61,10.61,0,0,0,79.66,61v-.45c.71-1.24,1.63-1.51,2.73-.86S85.17,60.14,85.52,62.31Z"/><path class="cls-3" d="M27.19,54.89,25.71,55c-.47-.58-1.29-1.14-.71-2.09a1.81,1.81,0,0,1,2.6-.77c.65.38,1.61.5,1.94.06,1.11-1.46,2.38-.58,3.57-.72A4.68,4.68,0,0,1,31.78,54C30.11,53.07,28.66,54.08,27.19,54.89Z"/><path class="cls-4" d="M33.11,51.46c-1.19.14-2.46-.74-3.57.72-.33.44-1.29.32-1.94-.06.48-1.1,1.38-.31,2.06-.74.08-.48-.3-.36-.49-.49-.4-.28-.89-.52-.83-1.21s.55-.87,1-1a9.34,9.34,0,0,1,3.76-.19,2.28,2.28,0,0,1,.95,2.45Z"/><path class="cls-3" d="M91.61,70.1c.41.27.91.36,1.16.94-2,.68-1.64,3.15-2.38,4.79-.73-.23-1.16.49-1.72.84l-.7-.45c.5-.69,1.56-1,1.29-2.23s-1.16-1.42-2-1.64l0-.92h0A10.12,10.12,0,0,1,91.61,70.1Z"/><path class="cls-4" d="M82.39,59.69c-1.1-.65-2-.38-2.73.86a2.15,2.15,0,0,0-1.06-2.17c-.31-1.23,0-2,1.05-2.18a9.51,9.51,0,0,1,3.21.48c.55.16,1.21.27,1.3,1.13s-.57,1.11-1.09,1.35C82.8,59.28,82.5,59.28,82.39,59.69Z"/><path class="cls-4" d="M33.72,48.3c.21-1.2-1.41-2.72.16-3.57,1.29-.69,1.74,1.23,2.56,2a3.47,3.47,0,0,0,.44.31,2.14,2.14,0,0,0,1,1.76c0,.13,0,.26,0,.4a1.52,1.52,0,0,1-.66,1.35C35.83,50.39,35.06,48.66,33.72,48.3Z"/><path class="cls-4" d="M76.86,52.84c-.7,2.33-2.09.57-3.15.83A7.48,7.48,0,0,0,71,53.13c-.3-1.73.68-2.14,1.67-2.56C74.23,50.76,76,50.38,76.86,52.84Z"/><path class="cls-2" d="M13.56,68.59a7.88,7.88,0,0,0,1.16,3.06,3.2,3.2,0,0,1-.1,3c-.5.93-1.13.4-1.7.17s-.75-.6-.52-1.31A2.55,2.55,0,0,0,11.86,71C11.91,69.63,11.83,68.11,13.56,68.59Z"/><path class="cls-2" d="M90.39,75.83c.74-1.64.42-4.11,2.38-4.79l.75.52,0,2.49v0c-.35-.14-.25.21-.28.42a2.69,2.69,0,0,0-.77,2.17C91.74,76.62,90.4,79.06,90.39,75.83Z"/><path class="cls-3" d="M37.9,48.81a2.14,2.14,0,0,1-1-1.76A6.8,6.8,0,0,1,40,43.45a4.42,4.42,0,0,0,.38,2.25A4.19,4.19,0,0,1,37.9,48.81Z"/><path class="cls-2" d="M91.61,70.1a10.12,10.12,0,0,0-4.31,1.33,5.71,5.71,0,0,1,.48-3.05A5,5,0,0,0,88,65.22l.57-.07.46.17a1.65,1.65,0,0,1,.16,2.09c-.66,1.27-.1,1.4.7,1.41S91.38,69,91.61,70.1Z"/><path class="cls-3" d="M72.63,50.57c-1,.42-2,.83-1.67,2.56a.61.61,0,0,1-.67.41,6.68,6.68,0,0,1,.7-5.65C73.3,47.5,73.44,47.73,72.63,50.57Z"/><path class="cls-2" d="M60.23,43.92a2,2,0,0,1-2.18.95c-.47,0-1.2.31-1.24-.67,0-.72.26-1.43,1-1.5a.74.74,0,0,0,.67-.57C59.48,42.09,60.06,42.69,60.23,43.92Z"/><path class="cls-2" d="M33.72,48.3c1.34.36,2.11,2.09,3.52,2.26V51c-.6,2.14-1.62.54-2.48.45-.11-.45-.43-.47-.71-.55a2.28,2.28,0,0,0-.95-2.45Z"/><path class="cls-2" d="M16.62,64.08c.55,0,1-.73,1.7-.29-1,1.48-2.86,2.13-2.67,4.58H14.6C14,66,16,65.54,16.62,64.08Z"/><path class="cls-3" d="M22.6,58c1.07.94.64,1.81-.14,2.54-1,1-1-.33-1.33-1a3.2,3.2,0,0,0-.61-.72C20.92,57.38,21.9,58.23,22.6,58Z"/><path class="cls-4" d="M79.58,55.75A2.45,2.45,0,0,1,79,54.38,1.1,1.1,0,0,1,79.58,55.75Z"/><path class="cls-3" d="M25.37,55.22l-.73.05A.55.55,0,0,1,25.37,55.22Z"/><path class="cls-4" d="M89.05,65.32l-.46-.17C88.8,65,89,65.05,89.05,65.32Z"/><path class="cls-2" d="M14.63,68.36c-.07.19-.14.33-.31.14A.87.87,0,0,1,14.63,68.36Z"/><path class="cls-2" d="M6.92,100.3c-.42-.07-.7.22-1,.53l-.41.07L5,100.37V99.26a3.25,3.25,0,0,0,.67-2.13H3.87l-.5-.1c-1.86-.28-2-.53-1.22-2.62,1,.33,1.89-.42,2.76-.86.57-.29,1.6-.19,1.45-1.62s-1-1.34-1.83-1.35c-.83-.78-.44-2.27-1.25-3.47l-.47,4c-.55.8-1.64.91-1.8,2.22C0,93-.2,92.18.16,91s.75-2.31,1.12-3.47c1.37-.65,2.67-1.36,2.29-3.71a.22.22,0,0,1,.1-.23c0-.31.09-.63.14-.94a1.56,1.56,0,0,1,.6-1.34c1.11.16.85,1.93,1.78,2.35.27-.53.52-1.08.81-1.61.63-1.16.22-1.53-.72-1.51-.14-2.73.13-3,3.11-3.06.71-.06,1.36-.61,2.1-.41-.5.8-1.61,1.09-1.33,2.53-1.3.39-1.29,1.4-.74,2.59.28.58.86,1,.35,1.82-1-1.62-1.83-2.13-2.57.31A3,3,0,0,1,5.89,86a1.85,1.85,0,0,0-.56,2.08,1.47,1.47,0,0,0,1.31,1.21c.46,0,.92,0,1.38,0a3.49,3.49,0,0,0-.69,2.64c-.26,1.83.41,2.8,1.81,3.1,0,1.7-1.33,2.67-1.45,4.3Z"/><path class="cls-2" d="M95,77.52c.66-.09,1.2.46,1.93.38,1.23-.14,1.75.73,1.17,2.28-.25.55-1.31.33-.93,1.42A2.68,2.68,0,0,0,98.09,83c.79.35.76-.79,1.1-1.28.18-.26.41-.47.61-.71.79.73.86,1.89,1.09,3,0,2.88,0,2.88,2.35,3.11.32,1.29.66,2.58,1,3.88.16.73.52,1.6-.49,1.87l-1.83-1.44a15.67,15.67,0,0,1-.76-4.39c-.81,1.31-.47,2.76-1.28,3.56l-.43-.06c-.1-1.59,0-3.35-1.68-3.8-1-.22-1.69.75-2.45,1.34l-.94-.47c-1.65-.89-2-.59-2.16,1.7-.86-.33-.54-1.8-1.35-2.18l0-1.74c1.46.19,1.83-1.9,3-2.26a2.82,2.82,0,0,1-.1,1.47c-.16.5-.22,1.08.35,1.14s1.49.23,2-.16-.18-.94-.48-1.32c-.47-.6-1.11-1.08-.58-2.14a1.64,1.64,0,0,0-.81-2.48c.35-1.31-.91-1.55-1.08-2.52A2.91,2.91,0,0,1,95,77.52Z"/><path class="cls-2" d="M99.32,100.19c-.58.72-1.23.2-1.85.14l-.78-1c-.11-1.27-.92-2.06-1.38-3.08a1,1,0,0,1,.34-.86l.34-.45h0c1.37.45,2.4-.57,3.5-1.28,1-.37,1.69,1.23,2.73.75.63,1.42.73,2.41-.95,2.65C99.9,97.26,99.31,98.5,99.32,100.19Z"/><path class="cls-4" d="M1,93.34c.16-1.31,1.25-1.42,1.8-2.22l1.72-.54c.82,0,1.68-.09,1.83,1.35s-.88,1.33-1.45,1.62c-.87.44-1.72,1.19-2.76.86C1.59,94.36,1,94.28,1,93.34Z"/><path class="cls-4" d="M102.21,94.41c-1,.48-1.71-1.12-2.73-.75l-1-.44-.54-.86,1.49-1.83.43.06,2,.83,1.83,1.44C103.47,93.76,103.09,94.47,102.21,94.41Z"/><path class="cls-3" d="M3.57,83.86c.38,2.35-.92,3.06-2.29,3.71C.8,86.92-.18,86.62.15,85.39c.28-1,1.14-1.1,1.87-1.28C2.53,84,3.05,83.94,3.57,83.86Z"/><path class="cls-3" d="M103.24,87.11c-2.39-.23-2.39-.23-2.35-3.11.74.1,1.48.15,2.21.32a1.33,1.33,0,0,1,1.17,1.34A1.25,1.25,0,0,1,103.24,87.11Z"/><path class="cls-3" d="M95,77.52a2.91,2.91,0,0,0-1.85-.41.65.65,0,0,1-.62-.49,2.69,2.69,0,0,1,.77-2.17c.15-.08.34-.11.28-.42v0C94.89,74.65,96.11,75.32,95,77.52Z"/><path class="cls-3" d="M6.28,80.58c.94,0,1.35.35.72,1.51-.29.53-.54,1.08-.81,1.61-.93-.42-.67-2.19-1.78-2.35C4.72,79.92,5.55,80.43,6.28,80.58Z"/><path class="cls-3" d="M99.8,81.05c-.2.24-.43.45-.61.71-.34.49-.31,1.63-1.1,1.28a2.68,2.68,0,0,1-.94-1.44c-.38-1.09.68-.87.93-1.42C98.7,80.33,99.49,79.94,99.8,81.05Z"/><path class="cls-5" d="M3.87,97.13H5.64A3.25,3.25,0,0,1,5,99.26,4.39,4.39,0,0,1,3.87,97.13Z"/><path class="cls-3" d="M3.81,82.69c-.05.31-.1.63-.14.94C3.71,83.32,3.76,83,3.81,82.69Z"/><path class="cls-6" d="M53.57,14c-.43-1-2.87-1-.93-3.44.8-1,.31-1.63,2-1,0,.9-.12,2,.93,2.15a.87.87,0,0,0,1-.59,1.76,1.76,0,0,0-.46-2.05,2.61,2.61,0,0,0-.77-.37c.13-2.56,1.22-4.12,3.19-4.59,1.17-.28,2.44,1.52,2,2.92-.32,1.05-.66-.44-1-.07h0a1.06,1.06,0,0,0-.86-1.13c-.68-.15-1.15.42-1.6,1A1.16,1.16,0,0,0,57,8.2c.25.49.41,1.34,1.08.54a1.9,1.9,0,0,0,1.39-.43c0,2.23-1.14,4-1.48,6.09,0,.13-.26.22-.41.28-2.21.94-2.3,1.23-1.05,3.9-1.3.06-2.35.34-1.13,2.27.36.58,0,.93-.5.95s-1,.06-1,.87c-.79,0-1.67-.11-1.74,1.37a1.85,1.85,0,0,0,1.15,2.07A1.78,1.78,0,0,0,55,25.73c.85.52,1.13,1.15.52,2.28a4.07,4.07,0,0,0-.86,2.07h0a32.82,32.82,0,0,0-4,2c-1.37.9-1.13,2.56-.81,4.12-.83.22-1.69.51-1.27,1.92.23.75.72,1.4,1.49.94s.87-1.43.82-2.41c1.53-.37,2.18.64,2.41,2.37.19,1.43.66,2.85.14,4.47-.8-.42-.1-2.09-1.18-2.05l-1-.87c-.11-.24-.22-.26-.34,0h-.7c-.58-1.26-1.15-.25-1.61.1-.7.51-1.05.23-1.35-.56-.57-1.47-1.41-2.83-.51-4.6.81-1.59-.54-2.22-1.05-3.22.22-.22.45-.43.67-.66s.79-.75.63-1.41-.74-.86-1.25-.94c-1.32-.18-1.61.65-1.08,3-.6.13-1.2-.14-1.78.5-1,1.09-3.74-.41-4-2.09a2.25,2.25,0,0,1,0-.63c-2.05-.21-1.15-2-1.27-3.37,0-.65-.37-1.2.2-1.58a1.08,1.08,0,0,1,1.6.17c.6.84-.43,1-.53,1.51a2.8,2.8,0,0,0,0,.41c1.54-.38,1.57-.4,1.33-2S40,22.24,41.75,23a.56.56,0,0,0,.76-.32c.54-1.57,1.46-1.18,2.46-.93,1.85.47,1.86.42,3.83-1.39A15.13,15.13,0,0,0,49.88,22c.59.65,1.28,1.05,2,.34a1.9,1.9,0,0,0,.41-2.3c-.43-1-1.25-1.68-2-1-1,.84-1.59.12-2.07-.47a1.66,1.66,0,0,1,.28-2.25c.56-.57-.13-.63-.26-.9-.39-.78-.45-1.56.24-2s1.16.16,1.39.82a6.14,6.14,0,0,0,1.22,2c.63,1.73,1.53,1.08,2.43.43.12.3.24.31.35,0h0c1.1-.74,1.11-1.46,0-2.17ZM50.11,28.77c.86-1.17,1.67-2.34,0-3.49-.7-1.53-1.65-1.05-2.35-.2s-1.31,2.42-.26,3.58C48.19,29.44,49.19,30.72,50.11,28.77Zm-7.18-3.46c-.54.26-1.17.41-1.17,1.46s.26,1.51,1.06,1.56,1.29-.15,1.34-1.18A1.69,1.69,0,0,0,42.93,25.31Z"/><path class="cls-3" d="M43.19,48.05c-.07,3,0,3.12,1.94,2.51,1-1.14,2.72-1.07,3.21-3.05.5.4.39,1.21.72,1.72-1.24.7-3,.71-2.76,3.35l.34.57v0l.36.45h0l.35.45v0l0,1.73A3.88,3.88,0,0,1,45.5,57.1a5.14,5.14,0,0,1-2-2.21c.75,0,1.27-.57,1.9-1.08-.95-.74-1.76-1.37-2.56-2l-.36-.43-.34-.43-.32-.48-.14-1.14C41.84,48.26,42.3,47.75,43.19,48.05Z"/><path class="cls-7" d="M46.3,52.58c-.26-2.64,1.52-2.65,2.76-3.35a3,3,0,0,1,1.79,2.15l-.3,1.8c-.37,0-.59.34-.76.73L47.34,54v0L47,53.57h0l-.36-.45v0Z"/><path class="cls-4" d="M50.55,53.18l.3-1.8c1.08-1.65,1.9-3.77,4-3.44L55,49.16c0,.29-.05.57-.07.85a4.94,4.94,0,0,0-1.37,1.84c-.37.63-1.14.62-1.41,1.4C51.62,53.62,51.07,53.91,50.55,53.18Z"/><path class="cls-8" d="M55,25.73a1.78,1.78,0,0,1-1.62.38A1.85,1.85,0,0,1,52.19,24c.07-1.48,1-1.34,1.74-1.37.74-.21,1.51-.35,1.94.66C56.39,24.56,55.51,25.07,55,25.73Z"/><path class="cls-8" d="M51.14,40.53l1,.87c.09,1.62,0,3.15-1.75,3a2,2,0,0,1-1.65-1.87,1.61,1.61,0,0,1,1.33-2h1Z"/><path class="cls-9" d="M55,49.16l-.12-1.22c.15-.42.29-.83.43-1.25.7-.18,1.47.16,2.1-.46.37,0,.74-.08,1,.32-.34.87.67,1.41.36,2.27h0c-.42,0-.68.21-.74.75l-.09.1a1.5,1.5,0,0,0-.29.06C56.8,49.57,55.83,50,55,49.16Z"/><path class="cls-8" d="M53.54,33.81c-.17,1.08-.65,1.87-1.47,1.83a1.75,1.75,0,0,1-1.53-1.93A1.37,1.37,0,0,1,52,32.26C52.84,32.26,53.36,32.79,53.54,33.81Z"/><path class="cls-8" d="M53.57,16.58c-.9.65-1.8,1.3-2.43-.43-.22-2.55,1.18-2.22,2.43-2.15l.33.41c0,.73,0,1.45,0,2.17h-.35Z"/><path class="cls-8" d="M44.55,32.24c-.53-2.36-.24-3.19,1.08-3,.51.08,1.07.22,1.25.94s-.29,1-.63,1.41-.45.44-.67.66Z"/><path class="cls-8" d="M47.61,18.68c-.26.87-.4,1.82-1.19,1.73S45.18,19.36,45,18.54s.43-1.1,1-1.05A1.94,1.94,0,0,1,47.61,18.68Z"/><path class="cls-8" d="M50.8,36.61c.05,1,0,1.92-.82,2.41s-1.26-.19-1.49-.94c-.42-1.41.44-1.7,1.27-1.92Z"/><path class="cls-8" d="M55.32,8.75a2.61,2.61,0,0,1,.77.37,1.76,1.76,0,0,1,.46,2.05.87.87,0,0,1-1,.59c-1.05-.2-.88-1.25-.93-2.15Z"/><path class="cls-5" d="M48.34,47.51c-.49,2-2.21,1.91-3.21,3.05.42-1.69,1.74-2.41,2.54-3.7Z"/><path class="cls-6" d="M52.9,44.54c-.29,2.84-.29,2.84-2.39,1.75C51.28,45.51,52.3,45.47,52.9,44.54Z"/><path class="cls-5" d="M57.43,46.23c-.63.62-1.4.28-2.1.46-.76-.92.21-1.12.44-1.63A1.73,1.73,0,0,1,57.43,46.23Z"/><path class="cls-8" d="M59.49,8.31a1.9,1.9,0,0,1-1.39.43C57.89,8.18,57.57,7.62,58,7s1-.3,1.5,0h0C59.49,7.44,59.49,7.88,59.49,8.31Z"/><path class="cls-6" d="M54.62,30.08c.66.25,1.63.21,1.19,1.64a.63.63,0,0,1-1,.37c-.77-.55-.46-1.29-.17-2Z"/><path class="cls-8" d="M45.86,34.6c-.07.71-.48.69-.88.69s-.81-.19-.7-.86.4-.85.85-.79S45.82,34.06,45.86,34.6Z"/><path class="cls-8" d="M57.09,17.37a.91.91,0,0,1-.66-1,.58.58,0,0,1,.75-.58c.4.05.55.4.54.87S57.52,17.4,57.09,17.37Z"/><path class="cls-6" d="M58,20.1c.06.53-.15.75-.46.79s-.72,0-.74-.61a.51.51,0,0,1,.4-.58C57.54,19.64,57.88,19.63,58,20.1Z"/><path class="cls-10" d="M18.83,74.49c.78-1.12.78-2.66,1.37-3.89L21.06,68a2,2,0,0,0,.3-.5c.34-1.55,1-2.13,2.16-1.15a1.46,1.46,0,0,0,1.48.17c.88.87,2.41.49,2.82,2.27-.7.59.08,1.19,0,1.79l-.64,4.77a17.06,17.06,0,0,1-1.42,5.19c-1.33.75-2.69,2-3.84-.36a4.38,4.38,0,0,0,3-3.49A35.19,35.19,0,0,1,26,71.31c.23-.73,0-1.53-.56-1.49-1.06.08-1.74-1.11-2.75-1-.09-.22-.19-.45-.29-.67l-.2.18.43.56c0,.82.57,1.22.94,1.76.71,1,.66,1.69-.58,1.71a1.61,1.61,0,0,0-.85.14c-.42.27-1.19.09-1.13,1,0,.69.61.78,1,.94,1.4.51,1.63,1.28.88,2.84-.41.85-1.3,1.29-1.33,2.47l-1-.07c0-1.73-1.17-2.6-1.77-3.89Z"/><path class="cls-4" d="M27.19,54.89c1.47-.81,2.92-1.82,4.59-.85,0,.29-.07.57-.1.85l-.36,1.3a.86.86,0,0,0-.32.05l-3.44,1.4a2.89,2.89,0,0,1,1.71,2.45l-2.74.5a7.38,7.38,0,0,1-.36-3.21C25.87,56.14,26.87,55.74,27.19,54.89Z"/><path class="cls-4" d="M27.82,68.78c-.41-1.78-1.94-1.4-2.82-2.27.56-1.09,1.3-1.77,2.38-1.56.78.15.82,1,.87,1.91a5.6,5.6,0,0,0,1-2.3,2.7,2.7,0,0,0,2.44-1.37c1.39.65.12,1.8.33,2.68l-1.13,1.19-1.7,2.21Z"/><path class="cls-9" d="M15.69,69.72c.35-1.18,1-1.8,2-1.76l1.77,1.32a4.66,4.66,0,0,0-.23.58c-.31,1.34-.83,2.49-2.08,2.41S16,70.77,15.69,69.72Z"/><path class="cls-7" d="M31.73,63.19a2.7,2.7,0,0,1-2.44,1.37l-2.78-1c-.1-.61-.54-1.31.28-1.69L28,63a2.78,2.78,0,0,0,2.64-.72l1-.88.69.85A1.38,1.38,0,0,0,31.73,63.19Z"/><path class="cls-5" d="M26.79,61.85c-.82.38-.38,1.08-.28,1.69a3.5,3.5,0,0,1-1,0c-.49-.1-1.29.48-1.38-.64-.06-.8.52-1,1.07-1.08.87-.17.77-.62.34-1.44-.62-1.19-1.08-2.53.65-3a7.38,7.38,0,0,0,.36,3.21C26.62,61,26.7,61.43,26.79,61.85Z"/><path class="cls-5" d="M21.06,68,20.2,70.6c-.23-.47-.45-.94-.68-1.42C19.68,68.08,20.38,68.06,21.06,68Z"/><path class="cls-4" d="M10.16,79.64c-.28-1.44.83-1.73,1.33-2.53,1.38-.39,2.68-2.15,4.21-.44,0,.28,0,.55,0,.83-.46,1-1.33,1.28-2.1,1.71s-1.38.61-1.08,1.84c0,.1,0,.21,0,.31-1.15,1.23-.58,2,.45,2.64a6.8,6.8,0,0,0,1.62.51c0,.32,0,.67.34.83l.38-.23H16c.56,1,.11,2,.11,3a2.79,2.79,0,0,0-1.26,1.52l-1.59,1.91c-1.23-.12-1.15-1.19-1.06-2.28v0c.94-.8.94-2.44,2.39-3.46-2.11,0-2.7-2.08-4-2.74A11.85,11.85,0,0,1,10.16,79.64Z"/><path class="cls-5" d="M15.72,77.5c0-.28,0-.55,0-.83.76-1.35,2.07-1.49,3.13-2.18,0,.44,0,.87,0,1.3-.71.1-1.61-.41-1.81,1.12C16.86,77.78,16.19,77.44,15.72,77.5Z"/><path class="cls-2" d="M43.19,48.05c-.89-.3-1.35.21-1.51,1.27l-1-.08a1.63,1.63,0,0,0-1.28.46c-.41-.61-1-.45-1.5-.49,0-.14,0-.27,0-.4a4.19,4.19,0,0,0,2.47-3.11c.67.15,1.24-.3,1.84-.52.78-.29,1.77-.81,2.12.37A2,2,0,0,1,43.19,48.05Z"/><path class="cls-10" d="M64.7,50.51c.38.81.79,1.57,1.6,1.78a.86.86,0,0,0,.57.81,3.42,3.42,0,0,0,.21.59c1.61,2.7,1.6,2.73-.81,4.39a4.4,4.4,0,0,0-.54.52L63.57,61c-1.39.34-2.71-.31-4.07-.41a2.24,2.24,0,0,0-1.93-.21,1.65,1.65,0,0,1-1.2-2c.47-1.52,1.77-2.52,1.7-4.36a6.79,6.79,0,0,0,2.11-3.48l.39-.87c1.14-1.4,2.25-1.2,3.34.08A1.24,1.24,0,0,0,64.7,50.51ZM57.76,58.4c.59-.11,1.25.27,1.74-.43a3.94,3.94,0,0,1,1,.06,2.27,2.27,0,0,0,2.95-1c.53-1.11-.87-1.62-1.26-2.53a2.06,2.06,0,0,1,0-.51c1.15.22,2.15,1.32,3.48,1a11,11,0,0,0-2.12-3.44c-1.63-1.95-1.93-1.89-3,.59a7,7,0,0,1-.49.89c-.44.64-1.05,1.13-.92,2.19s1.15.73,1.61,1.48c-.46.49-1.31.22-1.31,1.23-.58.12-1.25-.32-1.74.44l-.12.2Z"/><path class="cls-11" d="M70.29,53.54a.61.61,0,0,0,.67-.41,7.48,7.48,0,0,1,2.75.54c-.1,1.48,1.5,2.21,1.06,3.82a2.48,2.48,0,0,0-1,1.46l0,.15-2.45-.35-.71-.37h0C70.81,56.74,69.73,55.23,70.29,53.54Z"/><path class="cls-3" d="M66.52,62.34c.68,0,1.4,0,1.31-1.24l1.32-.58a1.93,1.93,0,0,0,1.38.46c0,.15,0,.3,0,.44-1.17.87-1.43,2.82-2.7,3.58-.59-.61-1.21-1.16-2-.87l-.06-.48Z"/><path class="cls-5" d="M66.52,62.34l-.79,1.31a1.57,1.57,0,0,1-1.12-.82,1.71,1.71,0,0,0-1-1.87l2.16-2.36A11.46,11.46,0,0,0,66.52,62.34Z"/><path class="cls-5" d="M69.14,60.52l-1.31.58c0-3.17-.2-2.65,2.78-2.71h0c0,.14,0,.28,0,.42C70,59.21,69.28,59.48,69.14,60.52Z"/><path class="cls-5" d="M66.87,53.1a.86.86,0,0,1-.57-.81l1.87-.89C68.37,52.72,68,53.32,66.87,53.1Z"/><path class="cls-5" d="M68.51,51l.06-1.24c.43,0,.89.2.87.75S68.88,51,68.51,51Z"/><path class="cls-5" d="M68.17,51.41l.35-.45Z"/><path class="cls-3" d="M85.46,66.5l.12,3.18c-1.42-.32-2,.59-2.09,2.22a7.51,7.51,0,0,0-.78,2.51c-.69.81-1.41,1.45-2.35.54a14.51,14.51,0,0,1,2.1-6.22C83.39,67.84,84,66.35,85.46,66.5Z"/><path class="cls-5" d="M85.46,66.5c-1.42-.15-2.07,1.34-3,2.23,0-.83.15-1.79-.83-2L79.79,65l.57-.57c1.22,1.23,2.68.87,4.07,1C85,65.43,85.83,65.09,85.46,66.5Z"/><path class="cls-2" d="M83.49,71.9c.09-1.63.67-2.54,2.09-2.22-.1,1.61.7,1.85,1.71,1.75l0,.92a2,2,0,0,0-2,.88Z"/><path class="cls-5" d="M64.7,50.51a1.24,1.24,0,0,1-.79-.75,4,4,0,0,0-.25-2.31,2.3,2.3,0,0,1,.5.13C66.33,48.59,66.33,48.59,64.7,50.51Z"/><path class="cls-5" d="M60.57,49.68l-.39.87c-.76-.22-1.76.55-2.2-.88l.09-.1.77,0Z"/><path class="cls-7" d="M58.81,48.82c.31-.86-.7-1.4-.36-2.27C59.2,47.15,60.25,47.68,58.81,48.82Z"/><path class="cls-7" d="M58.84,49.55l-.77,0c.06-.54.32-.77.74-.75Z"/><path class="cls-3" d="M73.75,59a2.48,2.48,0,0,1,1-1.46c1.35-.21,2.57.47,3.83.89a2.15,2.15,0,0,1,1.06,2.17V61A5.78,5.78,0,0,1,75,59.5C74.56,59.14,74.25,58.78,73.75,59Z"/><path class="cls-10" d="M79.79,65l1.84,1.73a3.08,3.08,0,0,1-1,2.74,12.55,12.55,0,0,0-2.28,2.88.67.67,0,0,0-.77.52.77.77,0,0,0-.3,0c.33-2.19-1.39-2.81-2.06-4.24-.21-.45-.87-.73-.46-1.4A1.1,1.1,0,0,1,76,66.71c.83.25,1.65.62,2.47,1,.33.13.69.34.82-.29s0-1.09-.55-1.1a3.72,3.72,0,0,1-2.1-.89c-1.07-.77-1.7.12-2.39.89a2.4,2.4,0,0,0-.5,2.63,16.84,16.84,0,0,0,2.13,3.86l-2.06,0-1.26-2.22a2.63,2.63,0,0,0-.79-1.41l.28-2a7.55,7.55,0,0,0,1-2.62c.32-.12.78-.12,1-.39,1.17-1.84,2.38-1.61,3.7-.32a2.94,2.94,0,0,0,.8.43A1.66,1.66,0,0,0,79.79,65Z"/><path class="cls-5" d="M78.51,64.2a2.94,2.94,0,0,1-.8-.43c-1.32-1.29-2.53-1.52-3.7.32-.17.27-.63.27-1,.39,0-1.07.8-1.87.73-3,.73-.81.41-1.61,0-2.4l0-.15c.5-.17.81.19,1.2.55A5.78,5.78,0,0,0,79.66,61,10.61,10.61,0,0,1,78.51,64.2Z"/><path class="cls-5" d="M31.68,54.89c0-.28.07-.56.1-.85a4.68,4.68,0,0,0,1.33-2.58l.94-.56c.28.08.6.1.71.54a3.53,3.53,0,0,0-1.32,3.37C32.88,55.74,32.26,54.63,31.68,54.89Z"/><path class="cls-4" d="M92.51,76.62a.65.65,0,0,0,.62.49c.17,1,1.43,1.21,1.08,2.52a11.62,11.62,0,0,1-.38,3.49c-1.2.36-1.57,2.45-3,2.26a1.2,1.2,0,0,1-.71-.89,4.91,4.91,0,0,1,1.17-2.59c1.08-1.63.92-2.23-.62-2.73-.39-.13-.78-.3-1.16-.45a2.63,2.63,0,0,1-.81-2c.56-.35,1-1.07,1.72-.84C90.4,79.06,91.74,76.62,92.51,76.62Z"/><path class="cls-7" d="M85.27,73.23a2,2,0,0,1,2-.88c.84.22,1.75.46,2,1.64s-.79,1.54-1.29,2.23a1.26,1.26,0,0,0-.33,0c-.88,0-1.81.23-2.42-.91l-.31-1.65Z"/><path class="cls-2" d="M87.64,76.27a1.26,1.26,0,0,1,.33,0l.7.45a2.63,2.63,0,0,0,.81,2l-.09.12c-.52.81-1.07,1.57-2,1.31l-1.83-2.52c0-1,.63-.76,1.12-.76S87.63,77.29,87.64,76.27Z"/><path class="cls-5" d="M37.9,49.21c.53,0,1.09-.12,1.49.49-.65.82-.14,1.71-.09,2.57l-1.72.1c-.06-.48.06-1-.34-1.37v-.44A1.52,1.52,0,0,0,37.9,49.21Z"/><path class="cls-7" d="M37.24,51c.4.35.28.89.34,1.37-.1,2-1.35,2.62-2.46,3.45,0,.1,0,.21,0,.31-.61-.34-.92-1.26-1.66-1.32a3.53,3.53,0,0,1,1.32-3.37C35.62,51.54,36.64,53.14,37.24,51Z"/><path class="cls-4" d="M6.92,100.3l.77-1c1-1,2.35-1.21,3.56-1.67.72,0,1,.62,1.34,1.24,0,.19.06.53.12.54.32,0,.44-.29.59-.57h.29a3.75,3.75,0,0,0,2.08,1.31c.27.73.88.95,1.35,1.38a2.88,2.88,0,0,1,.77,2c-1.4.75-2.61,0-3.74-.87a6.23,6.23,0,0,0-5.26-1.3C8,101.59,7.12,101.78,6.92,100.3Z"/><path class="cls-4" d="M96.69,99.33l.78,1c-.2,1.29-1,1.3-1.74,1.11a6.45,6.45,0,0,0-5.58,1.37c-1.06.78-2.24,1.55-3.57.77.15-.64.3-1.28.44-1.92a3,3,0,0,0,1.68-1.48l2.08-1.3,1.1,1.14c-.22-1.62.47-2.06,1.41-2.2A6.3,6.3,0,0,1,96.69,99.33Z"/><path class="cls-2" d="M63.32,103.63c-.57,2.43-1,2.59-3.22,2.17-1.87-.35-3.69-.63-5.14-2.33a1.23,1.23,0,0,0-.67-1.16c0-.79.91-1.14.65-2,.2-.33.4-.65.59-1,.11,2,1.15,1,1.88.89-.63.91,0,1.5.34,2.17.74,1.82,2.07.42,3.06.87.83-.07,1.66.38,2.49,0C63.3,103.37,63.31,103.5,63.32,103.63Z"/><path class="cls-2" d="M49.41,103.49A3.23,3.23,0,0,0,48,104.63c-.61.75-1,1.91-2.26.75-.48-.46-1.7.38-2.6.54-1.31.24-2.15-.34-2.11-2.19l.06-.48,2.49,0c.79,0,1.57,0,2.36,0,.48,0,.81-.25.34-.89,0-1.71,1.22-1.62,2-2.17.39.55.46,1.43,1.11,1.72l0,.93Z"/><path class="cls-2" d="M31.66,104.52c-.26.28-.53.53-.77.83-.77.94-1.26,2.32-2.69.65-.69-.81-2.16-.71-3.11-1.59a3.63,3.63,0,0,1,.31-2.06c.78,0,1.6.14,2.12-.86a.65.65,0,0,1,0,.24c-.09,1.12.52,1.39,1.21,1.63s.95-.45,1.23-1,.73-1.24,1.43-1.27a1,1,0,0,1,1,.93A5.75,5.75,0,0,1,31.66,104.52Z"/><path class="cls-2" d="M79.29,104.4c-1.13,1.38-3,.9-4.06,2.46-.22.31-.73-.21-1-.56l-1.5-1.76c0-1-.91-1.53-.71-2.58a1.07,1.07,0,0,1,1-.92l1.53,1c.34,2.59,1.55.62,2.37.71C79.16,102,79.24,102.08,79.29,104.4Z"/><path class="cls-4" d="M41.07,103.25l-.06.48c-1.07.67-2.13,1.35-3.2,2-.45.26-.92.74-1.41.15s-.11-1.17.09-1.73a1.44,1.44,0,0,0,.74-1.35L40.09,101c-.78-.44-1.68-.41-1.45-1.68.37-.4.74-.81,1.1-1.22a1.93,1.93,0,0,1,.34-.11c.91.93,2.16-.07,3.07.86-1.13,1-2.74,1.55-2,4C41.21,103,41.11,103.12,41.07,103.25Z"/><path class="cls-4" d="M49.41,103.49v-.7c1.59-.78,3.28,0,4.88-.48a1.23,1.23,0,0,1,.67,1.16c0,.79,1,1.18.58,2.07s-1.23.4-1.89.35a21.74,21.74,0,0,0-2.91,0c-.67,0-1.41.57-1.9-.33S49.42,104.27,49.41,103.49Z"/><path class="cls-4" d="M63.32,103.63c0-.13,0-.26,0-.39,0-1-.12-2.07,1-2.19l3.12,2.3a.89.89,0,0,0,.41.8c.18.57.64,1.13.08,1.75s-1,.21-1.44-.1C65.45,105.09,64.39,104.36,63.32,103.63Z"/><path class="cls-3" d="M67.88,104.15a.89.89,0,0,1-.41-.8l0-1c.71.19,1.35-.28,2-.41L72,102c-.2,1.05.69,1.63.71,2.58-1,.93-2.14.47-3.23.13C69,104.5,68.49,104,67.88,104.15Z"/><path class="cls-3" d="M37.23,102.8a1.44,1.44,0,0,1-.74,1.35c-1.09-.07-2,1-3.09.89-.61-.06-1.26.19-1.74-.52a5.75,5.75,0,0,0,.71-2.55l2.48,0,2.06.86h.32Z"/><path class="cls-3" d="M79.29,104.4c-.05-2.32-.13-2.37-2.38-1.61l0-.88h0a.58.58,0,0,0,.67-.37c1.65-.29,3.25.26,4.87.51a1.31,1.31,0,0,0,.4,1.22C82.05,105.61,80.53,104.32,79.29,104.4Z"/><path class="cls-2" d="M17.79,103.58a2.88,2.88,0,0,0-.77-2,10,10,0,0,1,3.25-.55c.76.08,1.56,0,1.67,1.31a1.08,1.08,0,0,1-.42,1A8.58,8.58,0,0,1,17.79,103.58Z"/><path class="cls-2" d="M82.83,103.27a1.31,1.31,0,0,1-.4-1.22c1.43-2,3-.94,4.59-.39-.14.64-.29,1.28-.44,1.92A8.38,8.38,0,0,1,82.83,103.27Z"/><path class="cls-3" d="M21.52,103.28a1.08,1.08,0,0,0,.42-1l1.75-.55,1.71.58a3.63,3.63,0,0,0-.31,2.06C23.74,104.82,22.3,105.71,21.52,103.28Z"/><path class="cls-11" d="M8,89.3c-.46,0-.92,0-1.38,0a1.47,1.47,0,0,1-1.31-1.21A1.85,1.85,0,0,1,5.89,86,3,3,0,0,0,7.2,84.36c.74-2.44,1.58-1.93,2.57-.31.13.57.25,1.15.38,1.72l-.4,1.77Z"/><path class="cls-4" d="M8,89.3c.58-.59,1.16-1.17,1.73-1.76,2.17-.68,2.32-.57,2.44,1.77v0L10.44,91h0c-.35,0-.73,0-.94.46a3.18,3.18,0,0,0-2.19.47A3.49,3.49,0,0,1,8,89.3Z"/><path class="cls-7" d="M7.33,91.94a3.18,3.18,0,0,1,2.19-.47c.35,0,.74,0,.94-.46h0a2.57,2.57,0,0,1,1.09,2.58A2.53,2.53,0,0,1,10.43,95L9.14,95C7.74,94.74,7.07,93.77,7.33,91.94Z"/><path class="cls-5" d="M9.14,95,10.43,95c.27.9.55,1.81.82,2.72-1.21.46-2.51.64-3.56,1.67C7.81,97.71,9.16,96.74,9.14,95Z"/><path class="cls-5" d="M10.15,85.77c-.13-.57-.25-1.15-.38-1.72.51-.8-.07-1.24-.35-1.82-.55-1.19-.56-2.2.74-2.59a11.85,11.85,0,0,0,.38,3.47C10,83.9,11.64,85.2,10.15,85.77Z"/><path class="cls-5" d="M4.53,90.58l-1.72.54c.15-1.23.29-2.46.47-4C4.09,88.31,3.7,89.8,4.53,90.58Z"/><path class="cls-10" d="M85.52,77.63l1.83,2.52.3.88a6.43,6.43,0,0,0,2.44,3.46,1.2,1.2,0,0,0,.71.89l0,1.74c-.62.43-1.39.56-1.8,1.4a2.38,2.38,0,0,0-2.06.35,6,6,0,0,1-4.49-1A11.22,11.22,0,0,1,81.37,84l0-1.22c.16-1,.32-2,.47-2.92l.3-.56,2.06-1.81ZM88,84.9c0,.2.05-.28-.11-.63-.66-1.45-2.07-2-2.76-3.46-.21-.44-.74.12-1.07.34s-.09.62,0,1c.22,1.72.22,3.41,1.83,4.35.41.24.56,1.6,1.42,1.21S88.07,86.44,88,84.9Z"/><path class="cls-9" d="M95.28,88.07c.76-.59,1.4-1.56,2.45-1.35.46,2.12.82,4.2-1.38,5.22a.75.75,0,0,1-.33,0A3.6,3.6,0,0,1,95.28,88.07Z"/><path class="cls-4" d="M95.28,88.07A3.6,3.6,0,0,0,96,91.9l-.69,0v0c-.44-.71-1.17-.84-1.73-1.32l-1.42-1.28v0c.12-2.29.51-2.59,2.16-1.7Z"/><path class="cls-5" d="M93.83,83.12a11.62,11.62,0,0,0,.38-3.49A1.64,1.64,0,0,1,95,82.11c-.53,1.06.11,1.54.58,2.14.3.38.94,1,.48,1.32s-1.32.23-2,.16-.51-.64-.35-1.14A2.82,2.82,0,0,0,93.83,83.12Z"/><path class="cls-4" d="M89,88.52c.41-.84,1.18-1,1.8-1.4.81.38.49,1.85,1.35,2.18v0l0,1.8c-.28.45-.7.41-1.08.47l-1.39-1.39Z"/><path class="cls-7" d="M96.35,91.94c2.2-1,1.84-3.1,1.38-5.22,1.73.46,1.58,2.22,1.68,3.81l-1.49,1.83C97.4,92.22,96.8,92.55,96.35,91.94Z"/><path class="cls-5" d="M101.88,91.42l-2-.83c.81-.8.47-2.25,1.28-3.56A15.67,15.67,0,0,0,101.88,91.42Z"/><path class="cls-11" d="M95.65,95.39a1,1,0,0,0-.34.86c-.46,1.21-1.34.79-2.1.87-1-1.19-.71-2.55-.33-3.92a2,2,0,0,1,2.44-1.32v0c.1.42.2.84.31,1.26A4,4,0,0,1,96,94.94h0Z"/><path class="cls-3" d="M96,94.94a3.93,3.93,0,0,0-.34-1.81l2.82.09,1,.44C98.38,94.37,97.35,95.39,96,94.94Z"/><path class="cls-5" d="M93.21,97.12c.76-.08,1.64.34,2.1-.87.46,1,1.27,1.81,1.38,3.08a6.3,6.3,0,0,0-3.4-1.51C93.26,97.59,93.24,97.35,93.21,97.12Z"/><path class="cls-3" d="M95.65,95.39l.34-.45Z"/><path class="cls-5" d="M98.46,93.22l-2.82-.09c-.11-.43-.21-.85-.31-1.27l.69,0a.75.75,0,0,0,.33,0c.45.61,1.05.28,1.57.42Z"/><path class="cls-8" d="M50.09,25.28c1.69,1.15.88,2.32,0,3.49a1.9,1.9,0,0,1-2.32-2C47.81,25.12,49,25,50.09,25.28Z"/><path class="cls-1" d="M50.09,25.28c-1.09-.27-2.28-.16-2.3,1.46a1.9,1.9,0,0,0,2.32,2c-.92,1.95-1.92.67-2.63-.11-1-1.16-.55-2.6.26-3.58S49.39,23.75,50.09,25.28Z"/><path class="cls-8" d="M42.93,25.31a1.69,1.69,0,0,1,1.23,1.84c0,1-.65,1.22-1.34,1.18s-1.06-.64-1.06-1.56S42.39,25.57,42.93,25.31Z"/><path class="cls-1" d="M59.49,7c-.5-.3-1-.71-1.5,0s-.1,1.17.11,1.73c-.67.8-.83-.05-1.08-.54a1.16,1.16,0,0,1,0-1.35c.45-.55.92-1.12,1.6-1A1.06,1.06,0,0,1,59.49,7Z"/><path class="cls-1" d="M53.92,16.58c0-.72,0-1.44,0-2.17C55,15.12,55,15.84,53.92,16.58Z"/><path class="cls-1" d="M53.57,16.58h.35C53.81,16.89,53.69,16.88,53.57,16.58Z"/><path class="cls-1" d="M51.14,40.53H50.8C50.92,40.27,51,40.29,51.14,40.53Z"/><path class="cls-10" d="M43.5,54.89a5.14,5.14,0,0,0,2,2.21A5.77,5.77,0,0,0,47,58.83c.12.73.24,1.46.37,2.2l-.77,1.24a3.86,3.86,0,0,0-.7,2.49c-.82.74-.71,2.56-2,2.76a1.8,1.8,0,0,0-1.4-1.31c-.59-.85-.93-2.08-2.07-2.09a2.85,2.85,0,0,0-.74-2.27L39,60.41l-.52-3c.1-.58-.14-1.3.46-1.67A2.15,2.15,0,0,0,40,53.69c1-1.27,1.85-1.09,2.66.32.15.26.48.37.72.55A2,2,0,0,0,43.5,54.89Zm-3.07.53a.66.66,0,0,0-.38.83c.58,2.26-.3,5.22,2,6.67a1.76,1.76,0,0,1,.56.81c.33.78.47,2.18,1.48,1.32s-.15-1.64-.34-2.45a1.53,1.53,0,0,0-.42-.67,8.59,8.59,0,0,1-2.56-5.8C40.77,55.75,40.87,55.41,40.43,55.42Zm4.74,5.84.38-.16c-.16-.87-.27-1.76-.5-2.6-.11-.41-.51-.68-.85-.46s-.15.69,0,1.06C44.55,59.81,44.85,60.54,45.17,61.26Z"/><path class="cls-4" d="M47.34,54l2.45-.09,1.27,1.59c.18,1.3-.38,1.66-1.29,1.55-.79-.5-1.44-1.43-2.45-1.32Z"/><path class="cls-5" d="M47.32,55.73c1-.11,1.66.82,2.45,1.32l0,1c-1.17-1.07-1.94,0-2.78.81A5.77,5.77,0,0,1,45.5,57.1,3.88,3.88,0,0,0,47.32,55.73Z"/><path class="cls-5" d="M43.5,54.89a2,2,0,0,1-.09-.33c.23-1.07-.6-1.68-.72-2.6l.15-.16,2.56,2C44.77,54.32,44.25,54.87,43.5,54.89Z"/><path class="cls-5" d="M40.68,49.24l1,.08c0,.38.09.76.14,1.14l-.11.14C41.27,50.26,40.74,50,40.68,49.24Z"/><path class="cls-5" d="M41.82,50.46l.32.48-.09.11-.34-.45Z"/><path class="cls-5" d="M42.48,51.37l.36.43-.15.16c-.1-.15-.21-.3-.31-.46Z"/><path class="cls-5" d="M42.14,50.94l.34.43-.1.13-.33-.45Z"/><path class="cls-4" d="M47,53.57l.35.45Z"/><path class="cls-4" d="M46.63,53.13l.36.45Z"/><path class="cls-4" d="M46.3,52.58l.34.57Z"/><path class="cls-5" d="M51.06,55.5l-1.27-1.59c.17-.39.39-.69.76-.73.52.73,1.07.44,1.62.06,0,.53,0,1.07,0,1.6Z"/><path class="cls-11" d="M52.16,54.84c0-.53,0-1.07,0-1.6.27-.77,1-.76,1.41-1.39a2.92,2.92,0,0,1,2.08.43l.69,1.32a4.31,4.31,0,0,1-.29,2.14,4.13,4.13,0,0,0-2.45,1.69l-.71,0C52.8,56.51,52,55.89,52.16,54.84Z"/><path class="cls-5" d="M55.66,52.28a2.92,2.92,0,0,0-2.08-.43A4.94,4.94,0,0,1,55,50l1,1Z"/><path class="cls-3" d="M56,51l-1-1c0-.28,0-.56.07-.85.81.83,1.78.41,2.67.57C57.56,51.09,56.41,50.3,56,51Z"/><path class="cls-2" d="M56,51c.44-.72,1.59.07,1.72-1.29a1.5,1.5,0,0,1,.29-.06c.44,1.43,1.44.66,2.2.88A6.79,6.79,0,0,1,58.07,54c-.65.33-1.06-.79-1.72-.43l-.69-1.32C55.76,51.86,55.87,51.44,56,51Z"/><path class="cls-3" d="M16.11,88.14c0-1,.45-2.06-.11-3,.25-.91,1.85-.23,1.42-1.92.07-1.1.23-2.62,1.33-2,1.59.88,1.54-.4,1.81-1.5l1,.07v0l.36.45h0c1.15,2.35,2.51,1.11,3.84.36,0,.32,0,.64,0,1-1.2,1.52-2.83,1.18-4.45,1.37l1,1.55-2.1,1.82c-.85-1.37-1.41-1.14-1.74.47C17.59,87,17.09,88.17,16.11,88.14Z"/><path class="cls-2" d="M20.56,79.68c-.27,1.1-.22,2.38-1.81,1.5-1.1-.62-1.26.9-1.33,2l-1.06.46c.63-2.27.15-3.3-1.4-3-.88-.6-1.67-.21-2.42.41-.3-1.23.43-1.47,1.08-1.84s1.64-.68,2.1-1.71c.47-.06,1.14.28,1.26-.59.2-1.53,1.1-1,1.81-1.12C19.39,77.08,20.58,78,20.56,79.68Z"/><path class="cls-12" d="M21.57,79.75c0-1.18.92-1.62,1.33-2.47.75-1.56.52-2.33-.88-2.84-.43-.16-1-.25-1-.94-.06-.94.71-.76,1.13-1a1.61,1.61,0,0,1,.85-.14c1.24,0,1.29-.67.58-1.71-.37-.54-.9-.94-.94-1.76l.06-.07c1-.08,1.69,1.11,2.75,1,.58,0,.79.76.56,1.49a35.19,35.19,0,0,0-1.06,5.37,4.38,4.38,0,0,1-3,3.49h0l-.36-.45Z"/><path class="cls-2" d="M27.17,75.34c.22-1.59.43-3.18.64-4.77.71-.63,1.37-.38,2,.19.49.44.84,1.16,1.53,1.21.16,1.29,1.59,3.24-1.06,3.11-.23,0-.49,1-.73,1.56l-.31,0h-.72A1.77,1.77,0,0,0,27.17,75.34Z"/><path class="cls-5" d="M31.36,72c-.69,0-1-.77-1.53-1.21-.65-.57-1.31-.82-2-.19.09-.6-.69-1.2,0-1.79l1.41.49a1.75,1.75,0,0,0,1.89.65,6.09,6.09,0,0,1,3-.65C34.05,71.54,32.52,71.45,31.36,72Z"/><path class="cls-4" d="M27.17,75.34a1.77,1.77,0,0,1,1.37,1.32,2.49,2.49,0,0,0-1,1.92,14.25,14.25,0,0,1-.43,3.75H26.8l-1-.84c0-.33,0-.65,0-1A17.06,17.06,0,0,0,27.17,75.34Z"/><path class="cls-12" d="M22.6,68.86l-.43-.56.2-.18c.1.22.2.45.29.67Z"/><path class="cls-2" d="M33.44,54.81c.74.06,1.05,1,1.66,1.32.15.7,1.52.61.77,1.89-2.37.31-2.66.77-2.13,3.42-.6-.08-.78,1-1.4.82l-.69-.85a2.31,2.31,0,0,0-2.38-1.32,2.89,2.89,0,0,0-1.71-2.45L31,56.24v3.37c1-.66,2.41-.8.71-2.28a1.43,1.43,0,0,1-.39-1.14l.36-1.3C32.26,54.63,32.88,55.74,33.44,54.81Z"/><path class="cls-9" d="M29.27,60.09a2.31,2.31,0,0,1,2.38,1.32l-1,.88c-.41-1.59-1.43-.72-2.15-.73s-.56.83-.49,1.45l-1.17-1.16c-.09-.42-.17-.84-.26-1.26Z"/><path class="cls-5" d="M31.32,56.19a1.43,1.43,0,0,0,.39,1.14c1.7,1.48.28,1.62-.71,2.28V56.24A.86.86,0,0,1,31.32,56.19Z"/><path class="cls-2" d="M34.11,69.27a6.09,6.09,0,0,0-3,.65,1.75,1.75,0,0,1-1.89-.65l1.7-2.21c.31.77.68,1,1.33.44a4.56,4.56,0,0,1,1.47-1c1.18-.42,1.14-1.08.37-2a1.33,1.33,0,0,1,.7-.87.68.68,0,0,1,.71.48c-.34,2-.12,2.32,1.44,1.88.77-.21,1.55-.44,2.33-.67,0,.47,0,1,0,1.42l-.95-.06c-1.36-.29-1.58.9-1.75,2.15a1.8,1.8,0,0,0-1.39.47l-.78-.08c-.14-.26-.21-.09-.29.07Z"/><path class="cls-3" d="M34.8,63.61a1.33,1.33,0,0,0-.7.87c-.68.47-1.13,1.46-2,1.39-.21-.88,1.06-2-.33-2.68a1.38,1.38,0,0,1,.61-.93c.62.14.8-.9,1.4-.82A4.71,4.71,0,0,1,34.8,63.61Z"/><path class="cls-5" d="M32.06,65.87c.91.07,1.36-.92,2-1.39.77.93.81,1.59-.37,2a4.56,4.56,0,0,0-1.47,1c-.65.61-1,.33-1.33-.44C31.31,66.66,31.68,66.26,32.06,65.87Z"/><path class="cls-4" d="M28,63c-.07-.62-.25-1.47.49-1.45s1.74-.86,2.15.73A2.78,2.78,0,0,1,28,63Z"/><path class="cls-2" d="M18.45,86.71c.33-1.61.89-1.84,1.74-.47-1.11.64-1.06,1.54-.37,2.58a10.48,10.48,0,0,0-3.09,2.66c-1.15.58-2.29,1.54-3.47.09l1.59-1.91C16.48,90.5,18.58,88.78,18.45,86.71Z"/><path class="cls-2" d="M10.15,85.77c1.49-.57-.19-1.87.39-2.66,1.34.66,1.93,2.72,4,2.74-1.45,1-1.45,2.66-2.39,3.46-.12-2.34-.27-2.45-2.44-1.77C9.89,87,10,86.36,10.15,85.77Z"/><path class="cls-5" d="M13.26,91.57c1.18,1.45,2.32.49,3.47-.09-.17.85-.35,1.69-.53,2.54l-.89.47c-.67,0-1-.61-1.39-1.14-.91-1.32-1.68-1.23-2.39.24A2.57,2.57,0,0,0,10.44,91l1.76-1.72C12.11,90.38,12,91.45,13.26,91.57Z"/><path class="cls-7" d="M15,80.64c1.55-.3,2,.73,1.4,3l-1.76.87A6.8,6.8,0,0,1,13,84c-1-.59-1.6-1.41-.45-2.64.1,1.62,1,2.16,2.08,2.15a1.37,1.37,0,0,0,1.26-.94c.21-.59-.18-.88-.56-1.09h0Z"/><path class="cls-5" d="M18.45,86.71c.13,2.07-2,3.79-3.6,3a2.79,2.79,0,0,1,1.26-1.52C17.09,88.17,17.59,87,18.45,86.71Z"/><path class="cls-9" d="M15,80.64l.35.84a6,6,0,0,0-.85,0c-.36,0-.82-.23-1,.37a.74.74,0,0,0,.14.54c.38.53.8.31,1.23.07a1,1,0,0,0,.52-1c.38.21.77.5.56,1.09a1.37,1.37,0,0,1-1.26.94c-1.11,0-2-.53-2.08-2.15,0-.1,0-.21,0-.31C13.29,80.43,14.08,80,15,80.64Z"/><path class="cls-5" d="M14.6,84.51l1.76-.87,1.06-.46c.43,1.69-1.17,1-1.42,1.92h-.68l-.38.23C14.64,85.18,14.63,84.83,14.6,84.51Z"/><path class="cls-3" d="M14.94,85.34l.38-.23Z"/><path class="cls-3" d="M42.05,51.05l.33.45c.1.16.21.31.31.46.12.92,1,1.53.72,2.6-.24-.18-.57-.29-.72-.55C41.88,52.6,41,52.42,40,53.69c0-.67,0-1.35-.73-1.42,0-.86-.56-1.75.09-2.57a1.66,1.66,0,0,1,1.29-.46c.06.78.59,1,1,1.36Z"/><path class="cls-12" d="M59.47,57.93c0-1,.85-.74,1.31-1.23-.46-.75-1.48-.35-1.61-1.48s.48-1.55.92-2.19a7,7,0,0,0,.49-.89c1.07-2.48,1.37-2.54,3-.59A11,11,0,0,1,65.7,55c-1.33.37-2.33-.73-3.48-1a2.06,2.06,0,0,0,0,.51c.39.91,1.79,1.42,1.26,2.53a2.27,2.27,0,0,1-2.95,1,3.94,3.94,0,0,0-1-.06Z"/><path class="cls-5" d="M57.57,60.34a2.24,2.24,0,0,1,1.93.21c.12.45.24.9.37,1.35l-1.08,1.71-.64-.07c-.42-1.52-.94-.61-1.48-.12S56,65.3,55,65.33l-.33-4.47C55.67,61.1,56.84,62.68,57.57,60.34Z"/><path class="cls-4" d="M57.57,60.34c-.73,2.34-1.9.76-2.92.52l-2-1.23-.45-1.24.73-.94.71,0,2.06.56a.7.7,0,0,0,.7.4A1.65,1.65,0,0,0,57.57,60.34Z"/><path class="cls-3" d="M56.37,58.39a.7.7,0,0,1-.7-.41c-.39-.89.93-1.31.39-2.24a4.31,4.31,0,0,0,.29-2.14c.66-.36,1.07.76,1.72.43C58.14,55.87,56.84,56.87,56.37,58.39Z"/><path class="cls-2" d="M59.87,61.9c-.13-.45-.25-.9-.37-1.35,1.36.1,2.68.75,4.07.41a1.71,1.71,0,0,1,1,1.87c-1.22-.22-2.37-1.46-3.69-.46Z"/><path class="cls-12" d="M57.73,58.37c.49-.76,1.16-.32,1.74-.44l0,0c-.49.7-1.15.32-1.74.43Z"/><path class="cls-12" d="M57.76,58.4l-.15.17.12-.2Z"/><path class="cls-4" d="M73.77,59.1c.43.79.75,1.59,0,2.4l-.73.38c-.86-.08-2.07.38-1.69-1.67.45-.23,1,.12,1.5-.47-.74-.78-1.2-.37-1.62.29-.45.08-.62.47-.73.95a1.92,1.92,0,0,1-1.37-.46c.13-1,.84-1.31,1.45-1.72l.72,0Z"/><path class="cls-2" d="M71.32,58.75l-.72,0c0-.14,0-.28,0-.42Z"/><path class="cls-4" d="M60.92,62.37c1.32-1,2.47.24,3.69.46a1.57,1.57,0,0,0,1.12.82l.06.48a4.06,4.06,0,0,0-1.37,2.15l-.74-.06a3.69,3.69,0,0,0-2.44-2.08Z"/><path class="cls-7" d="M64.42,66.28a4.06,4.06,0,0,1,1.37-2.15c.84-.29,1.46.26,2,.87,0,.27,0,.54,0,.81-.21,1.62-1.26,1.21-2.09,1.34C65.1,67.45,64.68,67.06,64.42,66.28Z"/><path class="cls-5" d="M67.88,65.81l0-.81c1.27-.76,1.53-2.71,2.7-3.58.09.52.32.86.76.94-.13,1.25-1.22,1.82-1.37,3.06l-1,0a.58.58,0,0,0-.72.4Z"/><path class="cls-9" d="M71.3,62.36c-.44-.08-.67-.42-.76-.94,0-.14,0-.29,0-.44.1-.48.27-.87.72-.95l.12.18c-.38,2,.83,1.59,1.69,1.67C72.64,63,72,62.74,71.3,62.36Z"/><path class="cls-2" d="M78.3,72.35a12.55,12.55,0,0,1,2.28-2.88,3.08,3.08,0,0,0,1-2.74c1,.21.81,1.17.83,2A14.51,14.51,0,0,0,80.36,75v0c-.91.07-1.19-1.34-2.06-1.36Z"/><path class="cls-5" d="M85.27,73.23l-.36.48c-.86-.39-1.49.18-2.11.79l-.09-.09a7.51,7.51,0,0,1,.78-2.51Z"/><path class="cls-5" d="M80.36,75c.94.91,1.66.27,2.35-.54l.09.09-.72,2.27a1.74,1.74,0,0,1-1.73-1.84Z"/><path class="cls-2" d="M72.52,70.52l1.26,2.22c-.56.43-.4,1.12-.39,1.76a.78.78,0,0,0-.29.78c-.6,0-.95.62-1.42,1-1.51-.52-2.06.4-2.08,2.14C68.65,78,67.87,77,66.79,77.1c0-.14,0-.28,0-.41,1.46.08,2.23-.66,2-2.6l1-.89c1.25.14,2.43.21,2.31-2.08C72.08,70.93,72.37,70.72,72.52,70.52Z"/><path class="cls-12" d="M75.84,72.76a16.84,16.84,0,0,1-2.13-3.86,2.4,2.4,0,0,1,.5-2.63c.69-.77,1.32-1.66,2.39-.89a3.72,3.72,0,0,0,2.1.89c.52,0,.66.53.55,1.1s-.49.42-.82.29c-.82-.33-1.64-.7-2.47-1a1.1,1.1,0,0,0-1.25.55c-.41.67.25.95.46,1.4.67,1.43,2.39,2,2.06,4.24l-.69.48A.66.66,0,0,0,75.84,72.76Z"/><path class="cls-2" d="M71.3,62.36c.68.38,1.34.64,1.76-.48l.73-.38c.07,1.11-.68,1.91-.73,3a7.55,7.55,0,0,1-1,2.62c-.57-.8-1.6-.71-2.08-1.68C70.08,64.18,71.17,63.61,71.3,62.36Z"/><path class="cls-5" d="M76.54,73.38l.69-.48a.77.77,0,0,1,.3,0,.47.47,0,0,0,0,.31l-.34.75-.44.53c-.73,1.15.52,1.7.51,2.63-.3.38-.57.31-.9,0a10.41,10.41,0,0,0-3.27-1.83.78.78,0,0,1,.29-.78A3.53,3.53,0,0,0,76.54,73.38Z"/><path class="cls-3" d="M69.93,65.42c.48,1,1.51.88,2.08,1.68-.09.67-.19,1.34-.28,2l-1.4.08c-.44-1.16-1.47-1.91-1.51-3.36l.08-.44Z"/><path class="cls-5" d="M70.33,69.19l1.4-.08a2.63,2.63,0,0,1,.79,1.41c-.15.2-.44.41-.42.6.12,2.29-1.06,2.22-2.31,2.08.46-.91,1.6-1.54,1.1-2.85s-1.29,0-2-.12C69.09,69.23,69.75,69.3,70.33,69.19Z"/><path class="cls-4" d="M76.54,73.38a3.53,3.53,0,0,1-3.15,1.12c0-.64-.17-1.33.39-1.76l2.06,0A.66.66,0,0,1,76.54,73.38Z"/><path class="cls-12" d="M77.54,73.18a.47.47,0,0,1,0-.31.67.67,0,0,1,.77-.52c0,.41,0,.81,0,1.22C77.67,74.53,78,72.85,77.54,73.18Z"/><path class="cls-2" d="M90.09,84.49A6.43,6.43,0,0,1,87.65,81c1.75.84,1.75.84,1.75-1.56,0-.21,0-.42,0-.63l.09-.12c.38.15.77.32,1.16.45,1.54.5,1.7,1.1.62,2.73A4.91,4.91,0,0,0,90.09,84.49Z"/><path class="cls-2" d="M82.08,76.77l.72-2.27c.62-.61,1.25-1.18,2.11-.79.1.55.21,1.1.31,1.65a4.52,4.52,0,0,0-1,2.16l-2.06,1.81-.39-1.15Z"/><path class="cls-3" d="M84.17,77.52a4.52,4.52,0,0,1,1-2.16c.61,1.14,1.54.92,2.42.91,0,1-.6.6-1,.6s-1.08-.29-1.12.76Z"/><path class="cls-5" d="M89.39,78.84c0,.21,0,.42,0,.63,0,2.4,0,2.4-1.75,1.56l-.3-.88C88.32,80.41,88.87,79.65,89.39,78.84Z"/><path class="cls-4" d="M39.3,52.27c.74.07.73.75.73,1.42A2.15,2.15,0,0,1,39,55.76c-1.29-.68-2.57.53-3.86.06,1.11-.83,2.36-1.5,2.46-3.45Z"/><path class="cls-5" d="M35.12,55.82c1.29.47,2.57-.74,3.86-.06-.6.37-.36,1.09-.46,1.67-1.27,0-2.12.65-2.29,2.34A3.25,3.25,0,0,1,35.87,58c.75-1.28-.62-1.19-.77-1.89C35.11,56,35.12,55.92,35.12,55.82Z"/><path class="cls-2" d="M11.53,93.59c.71-1.47,1.48-1.56,2.39-.24.36.53.72,1.15,1.39,1.14.21,1.18,1.66,2.81-.72,3-.22-.57-.5-1.06-1.19-1.08l.19,2v.42H13.3l-.71,0c-.32-.62-.62-1.29-1.34-1.24-.27-.91-.55-1.82-.82-2.72A2.53,2.53,0,0,0,11.53,93.59Z"/><path class="cls-3" d="M13.59,98.87v-.42l1-.92c2.38-.23.93-1.86.72-3L16.2,94c.34,1.43,1.46,1.82,2.24,2.67-1.1.09-1,1.13-1.06,2.07-.75.13-1.07,1.09-1.71,1.42A3.75,3.75,0,0,1,13.59,98.87Z"/><path class="cls-5" d="M15.67,100.18c.64-.33,1-1.29,1.71-1.42,1.48,1.95,3.53,1.16,5.31,1.7.41.13.58-.56.66-1.07H24l0,.81c-.51.39-.31,1-.35,1.57l-1.75.56c-.11-1.34-.91-1.23-1.67-1.31a10,10,0,0,0-3.25.55C16.55,101.13,15.94,100.91,15.67,100.18Z"/><path class="cls-5" d="M12.59,98.91l.71,0c-.15.28-.27.62-.59.57C12.65,99.44,12.63,99.1,12.59,98.91Z"/><path class="cls-5" d="M87,101.66c-1.56-.55-3.16-1.64-4.59.39-1.62-.25-3.22-.8-4.87-.51,0-.15,0-.3,0-.46.49-.4,1-.79.85-1.68-.1-.5-.37-1.09-.81-1-1.18.39-1.73-.88-2.58-1.34.13-.54.22-1.1.4-1.62A6.21,6.21,0,0,0,74.88,90c-1-1.62-2.32-1.16-3.62-.67a3.78,3.78,0,0,1-.67.13c0-1.09.61-1,1.18-1.08a3.82,3.82,0,0,0,2.68-1.26c1.21,1.28,1.78,3.42,3.48,4a3.07,3.07,0,0,1,.37,1.65c-.08.84-.72.8-1.14,1.11a1.2,1.2,0,0,0-.36,1.77c1.13,1.72,2.27,3.43,4.22,3.66.1.59.28,1.3.84,1.08,1.08-.42,2.19,0,3.24-.36.73-.24,1.63-.4,1.86-1.62l1.74,1.7A3,3,0,0,1,87,101.66Z"/><path class="cls-2" d="M93.21,97.12c0,.23.05.47.08.7-.94.14-1.63.58-1.41,2.2l-1.1-1.14c-.34-.52-.22-1.34-.71-1.77.12-1.15.49-2.31,0-3.46l1.06-1.31h0c.73-.21,1.19.46,1.75.85C92.5,94.57,92.25,95.93,93.21,97.12Z"/><path class="cls-3" d="M90.07,97.11c.49.43.37,1.25.71,1.77l-2.08,1.3L87,98.48c0-.14,0-.27,0-.41C88.11,98.25,89.05,97.46,90.07,97.11Z"/><path class="cls-3" d="M64.35,101.05c-1.17.12-1,1.22-1,2.19-.83.35-1.66-.1-2.49,0-.05-.53.51-1,.18-1.56l-3.24.69c-.32-.67-1-1.26-.34-2.17a1.41,1.41,0,0,0,.71-.9c1,.3,1.8-.68,2.74-.85.72-.57,1.37,1.54,2.12.09L64,98A3.51,3.51,0,0,1,64.35,101.05Z"/><path class="cls-3" d="M54.29,102.31c-1.6.46-3.29-.3-4.88.48,0-.31,0-.62,0-.93l1.52-1.63,3.41-.54.64.57C55.2,101.17,54.3,101.52,54.29,102.31Z"/><path class="cls-4" d="M58.12,99.27a1.41,1.41,0,0,1-.71.9c-.73.06-1.77,1.13-1.88-.89a12.25,12.25,0,0,1,2-3.41l.07,0c.56,1,1.41.83,2.2.91a2.71,2.71,0,0,0,0,.29Z"/><path class="cls-5" d="M57.53,95.87a12.25,12.25,0,0,0-2,3.41c-.19.33-.39.65-.59,1l-.64-.57-.48-.58c1.31-.81,1.22-3.73,3.28-3.41Z"/><path class="cls-5" d="M57.75,102.34l3.24-.69c.33.58-.23,1-.18,1.56C59.82,102.76,58.49,104.16,57.75,102.34Z"/><path class="cls-3" d="M41.07,103.25c0-.13.14-.3.11-.39-.77-2.45.84-3,2-4A6.06,6.06,0,0,0,47,97.56a1.37,1.37,0,0,1,1.52,1l-.22,1.6c-.78.55-2,.46-2,2.17a7.89,7.89,0,0,1-1.82-.41c-1.41-.65-1.22.22-.88,1.31Z"/><path class="cls-5" d="M48.26,100.14l.21-1.6c1.26-.45,2.07.11,2.42,1.69l-1.52,1.63C48.72,101.57,48.65,100.69,48.26,100.14Z"/><path class="cls-5" d="M43.56,103.21c-.34-1.09-.53-2,.88-1.31a7.89,7.89,0,0,0,1.82.41c.47.64.14.86-.34.89C45.13,103.24,44.35,103.21,43.56,103.21Z"/><path class="cls-5" d="M34.85,101.93l-2.48,0a1,1,0,0,0-1-.93c-.17-.69-.77-.81-1.09-1.3,0-.13,0-.26,0-.39a2.45,2.45,0,0,1,2.09-.53l.39.05Z"/><path class="cls-3" d="M30.28,99.74c.32.49.92.61,1.09,1.3-.7,0-1.1.59-1.43,1.27l-2.44-.58a.49.49,0,0,0,0-.24,4.78,4.78,0,0,0,.27-2.63C28.6,99.2,29.3,100.09,30.28,99.74Z"/><path class="cls-7" d="M27.78,98.86a4.78,4.78,0,0,1-.27,2.63c-.51,1-1.33.86-2.11.86l-1.71-.58c0-.56-.16-1.19.35-1.58.46,1.12,1.2,1.65,2.12,1.15s.55-1.85.61-2.86l.7,0Z"/><path class="cls-5" d="M27.5,101.73l2.44.58c-.28.6-.48,1.3-1.23,1S27.41,102.85,27.5,101.73Z"/><path class="cls-3" d="M75.06,97.11c.85.46,1.4,1.73,2.58,1.34.44-.14.71.45.81,1,.18.89-.36,1.28-.85,1.68a1,1,0,0,0-.71.83h0l-2.34.17L73,101c.22-.79,1.35-1.15.7-2.34A2,2,0,0,1,75.06,97.11Z"/><path class="cls-5" d="M73.71,98.69c.65,1.2-.48,1.56-.7,2.35a1.07,1.07,0,0,0-1,.92l-2.48,0c.47-.74,1-1.47,1.42-2.2A7.79,7.79,0,0,1,73.71,98.69Z"/><path class="cls-5" d="M74.54,102.08l2.34-.17,0,.88C76.09,102.7,74.88,104.67,74.54,102.08Z"/><path class="cls-10" d="M47,97.56a6.06,6.06,0,0,1-3.81,1.3c-.91-.93-2.16.07-3.07-.86-.14-.18-.27-.37-.4-.56.09-1.13.19-2.27.28-3.4.66-1.85.86-4.05,2.51-5.14a2.84,2.84,0,0,0,2.06.46c.15,1,.9,1.17,1.41,1.67C47.13,93,47.13,95.26,47,97.56Zm-1.38-3a3.71,3.71,0,0,0,0-.59c-.24-1.12-.22-2.18-1.68-2.31-1.81-.16-.77,1-.81,1.77a1.37,1.37,0,0,1-.28.75c-.6.68-1.92,1.13-1.44,2.23.37.84,1.58,0,2.42-.15a1.75,1.75,0,0,1,.51,0C45.45,96.42,45.72,95.65,45.58,94.58Z"/><path class="cls-2" d="M37.23,102.8h-.32c.2-1.86-.7-3.15-1.5-4.49.2-1.08,1.33-1.6,1.15-2.92.7-.07,1.1.26,1,1.22l.36.53v0a2.79,2.79,0,0,0,.71,2.22c-.23,1.27.67,1.24,1.45,1.68Z"/><path class="cls-5" d="M38.64,99.33a2.79,2.79,0,0,1-.71-2.22c.53.37,1,1,1.68.81l.13.19Z"/><path class="cls-5" d="M39.68,97.44c.13.19.26.38.4.56a1.93,1.93,0,0,0-.34.11l-.13-.19C39.63,97.76,39.66,97.6,39.68,97.44Z"/><path class="cls-2" d="M64.35,101.05A3.51,3.51,0,0,0,64,98C63.94,96,65.37,96,66.37,95.36c-.3,1.61-.2,3,1.12,4,.55,1-.7,2,0,3l0,1Z"/><path class="cls-4" d="M67.5,102.34c-.71-1,.54-2,0-3l3.45.42c-.47.73-1,1.46-1.42,2.2C68.85,102.06,68.21,102.53,67.5,102.34Z"/><path class="cls-4" d="M35.41,98.3c.8,1.34,1.7,2.63,1.5,4.49l-2.06-.86-2.07-3.06Z"/><path class="cls-2" d="M76.89,101.91a1,1,0,0,1,.71-.83c0,.16,0,.31,0,.46A.58.58,0,0,1,76.89,101.91Z"/><path class="cls-5" d="M10.46,91c-.2.51-.59.43-.94.46C9.73,91,10.11,91,10.46,91Z"/><path class="cls-12" d="M88,84.9c.11,1.54,0,2.47-.73,2.82s-1-1-1.42-1.21c-1.61-.94-1.61-2.63-1.83-4.35,0-.39-.42-.72,0-1s.86-.78,1.07-.34c.69,1.48,2.1,2,2.76,3.46C88,84.62,88,85.1,88,84.9Z"/><path class="cls-2" d="M89.75,90.16l1.39,1.39c0,.27,0,.53,0,.8h0c-1.74.48-3.25-1.1-5-.86l-1.69,0c-.52-1.2-1.1-2.3-2.39-2.17l0-1.26.4-.1a6,6,0,0,0,4.49,1A2.74,2.74,0,0,0,89.75,90.16Z"/><path class="cls-3" d="M81.81,79.89c-.15,1-.31,2-.47,2.92a4.47,4.47,0,0,1-2.74-1.33,7.37,7.37,0,0,0,.71-2.2h0l.29,0C80.21,80.15,81.11,79.47,81.81,79.89Z"/><path class="cls-5" d="M78.6,81.48a4.47,4.47,0,0,0,2.74,1.33l0,1.22-1,0c-1-1.62-2.35-.58-3.52-.86A4.19,4.19,0,0,1,78.6,81.48Z"/><path class="cls-4" d="M80.36,84.05l1,0a11.22,11.22,0,0,0,1.11,3.88l-.4.1c-.8-.64-1.26-2-2.45-1.78a.92.92,0,0,0-.11-.33Z"/><path class="cls-5" d="M89.75,90.16A2.74,2.74,0,0,1,87,88.87,2.38,2.38,0,0,1,89,88.52Z"/><path class="cls-5" d="M81.81,79.89c-.7-.42-1.6.26-2.21-.63.31-1.57,1.54-.33,2.12-1.08l.39,1.15Z"/><path class="cls-5" d="M91.13,92.35c0-.27,0-.53,0-.8.38-.06.8,0,1.08-.47l1.37-.52c.56.48,1.29.61,1.73,1.32a2,2,0,0,0-2.44,1.32C92.32,92.81,91.86,92.14,91.13,92.35Z"/><path class="cls-2" d="M93.59,90.56l-1.37.52c0-.6,0-1.2,0-1.8C92.64,89.71,93.11,90.14,93.59,90.56Z"/><path class="cls-3" d="M55,65.33c1,0,1.06-1.35,1.69-1.91s1.06-1.4,1.48.12a2.13,2.13,0,0,0-.74,2.59,1.78,1.78,0,0,0-2.13,1.4c-.29.24-.43.94-1,.5-1-1.07-1.92-.45-2.8.36-.4,0-1,.14-1.11-.3-.63-2-2.17-1.83-3.42-2.39a5.7,5.7,0,0,1-1.13-.94,3.86,3.86,0,0,1,.7-2.49c.64.71,1.49.58,2.22.91.64.53,1.09,1.54,2,1.29.47,1,1.24.91,2,.81C53.54,66.08,54.26,65.51,55,65.33Z"/><path class="cls-5" d="M45.86,64.76A5.7,5.7,0,0,0,47,65.7c1.25.56,2.79.34,3.42,2.39.13.44.71.3,1.11.3a3.1,3.1,0,0,1-1,1.93A7.07,7.07,0,0,0,48.42,67c-.48-.49-1.22-.4-1,.48.46,2.22-.8,2-1.78,2.27-.62-1.2-1.6-.89-2.49-.94l.73-1.29C45.15,67.32,45,65.5,45.86,64.76Z"/><path class="cls-4" d="M39.28,65.3c-.78.23-1.56.46-2.33.67-1.56.44-1.78.16-1.44-1.88,1.16-.54,1.22-1.85,1.38-3.09h.35c.73.58,1.33,1.69,2.39.86a2.85,2.85,0,0,1,.74,2.27C40.23,64.84,39.59,64.83,39.28,65.3Z"/><path class="cls-4" d="M50.83,64.47c-1,.25-1.41-.76-2-1.29-.37-.85-.35-2.1-1.45-2.15-.13-.74-.25-1.47-.37-2.2.84-.78,1.61-1.88,2.78-.81,0,.47,0,.94.37,1.23l.3.92.48,2.64Z"/><path class="cls-12" d="M40.43,55.42c.44,0,.34.33.35.71a8.59,8.59,0,0,0,2.56,5.8,1.53,1.53,0,0,1,.42.67c.19.81,1.23,1.68.34,2.45s-1.15-.54-1.48-1.32a1.76,1.76,0,0,0-.56-.81c-2.31-1.45-1.43-4.41-2-6.67A.66.66,0,0,1,40.43,55.42Z"/><path class="cls-5" d="M39.28,65.3c.31-.47.95-.46,1.09-1.18,1.14,0,1.48,1.24,2.07,2.09a3.41,3.41,0,0,0-.62,2.57l-1.07,0c-.28-.94-1-1.38-1.49-2.1Z"/><path class="cls-3" d="M37.24,61h-.35a1.24,1.24,0,0,1-.66-1.23c.17-1.69,1-2.35,2.29-2.34.17,1,.35,2,.52,3C38.47,60.75,37.71,60.15,37.24,61Z"/><path class="cls-4" d="M41.82,68.78a3.41,3.41,0,0,1,.62-2.57,1.8,1.8,0,0,1,1.4,1.31l-.73,1.29Z"/><path class="cls-12" d="M45.17,61.26c-.32-.72-.62-1.45-1-2.16-.17-.37-.48-.76,0-1.06s.74.05.85.46c.23.84.34,1.73.5,2.6Z"/><path class="cls-5" d="M47.33,61c1.1,0,1.08,1.3,1.45,2.15-.73-.33-1.58-.2-2.22-.91Z"/><path class="cls-5" d="M37.24,61c.47-.84,1.23-.24,1.8-.58.19.48.39,1,.59,1.44C38.57,62.68,38,61.57,37.24,61Z"/><path class="cls-2" d="M50.11,59.25c-.39-.29-.38-.76-.37-1.23l0-1c.91.11,1.47-.25,1.29-1.55l1.1-.66c-.16,1,.64,1.67.74,2.61l-.73.94C51.33,58.11,50.88,59.27,50.11,59.25Z"/><path class="cls-5" d="M56.06,55.74c.54.93-.78,1.35-.39,2.24l-2.06-.55A4.13,4.13,0,0,1,56.06,55.74Z"/><path class="cls-4" d="M19.82,88.82c-.69-1-.74-1.94.37-2.58l2.1-1.81,1.38-.35c.41.56,1.13.82,1.12,1.79-.08.78-.79.95-1,1.59A12,12,0,0,0,19.82,88.82Z"/><path class="cls-5" d="M23.67,84.08l-1.38.35-1-1.56c1.62-.19,3.25.15,4.45-1.37l1,.84C26,83.71,24.42,82.67,23.67,84.08Z"/><path class="cls-10" d="M21.57,79.72l.36.45Z"/><path class="cls-3" d="M34.39,69.2l.78.08c0,.94.12,1.82,1.07,1.65s.48-1.34.61-2.07c.39.06.79.73,1.15,0A5.63,5.63,0,0,1,39,71c-.26.27-.51.55-.76.82-.6.2-1.48-.46-1.69.89v.43a7.2,7.2,0,0,0-2.45,1.31A2.31,2.31,0,0,0,33,76.54L31.64,78a1.71,1.71,0,0,0-1.38-.42h0a1.38,1.38,0,0,0-.7-.92c.24-.55.5-1.57.73-1.56,2.65.13,1.22-1.82,1.06-3.11,1.16-.52,2.69-.43,2.75-2.7h0Z"/><path class="cls-11" d="M27.15,82.33a14.25,14.25,0,0,0,.43-3.75,2.49,2.49,0,0,1,1-1.92h.72c.18.57.43,1,1,.89h0c.19,1.15-.61,2.45.37,3.46C30,82.83,29,83.29,27.52,82.81Z"/><path class="cls-4" d="M30.27,77.56c-.58.13-.83-.32-1-.89l.31,0A1.38,1.38,0,0,1,30.27,77.56Z"/><path class="cls-2" d="M27.15,82.33l.37.48L27.85,84l-.06.83a3.7,3.7,0,0,1-3,1c0-1-.71-1.23-1.12-1.79.75-1.41,2.36-.37,3.13-1.74Z"/><path class="cls-11" d="M36.23,59.77A1.24,1.24,0,0,0,36.89,61c-.16,1.24-.22,2.55-1.38,3.09a.68.68,0,0,0-.71-.48,4.71,4.71,0,0,0-1.06-2.17c-.53-2.65-.24-3.11,2.13-3.42A3.25,3.25,0,0,0,36.23,59.77Z"/><path class="cls-4" d="M39,71a5.63,5.63,0,0,0-1-2.21,2.83,2.83,0,0,1,.31-2.16l.95.06c.48.72,1.21,1.16,1.49,2.1-1,.86-.39,2-.38,3.1C39.87,71.72,39.6,70.94,39,71Z"/><path class="cls-9" d="M36.85,68.86c-.13.73.45,1.87-.61,2.07s-1.1-.71-1.07-1.65a1.8,1.8,0,0,1,1.39-.47Z"/><path class="cls-5" d="M36.85,68.86l-.29,0c.17-1.25.39-2.44,1.75-2.15A2.83,2.83,0,0,0,38,68.82C37.64,69.59,37.24,68.92,36.85,68.86Z"/><path class="cls-5" d="M34.39,69.2l-.29.07C34.18,69.11,34.25,68.94,34.39,69.2Z"/><path class="cls-10" d="M19.82,88.82a12,12,0,0,1,3.95-1.36l3,.05,2.46.48c.78,1.2,0,2.31-.11,3.46a2,2,0,0,0-.6,1.33l-.39.8L26.8,95.39A8.05,8.05,0,0,1,23,97.5c-1.53,0-3.13.48-4.52-.81-.78-.85-1.9-1.24-2.24-2.67.18-.85.36-1.69.53-2.54A10.48,10.48,0,0,1,19.82,88.82Zm8.1,3c-.75-.27-1.24.21-1.71-.39-2.11-2.65-4.83.16-7.11-1.14-.09,0-.29.2-.43.32a2.37,2.37,0,0,0-.51,3.17c.57,1,.53,3.23,2.32,1.91.34-.25.66,0,1,0C24.21,96.12,26.22,94.67,27.92,91.8Z"/><path class="cls-2" d="M15.31,81.48a1,1,0,0,1-.52,1c-.43.24-.85.46-1.23-.07a.74.74,0,0,1-.14-.54c.22-.6.68-.32,1-.37a6,6,0,0,1,.85,0Z"/><path class="cls-4" d="M57.41,66.13a2.13,2.13,0,0,1,.74-2.59l.64.07c.53.55.74,1.53,1.51,1.76a7.24,7.24,0,0,1,.91,6.06l-.46.51c-.85-.39-1.39.41-2,.83-.49.11-1,.24-1.47.34s-1,.16-1.4-.4,0-1.15.25-1.69a8.78,8.78,0,0,1,4-1.59c-.31-.67-.7-.5-1-.61C58.94,67.52,58.83,66.18,57.41,66.13Z"/><path class="cls-2" d="M50.89,62.81l-.48-2.64c.73-.24,1.58.35,2.21-.54l2,1.23L55,65.33c-.72.18-1.44.75-2.15,0C53.15,63.27,52,63.07,50.89,62.81Z"/><path class="cls-3" d="M60.3,65.37c-.77-.23-1-1.21-1.51-1.76l1.08-1.71,1.05.47c.1.59.21,1.18.32,1.77A2.56,2.56,0,0,1,60.3,65.37Z"/><path class="cls-5" d="M52.62,59.63c-.63.89-1.48.3-2.21.54l-.3-.92c.77,0,1.22-1.14,2.06-.86Z"/><path class="cls-9" d="M71.25,60c.42-.66.88-1.07,1.62-.29-.45.59-1.05.24-1.5.47Z"/><path class="cls-5" d="M60.3,65.37a2.56,2.56,0,0,0,.94-1.23,3.69,3.69,0,0,1,2.44,2.08c-.7,0-1.59-.29-1.74,1.06a2,2,0,0,0,1.2,2.06,5,5,0,0,0,2.26.82V71H63.53c-.74,0-1.53,0-1.62,1.28l-.73.15,0-.1v-.89A7.24,7.24,0,0,0,60.3,65.37Z"/><path class="cls-3" d="M65.4,70.16a5,5,0,0,1-2.26-.82,2,2,0,0,1-1.2-2.06c.15-1.35,1-1,1.74-1.06l.74.06c.26.78.68,1.17,1.37.87C66.66,68.36,65.88,69.23,65.4,70.16Z"/><path class="cls-11" d="M65.4,70.16c.48-.93,1.26-1.8.39-3,.83-.13,1.88.28,2.09-1.34l.3,0,.64,0c0,1.45,1.07,2.2,1.51,3.36-.58.11-1.24,0-1.39,1l0-.07-.37.44L66.8,71.94c-.32-.65-1-.5-1.41-1Z"/><path class="cls-2" d="M68.82,65.83l-.64,0a.58.58,0,0,1,.72-.4C68.87,65.54,68.85,65.69,68.82,65.83Z"/><path class="cls-4" d="M81.72,78.18c-.58.75-1.81-.49-2.12,1.08l-.29,0c.11-1.89-1.15-1.78-2-2.19,0-.93-1.24-1.48-.51-2.63.15-.18.29-.36.44-.53l.34-.75c.41-.33.13,1.35.75.39.87,0,1.15,1.43,2.06,1.36a1.74,1.74,0,0,0,1.73,1.84Z"/><path class="cls-3" d="M77.27,77.09c.89.41,2.15.3,2,2.19h0l-3.12.44c-.75.2-1.4-.3-2.1-.47a5.1,5.1,0,0,0-2-1.33l-.44-1.69c.47-.33.82-.92,1.42-1a10.41,10.41,0,0,1,3.27,1.83C76.7,77.4,77,77.47,77.27,77.09Z"/><path class="cls-4" d="M66.8,71.94l1.73-1.34.37-.44,0,.07c.66.1,1.49-1.11,2,.12s-.64,1.94-1.1,2.85l-1,.89c-.62-.32-1.34-1.25-1.67.4l-.76,0a1.67,1.67,0,0,1-.31,0A3.26,3.26,0,0,1,66.8,71.94Z"/><path class="cls-3" d="M66.79,77.1c1.08-.07,1.86.89,2.81,1.27.56.09.93.58,1.33,1L71,81c-1.35-.51-2.64-1.47-4.13-.84-.43-.78-1.65-.75-1.42-2.19C65.77,77.44,66.15,77,66.79,77.1Z"/><path class="cls-7" d="M67.16,74.49c.33-1.65,1-.72,1.67-.4.21,1.94-.56,2.68-2,2.6l-1-.91c0-.48-.09-1,.3-1.31a1.67,1.67,0,0,0,.31,0C67,75.12,67.06,75.12,67.16,74.49Z"/><path class="cls-5" d="M65.79,75.78l1,.91c0,.13,0,.27,0,.41-.64-.15-1,.34-1.38.89H65c-.09-1.88-1.3-2.94-2-4.35.14-.27.35-.25.59-.29C65.07,73.06,64.85,75.25,65.79,75.78Z"/><path class="cls-5" d="M70.93,79.36c-.4-.41-.77-.9-1.33-1,0-1.74.57-2.66,2.08-2.14.14.57.29,1.13.44,1.69A3.86,3.86,0,0,1,70.93,79.36Z"/><path class="cls-12" d="M77.2,73.93c-.15.17-.29.35-.44.53C76.9,74.28,77.05,74.1,77.2,73.93Z"/><path class="cls-5" d="M14.59,97.53l-1,.92-.19-2C14.09,96.47,14.37,97,14.59,97.53Z"/><path class="cls-2" d="M18.44,96.69c1.39,1.29,3,.79,4.52.81.45.53-.3,1.44.39,1.89-.08.51-.25,1.2-.66,1.07-1.78-.54-3.83.25-5.31-1.7C17.42,97.82,17.34,96.78,18.44,96.69Z"/><path class="cls-4" d="M23.35,99.39c-.69-.45.06-1.36-.39-1.89a8.05,8.05,0,0,0,3.84-2.11l.32,1.25c-.58.74-1.44,1.12-1.79,2.16a2.08,2.08,0,0,0-1.32.58Z"/><path class="cls-9" d="M24,99.38a2.08,2.08,0,0,1,1.32-.58l1.44-.32c-.06,1,.44,2.3-.61,2.86s-1.66,0-2.12-1.15Z"/><path class="cls-10" d="M70.94,99.73l-3.45-.42c-1.32-.9-1.42-2.34-1.12-4a5.26,5.26,0,0,0,.5-2.65,1.3,1.3,0,0,0,0-.34c.78-1.9,2.39-2.12,3.74-2.88a3.78,3.78,0,0,0,.67-.13c1.3-.49,2.64-1,3.62.67a6.21,6.21,0,0,1,.58,5.46c-.18.52-.27,1.08-.4,1.62a2,2,0,0,0-1.35,1.59A7.58,7.58,0,0,0,70.94,99.73Zm-1.63-2.09c.94-.76.62-2,1.08-2.92a2.09,2.09,0,0,0-.65-2.2.74.74,0,0,0-.65-.15c-.87.26-1.72.64-1.58,2.06S68.79,96.44,69.31,97.64Z"/><path class="cls-3" d="M70.59,89.49c-1.35.76-3,1-3.74,2.88-.85-.52-.55-1.54-.6-2.64-1,1.09-1.91,1.14-2.87.4L63,88.88c.08-1.17.58-2.51-.76-3.13.64-1.48,1.17-.33,1.62.18s.7,1.64,1.6,1.64c.69.15,1.4.71,2.08,0,.78.09,1.56.18,2-.85C70.81,87.11,71,85.2,72,85l0,.41c.5,1.23,1.25,1.88,2.38,1.68l.07.11a3.86,3.86,0,0,1-2.69,1.26C71.2,88.5,70.56,88.4,70.59,89.49Z"/><path class="cls-11" d="M79.63,86.23c1.19-.21,1.65,1.14,2.45,1.78,0,.42,0,.84,0,1.26,0,.18,0,.35,0,.53a15.18,15.18,0,0,1-.84,3.44l-.49,0a5,5,0,0,1-2.48-.36,3.07,3.07,0,0,0-.37-1.65c.1-1.2-.41-2.37-.09-3.58C78.66,87.59,79,86.62,79.63,86.23Z"/><path class="cls-2" d="M87,98.07c0,.14,0,.27,0,.41-.23,1.22-1.13,1.38-1.86,1.62-1,.34-2.16-.06-3.24.36-.56.22-.74-.49-.84-1.08.47-.44.32-1.09.36-1.68a8.86,8.86,0,0,1,.73-3.63c.72.05,1.56-.17,1.72,1.17-.44,2.55-.39,2.61,1.41,1.89l.28,0A1.46,1.46,0,0,0,87,98.07Z"/><path class="cls-4" d="M81.38,97.7c0,.59.11,1.24-.36,1.68-2-.23-3.09-1.94-4.22-3.66A1.2,1.2,0,0,1,77.16,94c.42-.31,1.06-.27,1.14-1.11a5,5,0,0,0,2.48.36c-1.31,1.25-1.13,2.5,0,3.77Z"/><path class="cls-4" d="M77.84,87.61c-.32,1.21.19,2.38.09,3.58-1.7-.62-2.27-2.76-3.48-4L74.39,87a1.58,1.58,0,0,1,0-.38.66.66,0,0,0,.7-.4l1.05-1C76.94,85.82,77.22,86.91,77.84,87.61Z"/><path class="cls-7" d="M87,98.07a1.46,1.46,0,0,1-1.46-.91,9.15,9.15,0,0,0,1.89-.08A2.22,2.22,0,0,0,89,94.9c.1-1.28-.64-1.52-1.41-1.7.95-1,1.7-.18,2.46.45.48,1.15.11,2.31,0,3.46C89.05,97.46,88.11,98.25,87,98.07Z"/><path class="cls-5" d="M90.08,93.65c-.76-.63-1.51-1.43-2.46-.45l-1,.47-.48-2.19c1.71-.24,3.22,1.34,5,.86Z"/><path class="cls-5" d="M66.87,92.71a5.26,5.26,0,0,1-.5,2.65C65.37,96,63.94,96,64,98l-1,.48c-.38-1.07-.76-2.13-1.13-3.2l1.2.07c1.66.08,1.79-.16,1.2-2.15Z"/><path class="cls-2" d="M61.84,95.31,63,98.51c-.75,1.45-1.4-.66-2.12-.09a2.53,2.53,0,0,0-1.07-1.37c0-.1,0-.2,0-.3l1.87-1.44h.17Z"/><path class="cls-5" d="M59.79,97.05a2.53,2.53,0,0,1,1.07,1.37c-.94.17-1.71,1.15-2.74.85Z"/><path class="cls-2" d="M47,97.56c.17-2.3.17-4.56-1-6.53.48-.43,1-.87,1.42-1.31.11.46.23.91.34,1.37.63,4.7.63,4.7,3.09,4.73.39.28.81.52,1.18.84.62.54,1.29.75,1.9.18s.36-1.52.05-2.3c.22-.9,1-1.1,1.41-1.78.46.3.57-.83,1.06-.41l.71,3.35c-2.06-.32-2,2.6-3.28,3.41l.48.58-3.41.54c-.35-1.58-1.16-2.14-2.42-1.69A1.35,1.35,0,0,0,47,97.56Z"/><path class="cls-9" d="M57.1,95.7c-.24-1.12-.47-2.23-.71-3.35.88,0,1.19-1.41,2.11-1.34l.08,0h.09l1.58.53.27.37c-.19,1.48-.9.58-1.44.5s-.77.25-1,.67a.77.77,0,0,0,.16.94c.27.33.54.52.92.26s.65-1,1-.14c.22.61-.24,1.06-.63,1.4-.56.5-1.23.21-1.86.32l-.07,0Z"/><path class="cls-7" d="M57.6,95.85c.63-.11,1.3.18,1.86-.32.39-.34.85-.79.63-1.4-.3-.81-.65-.06-1,.14s-.65.07-.92-.26a.77.77,0,0,1-.16-.94c.25-.42.56-.74,1-.67s1.25,1,1.44-.5c0-.15,0-.3,0-.44h0l.69.38a4.79,4.79,0,0,1,.46,3.46L59.8,96.75C59,96.68,58.16,96.82,57.6,95.85Z"/><path class="cls-2" d="M27.12,96.64l-.32-1.25c.45-.6.89-1.21,1.33-1.81a3.08,3.08,0,0,0,3.68,1.77c.44-.11,1-.17,1.08-.84s-.41-1-.83-1.21a6.29,6.29,0,0,0-3.54-.52,2,2,0,0,1,.6-1.33C31,91.34,31.57,90.2,31,88c.36-.67.9-.44,1.39-.46-.55,1.8.41,3.28.72,4.89s1,1.64,1.74.31a2.16,2.16,0,0,1,2.43,1.31l-.7.89c-.71.11-1.47-.28-2.12.38-.89-.29-1,.79-1.35,1.3-.81-1.57-2.05-1.06-2.85-.43-1,.77-.31,2.08.08,3.13,0,.13,0,.26,0,.39-1,.35-1.68-.54-2.5-.88l-.31-.42C28.55,97.47,27.15,97.26,27.12,96.64Z"/><path class="cls-3" d="M30.3,99.35c-.39-1-1.06-2.36-.08-3.13.8-.63,2-1.14,2.85.43l-.91.34c-.65.22-.64.28.18,1.06l0,.77A2.45,2.45,0,0,0,30.3,99.35Z"/><path class="cls-7" d="M32.39,98.82c0-.26,0-.52,0-.77a3.8,3.8,0,0,0,2.2-1c.84-.62.58-1.21-.12-1.7.65-.66,1.41-.27,2.12-.38a2.82,2.82,0,0,0,0,.41c.18,1.32-1,1.84-1.15,2.92l-2.63.57Z"/><path class="cls-5" d="M27.12,96.64c0,.62,1.43.83.35,1.8l-.7,0-1.44.32C25.68,97.76,26.54,97.38,27.12,96.64Z"/><path class="cls-11" d="M37.24,94.08a2.16,2.16,0,0,0-2.43-1.31c0-.28,0-.56,0-.83,2.11.5,1.17-1.5,1.35-2.58,2-1.69,4.16-1,6.3-.46C40.82,90,40.62,92.19,40,94,39,93.08,38.14,94,37.24,94.08Z"/><path class="cls-12" d="M45.58,94.58c.14,1.07-.13,1.84-1.28,1.68a1.75,1.75,0,0,0-.51,0c-.84.2-2,1-2.42.15-.48-1.1.84-1.55,1.44-2.23a1.37,1.37,0,0,0,.28-.75c0-.74-1-1.93.81-1.77,1.46.13,1.44,1.19,1.68,2.31A3.71,3.71,0,0,1,45.58,94.58Z"/><path class="cls-5" d="M42.47,88.9c-2.14-.59-4.27-1.23-6.3.46l-1.32-.6c-.44-1-.17-1.15.64-1.16,1.39,0,2.83.36,4.15-.53a11.69,11.69,0,0,0,3.51.93c.69,0,1.38-1,2.08,0l-.7,1.38A2.84,2.84,0,0,1,42.47,88.9Z"/><path class="cls-4" d="M44.53,89.36c.24-.46.47-.92.7-1.38.74-.19.81-1.77,1.65-1.47s.82,1.39.83,2.33a1.09,1.09,0,0,1-.35.88c-.47.44-.94.88-1.42,1.31C45.43,90.53,44.68,90.34,44.53,89.36Z"/><path class="cls-3" d="M37.24,94.08c.9,0,1.8-1,2.72,0-.09,1.13-.19,2.27-.28,3.4,0,.16,0,.32-.07.48-.71.22-1.15-.44-1.68-.81v0l-.36-.53c.08-1-.32-1.29-1-1.22a2.82,2.82,0,0,1,0-.41Z"/><path class="cls-5" d="M37.58,96.6l.36.53Z"/><path class="cls-3" d="M86.18,91.48l.48,2.19a8.06,8.06,0,0,0-2.16,1.82l-.67-.25c-.16-1.34-1-1.12-1.72-1.17l-.84-.83a15.18,15.18,0,0,0,.84-3.44c.25,1.78,1.28,1.8,2.38,1.64Z"/><path class="cls-5" d="M84.49,91.44c-1.1.16-2.13.14-2.38-1.64,0-.18,0-.35,0-.53C83.39,89.14,84,90.24,84.49,91.44Z"/><path class="cls-4" d="M76.19,79.72l3.12-.44a7.37,7.37,0,0,1-.71,2.2,4.19,4.19,0,0,0-1.76,1.71h0l-.36.45-.3,0c-.19-.65-.74-.79-1.12-1.18l.08-.81A2.73,2.73,0,0,0,76.19,79.72Z"/><path class="cls-2" d="M76.21,83.6l.3,0,.36-.45h0c1.17.28,2.55-.76,3.52.86l-.84,1.85c-1.3,0-2.56-.17-3.29-1.84C76.23,83.91,76.22,83.76,76.21,83.6Z"/><path class="cls-5" d="M76.23,84.06c.73,1.67,2,1.81,3.29,1.84a.92.92,0,0,1,.11.33c-.63.39-1,1.36-1.79,1.38-.62-.7-.9-1.79-1.66-2.34C76.2,84.87,76.22,84.47,76.23,84.06Z"/><path class="cls-4" d="M50.49,70.32a3.1,3.1,0,0,0,1-1.93c.88-.81,1.78-1.43,2.8-.36a3.8,3.8,0,0,0-.41,2.07,4.68,4.68,0,0,0-1.37,2.21,5,5,0,0,0-1.4,1.75l-.62-.1-.45-1.18Z"/><path class="cls-7" d="M57.41,66.13c1.42.05,1.53,1.39,1.67,2.69a3.18,3.18,0,0,0-1.65.41c-1.81.92-2,.75-2.15-1.7A1.78,1.78,0,0,1,57.41,66.13Zm-.76,1.79a.48.48,0,0,0-.57-.35c-.07,0-.12.17-.18.25l.47.21C56.52,68.23,56.61,68.17,56.65,67.92Z"/><path class="cls-2" d="M55.28,67.53c.15,2.45.34,2.62,2.15,1.7a3.18,3.18,0,0,1,1.65-.41c.31.11.7-.06,1,.61a8.78,8.78,0,0,0-4,1.59c-.72-.33-1.58-.16-2.19-.92A3.8,3.8,0,0,1,54.32,68C54.85,68.47,55,67.77,55.28,67.53Z"/><path class="cls-5" d="M50.89,62.81c1.11.26,2.26.46,1.94,2.47-.76.1-1.53.22-2-.81Z"/><path class="cls-2" d="M50.49,70.32l-.42,2.46-1,0-.06-.53c-.18-1.15-.72-.75-1.27-.5-1.16.53-2.29,1.26-3.59,1,.47-1,1.32-1.73,1.41-3,1-.27,2.24,0,1.78-2.27-.18-.88.56-1,1-.48A7.07,7.07,0,0,1,50.49,70.32Z"/><path class="cls-11" d="M45.6,69.75c-.09,1.28-.94,2-1.41,3h-.35a9.31,9.31,0,0,0-3.46.46V71.92c0-1.06-.62-2.24.38-3.1l1.07,0,1.29,0C44,68.86,45,68.55,45.6,69.75Z"/><path class="cls-5" d="M26.77,87.51l-3-.05c.23-.64.94-.81,1-1.59a3.7,3.7,0,0,0,3-1l.27.35Z"/><path class="cls-2" d="M33,76.54a2.31,2.31,0,0,1,1.06-2.06,2.6,2.6,0,0,0,2.53.61c.61-.27-.13-1.25-.08-1.92v0c.26-.15.23-.3,0-.45.21-1.35,1.09-.69,1.69-.89A8.19,8.19,0,0,1,39,75.41l.34,1.69c-.08.68-.22,1.31-.94,1.16C36.56,77.86,34.62,78.06,33,76.54Z"/><path class="cls-5" d="M33,76.54c1.6,1.52,3.54,1.32,5.36,1.72.72.15.86-.48.94-1.16,1.7,0,2.57-1.83,3.84-2.79-.08.79.41,1.28.65,1.89-.63-.09-1.31-.59-1.8.41a1.63,1.63,0,0,0,.43,2,5,5,0,0,1,.37.69,13,13,0,0,0-4.87.52c-1.29-1.81-2.11-1.88-4.59-.42A4.58,4.58,0,0,1,31.64,78Z"/><path class="cls-4" d="M31.64,78a4.58,4.58,0,0,0,1.71,1.41L33.74,81l-.42.85a1.85,1.85,0,0,0-1.26.53c-.49-.42-.62-1.47-1.43-1.38-1-1-.18-2.31-.37-3.46A1.71,1.71,0,0,1,31.64,78Z"/><path class="cls-5" d="M39,75.41a8.19,8.19,0,0,0-.76-3.56c.25-.27.5-.55.76-.82.62-.09.89.69,1.39.89,0,.43,0,.86,0,1.29C39.9,73.92,39.65,74.88,39,75.41Z"/><path class="cls-5" d="M36.53,73.17c-.05.67.69,1.65.08,1.92a2.6,2.6,0,0,1-2.53-.61A7.2,7.2,0,0,1,36.53,73.17Z"/><path class="cls-5" d="M36.53,72.74c.22.15.25.3,0,.45Z"/><path class="cls-3" d="M30.63,81c.81-.09.94,1,1.43,1.38l-.12,1.21a6.48,6.48,0,0,0-2.66,1.3l-.72,0a1.55,1.55,0,0,0-.71-.91l-.33-1.23C29,83.29,30,82.83,30.63,81Z"/><path class="cls-5" d="M27.85,84a1.55,1.55,0,0,1,.71.91l-.5.27-.27-.35Z"/><path class="cls-12" d="M27.92,91.8c-1.7,2.87-3.71,4.32-6.44,3.9-.34-.06-.66-.28-1,0-1.79,1.32-1.75-.9-2.32-1.91a2.37,2.37,0,0,1,.51-3.17c.14-.12.34-.37.43-.32,2.28,1.3,5-1.51,7.11,1.14C26.68,92,27.17,91.53,27.92,91.8Z"/><path class="cls-3" d="M28.52,92.78a6.29,6.29,0,0,1,3.54.52c.42.24.9.56.83,1.21s-.64.73-1.08.84a3.08,3.08,0,0,1-3.68-1.77Z"/><path class="cls-4" d="M28.06,85.22l.5-.27.72,0c.31.23.6.5,1,.39l-.34,1.86-.7.83-2.46-.48Z"/><path class="cls-5" d="M29.23,88l.7-.83L31,88c.61,2.17,0,3.31-1.84,3.42C29.26,90.3,30,89.19,29.23,88Z"/><path class="cls-10" d="M58.72,72.77c.64-.42,1.18-1.22,2-.83l.47.38,0,.1a20.77,20.77,0,0,0,1.37,5.16L63,78h0c1.14,1.86.59,3.56-.34,5.21a6.45,6.45,0,0,0-1.5,2.6c-.66.12-1,.69-1.29,1.37l-2.4.08a3,3,0,0,0-1.88-1.48,5.66,5.66,0,0,0-1.26-2.6l-.42-3.08c-.25-2.46,1.33-3.37,2.51-4.62A6.69,6.69,0,0,0,58.72,72.77ZM60,73.84a9.17,9.17,0,0,1-4.45,4.21c-.53.26-1.18.63-.88,1.54a1.4,1.4,0,0,0,1.61.9C58.82,80.23,60.35,77.71,60,73.84Zm2.17,7.22c-.06-.31-.22-.75-.4-.59-1.2,1.07-2.94.88-3.86,2.55a1.23,1.23,0,0,0,.27,1.68c.51.35,1.35.6,1.49-.23a2.66,2.66,0,0,1,1.86-2.23C62,82.07,62.1,81.55,62.19,81.06Z"/><path class="cls-5" d="M58.72,72.77a6.69,6.69,0,0,1-2.35,2.7c-.62-2.3-2.32-2.55-3.83-3.16a4.68,4.68,0,0,1,1.37-2.21c.61.76,1.47.59,2.19.92-.2.54-.69,1-.25,1.69s.9.49,1.4.4S58.23,72.88,58.72,72.77Z"/><path class="cls-2" d="M61.22,72.32l-.47-.38.46-.51C61.21,71.73,61.22,72,61.22,72.32Z"/><path class="cls-2" d="M65.79,75.78c-.94-.53-.72-2.72-2.24-2.44-.24,0-.45,0-.59.29a2.85,2.85,0,0,1-1.05-1.36C62,71,62.79,71,63.53,71h1.86c.42.45,1.09.3,1.41,1a3.26,3.26,0,0,0-.71,2.53C65.7,74.81,65.76,75.3,65.79,75.78Z"/><path class="cls-4" d="M61.91,72.27A2.85,2.85,0,0,0,63,73.63C63.68,75,64.89,76.1,65,78c-.68.75-1.36-.25-2,0h0c0-.33.09-.82-.41-.41a20.77,20.77,0,0,1-1.37-5.16Z"/><path class="cls-5" d="M68.9,70.16l-.37.44Z"/><path class="cls-2" d="M70.93,79.36a3.86,3.86,0,0,0,1.19-1.44,5.1,5.1,0,0,1,2,1.33c-.25.63-1.08.71-1,1.66C72.38,81,71.71,82,71,81Z"/><path class="cls-5" d="M73.09,80.91c-.08-1,.75-1,1-1.66.7.17,1.35.67,2.1.47a2.69,2.69,0,0,1-1,1.88A3.69,3.69,0,0,0,73.09,81Z"/><path class="cls-3" d="M67.16,74.49c-.1.63-.13.63-.76,0Z"/><path class="cls-4" d="M71,81c.75,1,1.42,0,2.13-.11V81a4.29,4.29,0,0,0-.41,2.2A3.32,3.32,0,0,0,72,85c-1,.25-1.17,2.16-2.43,1.73L69.46,85c0-.7.61-1.46.21-2s-1.08.09-1.57.3a10.7,10.7,0,0,1-2.73.38c-.71-.51-1.65,1-2.26-.39a6.33,6.33,0,0,1,3.72-3.13C68.32,79.55,69.61,80.51,71,81Z"/><path class="cls-2" d="M66.83,80.18a6.33,6.33,0,0,0-3.72,3.13l-.5-.11c.93-1.65,1.48-3.35.34-5.21.67-.26,1.35.74,2,0h.43C65.18,79.43,66.4,79.4,66.83,80.18Z"/><path class="cls-12" d="M69.31,97.64c-.52-1.2-1.66-1.76-1.8-3.21s.71-1.8,1.58-2.06a.74.74,0,0,1,.65.15,2.09,2.09,0,0,1,.65,2.2C69.93,95.61,70.25,96.88,69.31,97.64Z"/><path class="cls-2" d="M66.87,92.71l-2.62.52L61.9,91.86c.09-1.12,1.14-.94,1.48-1.73,1,.74,1.9.69,2.87-.4,0,1.1-.25,2.12.6,2.64A1.3,1.3,0,0,1,66.87,92.71Z"/><path class="cls-4" d="M59.82,87.17c.28-.68.63-1.25,1.29-1.37l1.09,0c1.34.62.84,2,.76,3.13-.82.86-1.63,1.73-2.44,2.59h0a1,1,0,0,0-.28.07L58.67,91C58.61,89.51,60.45,88.92,59.82,87.17Z"/><path class="cls-2" d="M65.37,83.7a10.7,10.7,0,0,0,2.73-.38c.49-.21,1.12-.93,1.57-.3s-.19,1.31-.21,2a2.2,2.2,0,0,0-2,2.5c-.68.75-1.39.19-2.08,0C65.4,86.28,65.39,85,65.37,83.7Z"/><path class="cls-9" d="M72,85a3.32,3.32,0,0,1,.7-1.77l1.76-.8a3.57,3.57,0,0,1,.69,3.88.66.66,0,0,1-.7.4L72,85.36Z"/><path class="cls-5" d="M65.37,83.7c0,1.29,0,2.58,0,3.87-.9,0-1.09-1-1.6-1.64s-1-1.66-1.62-.18l-1.09,0a6.45,6.45,0,0,1,1.5-2.6l.5.11C63.72,84.71,64.66,83.19,65.37,83.7Z"/><path class="cls-5" d="M67.5,87.53a2.2,2.2,0,0,1,2-2.5l.09,1.65C69.06,87.71,68.28,87.62,67.5,87.53Z"/><path class="cls-5" d="M60.52,91.47c.81-.86,1.62-1.73,2.44-2.59l.42,1.25c-.34.79-1.39.61-1.48,1.73h-.69Z"/><path class="cls-7" d="M72,85.36l2.42,1.3a1.58,1.58,0,0,0,0,.38C73.26,87.24,72.51,86.59,72,85.36Z"/><path class="cls-5" d="M81.27,93.24l.84.83a8.86,8.86,0,0,0-.73,3.63L80.76,97c-1.11-1.27-1.29-2.52,0-3.77Z"/><path class="cls-9" d="M84.5,95.49a8.06,8.06,0,0,1,2.16-1.82l1-.47c.77.18,1.51.42,1.41,1.7a2.22,2.22,0,0,1-1.62,2.18,9.15,9.15,0,0,1-1.89.08l-.28,0Z"/><path class="cls-5" d="M84.5,95.49l.74,1.64c-1.8.72-1.85.66-1.41-1.89Z"/><path class="cls-7" d="M75.13,86.26a3.57,3.57,0,0,0-.69-3.88l.65,0c.38.39.93.53,1.12,1.18,0,.16,0,.31,0,.46,0,.41,0,.81,0,1.21Z"/><path class="cls-4" d="M61.21,91.85h.69l2.35,1.37c.59,2,.46,2.23-1.2,2.15l-1.2-.07h-.18A4.79,4.79,0,0,0,61.21,91.85Z"/><path class="cls-11" d="M55.33,92.76c-.41.68-1.19.88-1.41,1.78a1.91,1.91,0,0,1-2.38-1.37c-.2-.51-.73-.82-1.11-1.22.22-.71.77-1.2.72-2.09-.06-1.1.51-1.47,1.3-1.47l1-.11,0-.12.52.15L55,89l.33.28Z"/><path class="cls-4" d="M50.43,92c.38.4.91.71,1.11,1.22a1.91,1.91,0,0,0,2.38,1.37c.31.78.67,1.64-.05,2.3s-1.28.36-1.9-.18c-.37-.32-.79-.56-1.18-.84-.47-1.14-1.83-1.75-1.35-3.47C49.79,92.31,50.19,92.43,50.43,92Z"/><path class="cls-3" d="M55.33,92.76l0-3.46c3.07-1.13,3.07-1.13,3.19,1.71-.92-.07-1.23,1.34-2.11,1.34C55.9,91.93,55.79,93.06,55.33,92.76Z"/><path class="cls-5" d="M49.44,92.35c-.48,1.72.88,2.33,1.35,3.47-2.46,0-2.46,0-3.09-4.73a1.92,1.92,0,0,0,1.33.4Z"/><path class="cls-9" d="M49,91.49a1.92,1.92,0,0,1-1.33-.4c-.11-.46-.23-.91-.34-1.37a1.09,1.09,0,0,0,.35-.88,1.84,1.84,0,0,1,1.35-.42v.44c-.37.27-.82.49-.75,1.14,0,.09.48.11.74.17,0,.31-.37.64,0,.93C49.08,91.23,49.05,91.36,49,91.49Z"/><path class="cls-5" d="M58.5,91c-.12-2.84-.12-2.84-3.19-1.71L55,89a5.79,5.79,0,0,0,2.44-1.77l2.4-.08c.63,1.75-1.21,2.34-1.15,3.83h-.09Z"/><path class="cls-5" d="M60.25,91.53a1,1,0,0,1,.28-.07c0,.14,0,.29,0,.44Z"/><path class="cls-4" d="M39.64,87.07c-1.32.89-2.76.53-4.15.53-.81,0-1.08.2-.64,1.16l0,3.18c0,.27,0,.55,0,.83-.74,1.33-1.45,1.21-1.74-.31s-1.27-3.09-.72-4.89c.17-.72,1.18-1.18.42-2.19,0-.15-.05-.3-.07-.45l1.09.33a5.35,5.35,0,0,0,3.71-.49C38.26,85.46,39.87,84.92,39.64,87.07Z"/><path class="cls-3" d="M32.77,85.38c.76,1-.25,1.47-.42,2.19-.49,0-1-.21-1.39.46l-1-.87c.11-.62.23-1.24.34-1.86C31.12,84.42,31.93,85.6,32.77,85.38Z"/><path class="cls-9" d="M34.42,95.35c.7.49,1,1.08.12,1.7a3.8,3.8,0,0,1-2.2,1c-.82-.78-.83-.84-.18-1.06l.91-.34C33.47,96.14,33.53,95.06,34.42,95.35Z"/><path class="cls-3" d="M34.82,91.94l0-3.18,1.32.6C36,90.44,36.93,92.44,34.82,91.94Z"/><path class="cls-2" d="M39.64,87.07c.23-2.15-1.38-1.61-2.14-2.3,0-.81,0-1.63.08-2.45.9.39,2-.38,2.78.78l.36.53h0c.44.79.45,2.36,1.3,2.27s2.25-.48,2.37-1.6-1.18-.93-1.93-1.1c-.62-.57-1.5-1-1.36-2.2s1.11-.6,1.67-.9a2.1,2.1,0,0,0,.4-.39h.34c0,1,.77,1.09,1.28,1.44s.65-.08.84-.44c.3-.57-.3-.61-.41-1,.86.2,1.36-.9,2.16-.91a1,1,0,0,1,1,.9l-.72,2.53a2.61,2.61,0,0,0-1.13,1.83h1.87c.69,1.3,1.78,2.27,2.12,3.89-.38.07-.84-.12-1.1.43h-.34a1.84,1.84,0,0,0-1.35.42c0-.94,0-2-.83-2.33S46,87.79,45.23,88c-.7-1-1.39,0-2.08,0A11.69,11.69,0,0,1,39.64,87.07Z"/><path class="cls-3" d="M75.09,82.42l-.65,0-1.76.8a4.29,4.29,0,0,1,.41-2.2,3.69,3.69,0,0,1,2.08.62C75.14,81.88,75.12,82.15,75.09,82.42Z"/><path class="cls-5" d="M76.87,83.18l-.36.45Z"/><path class="cls-2" d="M52.54,72.31c1.51.61,3.21.86,3.83,3.16-1.18,1.25-2.76,2.16-2.51,4.62l-.63.07h0L52.83,78A5.47,5.47,0,0,0,54,75.54c-1-.41-2.23-.14-2.9-1.48A5,5,0,0,1,52.54,72.31Z"/><path class="cls-5" d="M51.14,74.06c.67,1.34,1.88,1.07,2.9,1.48A5.47,5.47,0,0,1,52.83,78c-.86-1.24-1.73-2.47-2.59-3.7l.28-.38Z"/><path class="cls-5" d="M49.11,72.81l1,0L50.52,74l-.28.37a1,1,0,0,0-1.26,0Z"/><path class="cls-3" d="M56.37,68l-.47-.21c.06-.08.11-.23.18-.25a.48.48,0,0,1,.57.35A1,1,0,0,0,56.37,68Z"/><path class="cls-9" d="M56.37,68a1,1,0,0,1,.28-.11C56.61,68.17,56.52,68.23,56.37,68Z"/><path class="cls-3" d="M49.11,72.81c0,.51-.08,1-.13,1.53a.17.17,0,0,1-.17.12c-.79.47-1.11,1.73-2.06,1.93l-.15-.18a4.34,4.34,0,0,0-.31-2.62,3.14,3.14,0,0,1,2.76-1.31Z"/><path class="cls-5" d="M49.05,72.28a3.14,3.14,0,0,0-2.76,1.31l-.36,0,0,0-.36-.39-1.32-.11c0-.12,0-.25,0-.37h0c1.3.28,2.43-.45,3.59-1C48.33,71.53,48.87,71.13,49.05,72.28Z"/><path class="cls-4" d="M39,75.41c.67-.53.92-1.49,1.4-2.2a9.31,9.31,0,0,1,3.46-.46c0,.14,0,.28,0,.41-.21.39-.43.77-.64,1.15-1.27,1-2.14,2.78-3.84,2.79Z"/><path class="cls-2" d="M43.8,73.16l0-.41h.35c0,.12,0,.25,0,.37Z"/><path class="cls-3" d="M43.16,79.7a2.1,2.1,0,0,1-.4.39c-.56.3-1.51-.46-1.67.9s.74,1.63,1.36,2.2a2.18,2.18,0,0,1-1.74.43h0l-.36-.53c-.77-1.16-1.88-.39-2.78-.78-.29-.18-.31-.54-.36-.87.19-.58.74-.92.72-1.64a13,13,0,0,1,4.87-.52l0,0Z"/><path class="cls-3" d="M47.37,78.84c-.8,0-1.3,1.11-2.16.91l-1.71,0h0c-.12-.46-.43-.43-.72-.44l0,0a5,5,0,0,0-.37-.69,1.63,1.63,0,0,1-.43-2c.49-1,1.17-.5,1.8-.41l.37.44c.92.84,1.69.35,2.42-.43l.15.18C45.81,77.67,47.37,77.94,47.37,78.84Z"/><path class="cls-2" d="M37.94,79.81c0,.72-.53,1.06-.72,1.64A12.08,12.08,0,0,0,33.74,81l-.39-1.63C35.83,77.93,36.65,78,37.94,79.81Z"/><path class="cls-9" d="M44.18,76.64l-.37-.44c-.24-.61-.73-1.1-.65-1.89.21-.38.43-.76.64-1.15l.43,0,1.32.11.36.39,0,0C46.09,75.32,45.44,76.26,44.18,76.64Z"/><path class="cls-9" d="M33.79,85.26l-1.09-.33a1.68,1.68,0,0,1-.76-1.32l.12-1.21a1.85,1.85,0,0,1,1.26-.53c1.07-.21,2,.47,3,.74.32.09.54.08.55.55s-.15.66-.6.76C35.37,84.12,34.37,84.13,33.79,85.26Z"/><path class="cls-7" d="M33.79,85.26c.58-1.13,1.58-1.14,2.47-1.34.45-.1.6-.26.6-.76s-.23-.46-.55-.55c-1-.27-1.92-1-3-.74l.42-.85a12.08,12.08,0,0,1,3.48.43c.05.33.07.69.36.87,0,.82,0,1.64-.08,2.45A5.35,5.35,0,0,1,33.79,85.26Z"/><path class="cls-5" d="M31.94,83.61a1.68,1.68,0,0,0,.76,1.32c0,.15,0,.3.07.45-.84.22-1.65-1-2.5-.08-.39.11-.68-.16-1-.39A6.48,6.48,0,0,1,31.94,83.61Z"/><path class="cls-12" d="M60,73.84c.33,3.87-1.2,6.39-3.72,6.65a1.4,1.4,0,0,1-1.61-.9c-.3-.91.35-1.28.88-1.54A9.17,9.17,0,0,0,60,73.84Z"/><path class="cls-12" d="M62.19,81.06c-.09.49-.24,1-.64,1.18a2.66,2.66,0,0,0-1.86,2.23c-.14.83-1,.58-1.49.23A1.23,1.23,0,0,1,57.93,83c.92-1.67,2.66-1.48,3.86-2.55C62,80.31,62.13,80.75,62.19,81.06Z"/><path class="cls-4" d="M57.42,87.25A5.79,5.79,0,0,1,55,89l-1-.71c-.24-1,.57-1.5.68-2.33l.9-.21A3,3,0,0,1,57.42,87.25Z"/><path class="cls-4" d="M53.23,80.16l.63-.07.42,3.08-.66.5c-1.6.12-1.68-.75-.88-2.16A2.51,2.51,0,0,0,53.23,80.16Z"/><path class="cls-5" d="M53.62,83.67l.66-.5a5.66,5.66,0,0,1,1.26,2.6l-.9.21-1.28-1.42C52.85,84,53.64,84,53.62,83.67Z"/><path class="cls-2" d="M62.55,77.58c.5-.41.4.08.41.41Z"/><path class="cls-3" d="M53.62,83.67c0,.34-.77.32-.26.89L54.64,86c-.11.83-.92,1.34-.68,2.33l-.52-.15a.57.57,0,0,0-.12-.15l-.79,0h0c-.43-1.63-2-2.39-2.1-4.28,0-.9-.49-1-1-.95a2.22,2.22,0,0,1-1.76-.49l.72-2.53,2.44,0a5.36,5.36,0,0,0,2.42.44h0a2.51,2.51,0,0,1-.49,1.35C51.94,82.92,52,83.79,53.62,83.67ZM52,81.34a.58.58,0,0,0,0,.18s.07,0,.12.06a1.62,1.62,0,0,0,0-.19S52,81.36,52,81.34Z"/><path class="cls-3" d="M49,91.49c0-.13,0-.26.06-.39,1.25-.44,1.39-1.83,1.68-3.08l1.77,0h0c0,.14-.06.27-.08.41-.79,0-1.36.37-1.3,1.47.05.89-.5,1.38-.72,2.09-.24.48-.64.36-1,.4C49.3,92.06,49.16,91.78,49,91.49Z"/><path class="cls-5" d="M52.45,88.39c0-.14,0-.27.08-.41l.79,0a.62.62,0,0,0,.09.27Z"/><path class="cls-4" d="M53.41,88.28a.62.62,0,0,1-.09-.27.57.57,0,0,1,.12.15Z"/><path class="cls-7" d="M50.77,88c-.29,1.25-.43,2.64-1.68,3.08-.41-.29-.06-.62,0-.93h0c1-.31.83-1,.35-1.73h0c.26-.55.72-.36,1.1-.43A1.24,1.24,0,0,1,50.77,88Z"/><path class="cls-7" d="M49.05,90.17c-.26-.06-.73-.08-.74-.17-.07-.65.38-.87.75-1.14h0v1.29Z"/><path class="cls-7" d="M49.06,88.42h.35l-.35.44h0Z"/><path class="cls-5" d="M50.8,79.71l-2.44,0a1,1,0,0,0-1-.9c0-.9-1.56-1.17-.62-2.45,1-.2,1.27-1.46,2.06-1.93-.49,1.55.17,2.6.93,3.67C50.1,78.64,50.8,78.81,50.8,79.71Z"/><path class="cls-5" d="M50.77,88a1.24,1.24,0,0,0-.27,0c-.34-1.62-1.43-2.59-2.12-3.89.68-.17,1.32-.65,2.06-.39.1,1.89,1.67,2.65,2.1,4.28Z"/><path class="cls-5" d="M40.71,83.62a2.18,2.18,0,0,0,1.74-.43c.75.17,2,.06,1.93,1.1s-1.52,1.52-2.37,1.6S41.15,84.41,40.71,83.62Z"/><path class="cls-4" d="M50.44,83.71c-.74-.26-1.38.22-2.06.39H46.51a2.61,2.61,0,0,1,1.13-1.83,2.22,2.22,0,0,0,1.76.49C50,82.73,50.43,82.81,50.44,83.71Z"/><path class="cls-5" d="M43.5,79.7l1.71,0c.11.34.71.38.41,1-.19.36-.46.71-.84.44S43.51,80.75,43.5,79.7Z"/><path class="cls-5" d="M42.78,79.27c.29,0,.6,0,.72.44h-.34Z"/><path class="cls-5" d="M40.36,83.1l.36.53Z"/><path class="cls-4" d="M50.8,79.71c0-.9-.7-1.07-1.06-1.58-.76-1.07-1.42-2.12-.93-3.67a.17.17,0,0,0,.17-.12,1.05,1.05,0,0,1,1.26,0L52.83,78l.39,2.11A5.36,5.36,0,0,1,50.8,79.71Z"/><path class="cls-7" d="M44.18,76.64c1.26-.38,1.91-1.32,1.75-3l.36,0a4.34,4.34,0,0,1,.31,2.62C45.87,77,45.1,77.48,44.18,76.64Z"/><path class="cls-7" d="M45.91,73.62l-.36-.39Z"/><path class="cls-4" d="M52,81.34s.12,0,.12,0a1.62,1.62,0,0,1,0,.19s-.12,0-.12-.06A.58.58,0,0,1,52,81.34Z"/><path class="cls-9" d="M49.06,88.87l.35-.44c.48.77.61,1.42-.35,1.73Z"/></g></g></svg>