<svg xmlns="http://www.w3.org/2000/svg" viewBox="0 0 108.99 109.96"><defs><style>.cls-1{fill:#dc8720;}.cls-1,.cls-2,.cls-3{stroke:#000;stroke-miterlimit:10;stroke-width:3px;}.cls-2{fill:#f7e1ab;}.cls-3{fill:#5d3821;}</style></defs><g id="Capa_2" data-name="Capa 2"><g id="Capa_1-2" data-name="Capa 1"><path class="cls-1" d="M76.13,66.07c-.27.81-.62,1.15-1.16,1.12a14.85,14.85,0,0,0-6.48,1.14c-.83.32-1.55,1.39-2.44,1.39l-.25,0c0-1.58-.31-2.48-1.16-2.91C63.07,66,61.53,65,60,64.1c-5.25-3-10.51-6-15.75-9.12-1.89-1.11-3.77-1.5-5.69-.34s-4,2.35-6,3.57A1,1,0,0,1,31.2,58c0-.23-.05-.46-.08-.68l-1.26-6.7a23.88,23.88,0,0,1,.26-4.27,15.65,15.65,0,0,0-.36-4.25,45.54,45.54,0,0,1-.24-7.2c.12-3.6,1.54-5,3.22-3.36A7.53,7.53,0,0,1,34.33,34a27.64,27.64,0,0,0,5.12,7.47c.52.62.94,1.54,1.45,1.87,1-3.5.58-7.18.59-10.79a25,25,0,0,1,.43-5.71c.6-2.47,1.71-3.09,2.92-1.63a10.38,10.38,0,0,1,1.79,3.33c1.28,3.8,3.34,6,5,9,.25.45.53.83.78,1.29.68,1.26,1.35,2.25,2.45,1.68.6-.32,1.29.16,1.86.89,1.55,2,3.13,3.88,4.68,5.85a5.7,5.7,0,0,1,1.07,2.62,3,3,0,0,0,1,2,35.52,35.52,0,0,1,4.68,4.39c1.62,2.08,3.48,2.45,5.22,3.63a7.31,7.31,0,0,1,2.78,3.38l0,2.75Z"/><path class="cls-2" d="M31.2,58a1,1,0,0,0,1.35.2c2-1.22,4-2.36,6-3.57s3.8-.77,5.69.34c5.24,3.07,10.5,6.09,15.75,9.12,1.55.9,3.09,1.88,4.66,2.68.85.43,1.2,1.33,1.16,2.91a3.24,3.24,0,0,1-.58.77c-.85.77-1.84,1.14-2.41,2.76l-.16,0c-.21-.66-.49-.31-.75-.15l-8.71,5.72,1,.2c-1.17.67-2.4,0-3.6.59s-2.47.42-3.5,1.57c-.88,1-1.88,1.46-2.68,2.66-.41-.49-.67.1-1,.44-.56.61-1.06,1.43-1.72,1.67a10.08,10.08,0,0,1-5.09-2.06c-2-1.42-4.13-2.72-6.19-4.07L17.44,71.38c-.31-.31-.53-1-1-.64-.34-2.18-.14-3.28,1-4,1.64-1,3.33-1.81,5-2.76q3.24-1.86,6.46-3.84c.7-.42,1.48-.44,2.08-1.42A1.8,1.8,0,0,0,31.2,58Zm.53,10.37a1.37,1.37,0,0,0,.52,1.33c2.65,2.28,5.28,4.58,7.91,6.93.57.52,1.06.35,1.59-.14,2.46-2.29,4.91-4.58,7.38-6.81A2.09,2.09,0,0,0,49.65,68c0-.87-.23-1.12-.59-1.32a7.14,7.14,0,0,1-.79-.52c-1.82-1.34-3.77-1.9-5.59-3.26-1.48-1.11-3-1.73-4.56-.22-.46.46-.92,1.09-1.41,1.25-1.59.54-3,2-4.5,2.89C31.75,67.11,31.7,67.59,31.73,68.38Z"/><path class="cls-3" d="M78.34,21.8A10,10,0,0,1,76,20a2.67,2.67,0,0,1-.3-2.9C76.88,13.71,78,10.3,79,6.75c.67-2.44,1.68-3.42,3-3.87a26.11,26.11,0,0,1,6-1.19,34.77,34.77,0,0,1,13.5,1.15c1.51.46,2.53,1.62,3.16,4.42.78,3.5,1.81,6.82,2.75,10.21a2.56,2.56,0,0,1-.47,2.5c-.7.92-1.56,1.16-2.31,1.89-.43.16-.86.33-1.29.47A36.65,36.65,0,0,1,78.34,21.8Z"/><path class="cls-2" d="M79.22,47c.17-3-.5-5.82-.38-8.78a19.78,19.78,0,0,0,10.9,3.48,27.15,27.15,0,0,0,5.9-.23,24.92,24.92,0,0,0,7.28-2.18c.54-.27.91-.71,1-1.82.55,0,.59.62.54,1.4-.19,3.36-.37,6.72-.58,10.08-.23,3.76-.45,7.52-.74,11.27-.12,1.45-.09,3.2-1.1,3.8a17.9,17.9,0,0,1-1.49,1.07,18.21,18.21,0,0,1-6,1.86A23.15,23.15,0,0,1,87,66.62,16,16,0,0,1,81.09,64c-.67-1.41-.57-3.35-1-5a35,35,0,0,1-.2-4.59c0-2.33-.51-4.57-.39-6.94A.53.53,0,0,0,79.22,47Zm15.1,1.67C94,52.13,92.69,53.82,91.16,55a6.35,6.35,0,0,0-2,2.45,2.62,2.62,0,0,0-.44,1.78c.15.63.59.57.93.61,2.16.22,5.07-4,5.48-8A4,4,0,0,0,94.32,48.68Zm-6.15,8.94a6.62,6.62,0,0,1,1.49-2.45c.72-.68,1.46-1.32,2.16-2.07a7.3,7.3,0,0,0,1.79-4.55C91.48,47.77,87.67,53.7,88.17,57.62Z"/><path class="cls-2" d="M34.58,93c-.19.79-.91.39-1,1.49a5.14,5.14,0,0,1-2.66-.9Q21,87.18,11,80.68c-.64,0-1-1.23-1.69-1.19-.56-2.47,0-3.77,1.22-4.23a28,28,0,0,0,4-2.32l1.94-1.13c.14.9.26,1.81.44,2.69a5,5,0,0,0,1.34,3c2.75,2,5.5,3.92,8.25,5.88,1.34,1,2.68,1.9,4,2.92,2.31,1.77,4.69,3.18,6.93,5.21C36.58,92.59,35.45,91.89,34.58,93Z"/><path class="cls-2" d="M24.22,95.87a1.57,1.57,0,0,0,.57,1.4,75.26,75.26,0,0,0,6.12,6.8.71.71,0,0,1,.36.74c-.48.58-1,0-1.42-.13a67.36,67.36,0,0,1-20-11A26.23,26.23,0,0,1,4.23,87.9c-.09-.12-.24-.11-.36-.16h0c0-.71-.2-1-.57-1.07h0l-.18-.38c-.22-1.91.41-2.8,1.21-3.36A12.56,12.56,0,0,1,8.2,81.06c.44-.12.76-.38,1-1.1.26.32.15.86.19,1.29.3,2.84,1,5.06,2.62,5.7a3.94,3.94,0,0,1,.7.5l6.81,4.8Z"/><path class="cls-1" d="M19.5,92.25l-6.81-4.8A3.94,3.94,0,0,0,12,87c-1.65-.64-2.32-2.86-2.62-5.7,0-.43.07-1-.19-1.29.05-.15.11-.31.17-.47.65,0,1.05,1.16,1.69,1.19,0,.41,0,.81.26,1,1.21.83,2.41,1.73,3.62,2.51a6,6,0,0,1,2,1.76l0,.13,0-.14c1.25.56,2,2.22,2.65,4.18C19.74,90.79,20.2,91.57,19.5,92.25Z"/><path class="cls-1" d="M26.52,83.4c-2.75-2-5.5-3.9-8.25-5.88a5,5,0,0,1-1.34-3c-.18-.88-.3-1.79-.44-2.69l0-1.07c.44-.39.66.33,1,.64a3.42,3.42,0,0,0,.29.66,20.29,20.29,0,0,0,4.62,3.62c1.8,1.13,3.61,2.14,4.34,6C27.84,82.64,27,83,26.52,83.4Z"/><path class="cls-2" d="M79.2,37.13a1.29,1.29,0,0,1-.36.72C78.83,37.39,79,37.2,79.2,37.13Z"/><path class="cls-2" d="M81.08,65.09c0-.11,0-.23,0-.35a1.07,1.07,0,0,1,.05,1C81.13,65.55,81.1,65.32,81.08,65.09Z"/><path class="cls-1" d="M56.92,98a5.94,5.94,0,0,1-5.56-2.24c-1.47-1.66-1.71-3.64-1-6.6,1-3.89,2.71-6.12,4.81-7.22,3.21-1.71,6.14-.41,8.51,4.14,2,3.82,1.59,7.64-1,9.82C60.86,97.38,59,98.26,56.92,98Z"/><path class="cls-1" d="M71.67,82.79A10.38,10.38,0,0,1,72,75.38c3.47-7.48,9.57-7.69,13-.23a13.21,13.21,0,0,1,.93,3.23A6.39,6.39,0,0,1,81.32,86a3.85,3.85,0,0,0-.63.27,7.93,7.93,0,0,1-5.6-1l0,0C74,84.05,72.74,83.89,71.67,82.79Z"/><path class="cls-3" d="M26.52,83.4c.48-.45,1.32-.76.17-1.77-.73-3.83-2.54-4.84-4.34-6A20.29,20.29,0,0,1,17.73,72a3.42,3.42,0,0,1-.29-.66l13,8.39c2.06,1.35,4.14,2.65,6.19,4.07a10.08,10.08,0,0,0,5.09,2.06c-.11,0-.16.06-.14.28-.78,1.26-1.54,2.54-2.33,3.76a3.2,3.2,0,0,1-1.74,1.59c-2.24-2-4.62-3.44-6.93-5.21C29.2,85.3,27.86,84.37,26.52,83.4Z"/><path class="cls-1" d="M54.15,79l-1-.2,8.71-5.72c.26-.16.54-.51.75.15C60.34,77.87,57.37,79.06,54.15,79Z"/><path class="cls-3" d="M16.88,86a6,6,0,0,0-2-1.76c-1.21-.78-2.41-1.68-3.62-2.51-.27-.19-.25-.59-.26-1Q21,87.16,31,93.63a5.14,5.14,0,0,0,2.66.9,10.51,10.51,0,0,0,.68,7c-1.26.52-2.35-.2-3.42-.95-2-1.42-4-2.92-6-4.37a3.93,3.93,0,0,0-.62-.3L19.5,92.25c.7-.68.24-1.46,0-2.13-.63-2-1.4-3.62-2.65-4.18Z"/><path class="cls-2" d="M93.22,96.5c-2.19,1.51-4.45,2.48-6.6,4s-4,.22-5.86-1.63c-.38-.39-1.14-.28-1.07-1.34s.81-.79,1.26-1.11c1.14-.8,2.26-1.73,3.42-2.43a4.69,4.69,0,0,1,5.48.19c.87.61,1.78,1,2.68,1.55A1.12,1.12,0,0,1,93.22,96.5Z"/><path class="cls-2" d="M58.67,108.38c3.55-5.12,7.17-4.75,10.8-1.71C68.72,107.38,60.48,108.8,58.67,108.38Z"/><path class="cls-2" d="M31.75,105.12l.06,0-.09.13a.61.61,0,0,1,0-.11S31.73,105.14,31.75,105.12Z"/><path class="cls-1" d="M31.73,68.38c0-.79,0-1.27.48-1.52,1.52-.84,2.91-2.35,4.5-2.89.49-.16.95-.79,1.41-1.25,1.54-1.51,3.08-.89,4.56.22,1.82,1.36,3.77,1.92,5.59,3.26a7.14,7.14,0,0,0,.79.52c.36.2.62.45.59,1.32a2.09,2.09,0,0,1-.52,1.65c-2.47,2.23-4.92,4.52-7.38,6.81-.53.49-1,.66-1.59.14-2.63-2.35-5.26-4.65-7.91-6.93A1.37,1.37,0,0,1,31.73,68.38Z"/><path class="cls-3" d="M94.32,48.68a4,4,0,0,1,.78,3.2c-.41,4-3.32,8.22-5.48,8-.34,0-.78,0-.93-.61a2.62,2.62,0,0,1,.44-1.78,6.35,6.35,0,0,1,2-2.45C92.69,53.82,94,52.13,94.32,48.68Z"/><path class="cls-3" d="M88.17,57.62c-.5-3.92,3.31-9.85,5.44-9.07a7.3,7.3,0,0,1-1.79,4.55c-.7.75-1.44,1.39-2.16,2.07A6.62,6.62,0,0,0,88.17,57.62Z"/><path class="cls-3" d="M16.88,85.94l0,.14,0-.13Z"/></g></g></svg>