<svg xmlns="http://www.w3.org/2000/svg" viewBox="0 0 104.9 107.46"><defs><style>.cls-1{fill:#fff;}.cls-2{fill:#ff817e;}.cls-3{fill:#ff4636;}.cls-4{fill:#f9ff93;}.cls-5{fill:#ff96ed;}.cls-6{fill:#ff99f6;}.cls-7{fill:#60c5ff;}.cls-8{fill:#ff272c;}</style></defs><g id="Capa_2" data-name="Capa 2"><g id="Capa_1-2" data-name="Capa 1"><path class="cls-1" d="M104.64,85.57v21.64h-47l4.75-.4c9.16-.75,18.17-2.28,26.63-6,4.89-2.15,9.58-4.77,12.95-9.17A16.46,16.46,0,0,0,104.64,85.57Z"/><path d="M104.64,82.71v2.86A16.46,16.46,0,0,1,102,91.65c-3.37,4.4-8.06,7-12.95,9.17-8.46,3.71-17.47,5.24-26.63,6l-4.75.4H47.46l-4.85-.41c-9.09-.77-18-2.31-26.45-6A35.79,35.79,0,0,1,4.93,93.68,13.56,13.56,0,0,1,.46,84.07c0-3.36,1.52-6.72,4.63-9.64a30.38,30.38,0,0,1,8.2-5.72c.3-.14.59-.31.92-.48-.48-2-.92-4.06-1.43-6.06a3.89,3.89,0,0,1,.54-3.11,9.66,9.66,0,0,1,4.47-4c.63-.27.73-.58.67-1.22-.21-2-.34-4.07-.47-6.1,0-.48-.08-.8-.65-1-4.94-1.38-7.45-7.66-6-12.33A11.74,11.74,0,0,1,23,26.19c2.26,0,2.27-.05,3.11-2.19a18.23,18.23,0,0,1,5.1-6.91,26.91,26.91,0,0,1,8.9-5.51,1.59,1.59,0,0,0,.86-.85C43.91,2.79,52.08.11,58.68,3.85a1.19,1.19,0,0,0,1-.1,19.8,19.8,0,0,1,8.9-3.2A8.36,8.36,0,0,1,70,.47a1.75,1.75,0,0,1,1.7,1.7A1.76,1.76,0,0,1,70.1,3.91c-.67.1-1.34.15-2,.22-2.32.23-4.21,1.46-6,2.52.72,1.51,1.38,2.91,2.08,4.29a1.55,1.55,0,0,0,.72.61C65.91,12,67,12.4,68,13a26,26,0,0,1,9.55,8.46,19.21,19.21,0,0,1,1.51,3.09c.57,1.43,1,1.74,2.59,1.7A12.1,12.1,0,0,1,91,29.61a10.74,10.74,0,0,1,1.79,13,8.9,8.9,0,0,1-4.92,4.15c-.28.1-.65.43-.67.68-.23,2.4-.39,4.81-.57,7.25a10.21,10.21,0,0,1,5.3,4.56A3.58,3.58,0,0,1,92.32,62c-.5,2-1,4.09-1.45,6.23.36.19.73.4,1.12.58a30.07,30.07,0,0,1,8.66,6.29,12.69,12.69,0,0,1,3.82,7.26A1.26,1.26,0,0,0,104.64,82.71Zm-4.59,5.41c1.9-3.31,1.36-6.93-1.47-10.14a27.13,27.13,0,0,0-8.74-6.15c-.38,1.14-.74,2.21-1.1,3.3a11.19,11.19,0,0,1,1.17.62c2,1.39,4.19,2.52,5.79,4.24,2.61,2.83,2.84,5.1,0,8.13A22.49,22.49,0,0,1,89.14,93c-9.48,4.69-19.73,6.1-30.06,7.07a84.44,84.44,0,0,1-17.83-.51,87.09,87.09,0,0,1-21.16-4.75c-3.64-1.41-7.18-3-10-5.89a17.24,17.24,0,0,1-2.2-2.78,3.57,3.57,0,0,1-.07-3.8,12,12,0,0,1,2.34-3.13,47.9,47.9,0,0,1,4.85-3.34,13.9,13.9,0,0,1,1.32-.72c-.39-1.14-.75-2.17-1.13-3.26A26.82,26.82,0,0,0,6.41,78.1c-2.89,3.33-3.27,7-1.09,10.5a16.3,16.3,0,0,0,3.94,4.34c4.75,3.62,10.29,5.56,15.87,7.27a86.21,86.21,0,0,0,22.36,3.38c11.77.4,23.4-.36,34.69-4.15,4.9-1.65,9.68-3.5,13.85-6.66A15,15,0,0,0,100.05,88.12Zm-6.33-2.85a1.44,1.44,0,0,0,.07-2.11,16.59,16.59,0,0,0-6.35-4.72c-.37.79-.73,1.52-1.07,2.26-1.26,2.78-3,5.23-5.79,6.57a60.79,60.79,0,0,1-8,3.37A60.63,60.63,0,0,1,55.22,93c-8.37.11-16.73-.1-24.71-3.13-1.58-.61-3.17-1.19-4.7-1.91a11.57,11.57,0,0,1-5.27-4.18c-1-1.7-2-3.45-3.16-5.52-1.6,1.18-3.33,2.34-4.93,3.67-2.09,1.74-2.14,2.9.1,4.51a41.87,41.87,0,0,0,7.27,4.35,69.3,69.3,0,0,0,21,5.13,105.28,105.28,0,0,0,32.27-1.39c6.23-1.28,12.24-3.16,17.6-6.72A22.07,22.07,0,0,0,93.72,85.27ZM88.86,41.94c3.37-3.37,1.74-8.67-1.49-10.8a9.12,9.12,0,0,0-5.61-1.46c-3,.16-4.62-.95-5.85-3.72a21.54,21.54,0,0,0-2.34-4.13,19.67,19.67,0,0,0-7.23-5.66c-.5-.25-1-.46-1.64-.74a12.27,12.27,0,0,1-1.91,5.87,12.94,12.94,0,0,1-4.23,4.29,12.08,12.08,0,0,1-5.82,1.59A11,11,0,0,1,45.6,25a12.73,12.73,0,0,1-5.17-9.4,1.59,1.59,0,0,0-.41,0c-4.89,2.23-9,5.28-10.94,10.58a4.81,4.81,0,0,1-3,3.14,8.2,8.2,0,0,1-2.88.34c-4.62-.15-8.22,2.63-8.8,7a6.12,6.12,0,0,0,2.61,6,4.72,4.72,0,0,0,5.95.24c1.31-.86,2.62-.13,2.75,1.45,0,.5,0,1,0,1.53,0,3.58,2.65,8.15,6.65,8.83a9.48,9.48,0,0,0,5.19-.46c1.51-.59,2.46-.06,2.69,1.54a6.48,6.48,0,0,0,3.25,4.81,12.28,12.28,0,0,0,5.22,2c.85.08,1.69.21,2.53.25,3.38.16,6.68-.11,9.71-1.84a7.06,7.06,0,0,0,3.92-5.25c.23-1.58,1.2-2.11,2.72-1.52a8.74,8.74,0,0,0,4.49.55,6.83,6.83,0,0,0,4.35-2,10.73,10.73,0,0,0,3-8.18,2.71,2.71,0,0,1,.95-1.85c.63-.56,1.4-.11,2.06.27a4.62,4.62,0,0,0,6.45-1Zm0,18.75-2.72-2.53-.89,5.64.27.18Zm-4.7,16.39c1.25-3.35,2.37-6.75,3.55-10.14C84.19,68.62,81,70.5,77.53,71.67A68.35,68.35,0,0,1,66.28,74.3a91.69,91.69,0,0,1-21.2.66c-6.52-.47-13-1.24-19.06-3.94-2.29-1-4.53-2.14-6.77-3.25a18.2,18.2,0,0,1-1.62-1c0,.17-.07.24-.05.3a60.89,60.89,0,0,0,5,13.43,8.06,8.06,0,0,0,3.87,3.86,55.73,55.73,0,0,0,8.16,3A80.73,80.73,0,0,0,67,88.2a32.49,32.49,0,0,0,12.15-4.11,11.22,11.22,0,0,0,3-2.92A17.77,17.77,0,0,0,84.19,77.08Zm-.38-29.82-1-.18c-.66,3.59-2,6.8-5,9A11.79,11.79,0,0,1,68,58c-.1.08-.13.1-.14.12l-.26.56A11.36,11.36,0,0,1,60.81,65a26.05,26.05,0,0,1-12.23,1.06,17.67,17.67,0,0,1-6.9-2.3c-2.19-1.35-3.44-3.47-4.53-5.78a11.78,11.78,0,0,1-9.95-1.92c-3-2.2-4.28-5.41-4.93-9l-.79.16a1.72,1.72,0,0,0,0,.36,118.07,118.07,0,0,0,2.24,17.78,1.75,1.75,0,0,0,1.12,1.39c7.42,3.35,15.37,4.25,23.34,4.85a89.79,89.79,0,0,0,11.23-.31c2.23-.11,4.46-.34,6.68-.65a53.46,53.46,0,0,0,14.08-3.78,1.8,1.8,0,0,0,1.25-1.52c.28-1.81.72-3.6,1-5.42C82.88,55.73,83.32,51.51,83.81,47.26ZM59.24,20.19c2.63-3.24,2.52-8.56-.47-11.45-1,1.09-2,2.19-3,3.28s-1.84,1.11-2.66.38-.79-1.72.08-2.69,1.86-2,2.85-3A8.55,8.55,0,0,0,45,10.31a8.87,8.87,0,0,0,2.64,11.6A8.61,8.61,0,0,0,59.24,20.19ZM19.51,63.89l.29-.19-.89-5.53-2.67,2.51Z"/><path class="cls-1" d="M104.64.25V82.71a1.26,1.26,0,0,1-.17-.35,12.69,12.69,0,0,0-3.82-7.26A30.07,30.07,0,0,0,92,68.81c-.39-.18-.76-.39-1.12-.58.49-2.14.95-4.19,1.45-6.23a3.58,3.58,0,0,0-.44-2.73,10.21,10.21,0,0,0-5.3-4.56c.18-2.44.34-4.85.57-7.25,0-.25.39-.58.67-.68a8.9,8.9,0,0,0,4.92-4.15,10.74,10.74,0,0,0-1.79-13,12.1,12.1,0,0,0-9.28-3.4c-1.6,0-2-.27-2.59-1.7a19.21,19.21,0,0,0-1.51-3.09A26,26,0,0,0,68,13c-1-.56-2.11-.92-3.15-1.41a1.55,1.55,0,0,1-.72-.61c-.7-1.38-1.36-2.78-2.08-4.29,1.8-1.06,3.69-2.29,6-2.52.68-.07,1.35-.12,2-.22a1.76,1.76,0,0,0,1.55-1.74A1.75,1.75,0,0,0,70,.47V.25Z"/><path class="cls-2" d="M98.58,78c2.83,3.21,3.37,6.83,1.47,10.14a15,15,0,0,1-4,4.66c-4.17,3.16-9,5-13.85,6.66-11.29,3.79-22.92,4.55-34.69,4.15a86.21,86.21,0,0,1-22.36-3.38C19.55,98.5,14,96.56,9.26,92.94A16.3,16.3,0,0,1,5.32,88.6c-2.18-3.48-1.8-7.17,1.09-10.5a26.82,26.82,0,0,1,8.83-6.26c.38,1.09.74,2.12,1.13,3.26a13.9,13.9,0,0,0-1.32.72,47.9,47.9,0,0,0-4.85,3.34,12,12,0,0,0-2.34,3.13,3.57,3.57,0,0,0,.07,3.8,17.24,17.24,0,0,0,2.2,2.78c2.78,2.86,6.32,4.48,10,5.89a87.09,87.09,0,0,0,21.16,4.75,84.44,84.44,0,0,0,17.83.51c10.33-1,20.58-2.38,30.06-7.07a22.49,22.49,0,0,0,6.59-4.83c2.81-3,2.58-5.3,0-8.13-1.6-1.72-3.83-2.85-5.79-4.24a11.19,11.19,0,0,0-1.17-.62c.36-1.09.72-2.16,1.1-3.3A27.13,27.13,0,0,1,98.58,78Z"/><path class="cls-3" d="M93.79,83.16a1.44,1.44,0,0,1-.07,2.11,22.07,22.07,0,0,1-3,2.56c-5.36,3.56-11.37,5.44-17.6,6.72a105.28,105.28,0,0,1-32.27,1.39,69.3,69.3,0,0,1-21-5.13,41.87,41.87,0,0,1-7.27-4.35c-2.24-1.61-2.19-2.77-.1-4.51,1.6-1.33,3.33-2.49,4.93-3.67,1.18,2.07,2.13,3.82,3.16,5.52A11.57,11.57,0,0,0,25.81,88c1.53.72,3.12,1.3,4.7,1.91,8,3,16.34,3.24,24.71,3.13a60.63,60.63,0,0,0,17.36-2.38,60.79,60.79,0,0,0,8-3.37c2.83-1.34,4.53-3.79,5.79-6.57.34-.74.7-1.47,1.07-2.26A16.59,16.59,0,0,1,93.79,83.16Z"/><path class="cls-4" d="M87.37,31.14c3.23,2.13,4.86,7.43,1.49,10.8a4.62,4.62,0,0,1-6.45,1c-.66-.38-1.43-.83-2.06-.27a2.71,2.71,0,0,0-.95,1.85,10.73,10.73,0,0,1-3,8.18,6.83,6.83,0,0,1-4.35,2,8.74,8.74,0,0,1-4.49-.55c-1.52-.59-2.49-.06-2.72,1.52A7.06,7.06,0,0,1,60.94,61c-3,1.73-6.33,2-9.71,1.84-.84,0-1.68-.17-2.53-.25a12.28,12.28,0,0,1-5.22-2,6.48,6.48,0,0,1-3.25-4.81c-.23-1.6-1.18-2.13-2.69-1.54a9.48,9.48,0,0,1-5.19.46c-4-.68-6.61-5.25-6.65-8.83,0-.51.07-1,0-1.53C25.6,42.71,24.29,42,23,42.84A4.72,4.72,0,0,1,17,42.6a6.12,6.12,0,0,1-2.61-6c.58-4.37,4.18-7.15,8.8-7a8.2,8.2,0,0,0,2.88-.34,4.81,4.81,0,0,0,3-3.14c2-5.3,6.05-8.35,10.94-10.58a1.59,1.59,0,0,1,.41,0A12.73,12.73,0,0,0,45.6,25a11,11,0,0,0,7.14,2.23,12.08,12.08,0,0,0,5.82-1.59,12.94,12.94,0,0,0,4.23-4.29,12.27,12.27,0,0,0,1.91-5.87c.62.28,1.14.49,1.64.74a19.67,19.67,0,0,1,7.23,5.66A21.54,21.54,0,0,1,75.91,26c1.23,2.77,2.85,3.88,5.85,3.72A9.12,9.12,0,0,1,87.37,31.14ZM43.63,46.06A1.71,1.71,0,0,0,42.51,44c-1.12-.45-2.24-.87-3.34-1.35-2.6-1.15-4.89-2.62-6-5.49-.18-.49-.88-.79-1.11-1-1.62,0-2.38,1.08-2,2.33a11,11,0,0,0,3.58,5.07,17.67,17.67,0,0,0,7.91,3.74A1.64,1.64,0,0,0,43.63,46.06Z"/><path class="cls-5" d="M86.17,58.16l2.72,2.53L85.55,64l-.27-.18Z"/><path class="cls-6" d="M87.74,66.94c-1.18,3.39-2.3,6.79-3.55,10.14a17.77,17.77,0,0,1-2,4.09,11.22,11.22,0,0,1-3,2.92A32.49,32.49,0,0,1,67,88.2a80.73,80.73,0,0,1-32.4-.83,55.73,55.73,0,0,1-8.16-3,8.06,8.06,0,0,1-3.87-3.86,60.89,60.89,0,0,1-5-13.43c0-.06,0-.13.05-.3a18.2,18.2,0,0,0,1.62,1C21.49,68.88,23.73,70,26,71c6.06,2.7,12.54,3.47,19.06,3.94a91.69,91.69,0,0,0,21.2-.66,68.35,68.35,0,0,0,11.25-2.63C81,70.5,84.19,68.62,87.74,66.94Z"/><path class="cls-7" d="M82.81,47.08l1,.18c-.49,4.25-.93,8.47-1.47,12.67-.23,1.82-.67,3.61-1,5.42a1.8,1.8,0,0,1-1.25,1.52,53.46,53.46,0,0,1-14.08,3.78c-2.22.31-4.45.54-6.68.65a89.79,89.79,0,0,1-11.23.31c-8-.6-15.92-1.5-23.34-4.85a1.75,1.75,0,0,1-1.12-1.39,118.07,118.07,0,0,1-2.24-17.78,1.72,1.72,0,0,1,0-.36l.79-.16c.65,3.59,1.94,6.8,4.93,9a11.78,11.78,0,0,0,10,1.92c1.09,2.31,2.34,4.43,4.53,5.78a17.67,17.67,0,0,0,6.9,2.3A26.05,26.05,0,0,0,60.81,65a11.36,11.36,0,0,0,6.77-6.32l.26-.56s0,0,.14-.12a11.79,11.79,0,0,0,9.88-1.93C80.86,53.88,82.15,50.67,82.81,47.08Z"/><path class="cls-1" d="M70,.25V.47a8.36,8.36,0,0,0-1.32.08,19.8,19.8,0,0,0-8.9,3.2,1.19,1.19,0,0,1-1,.1C52.08.11,43.91,2.79,41,10.73a1.59,1.59,0,0,1-.86.85,26.91,26.91,0,0,0-8.9,5.51A18.23,18.23,0,0,0,26.15,24c-.84,2.14-.85,2.24-3.11,2.19A11.74,11.74,0,0,0,11.3,34.44c-1.41,4.67,1.1,11,6,12.33.57.16.61.48.65,1,.13,2,.26,4.07.47,6.1.06.64,0,1-.67,1.22a9.66,9.66,0,0,0-4.47,4,3.89,3.89,0,0,0-.54,3.11c.51,2,1,4,1.43,6.06-.33.17-.62.34-.92.48a30.38,30.38,0,0,0-8.2,5.72C2,77.35.46,80.71.46,84.07H.25V.25Z"/><path class="cls-8" d="M58.77,8.74c3,2.89,3.1,8.21.47,11.45a8.61,8.61,0,0,1-11.61,1.72A8.87,8.87,0,0,1,45,10.31,8.55,8.55,0,0,1,56.05,6.7c-1,1-1.94,2-2.85,3s-.87,2-.08,2.69,1.76.6,2.66-.38S57.78,9.83,58.77,8.74Z"/><path class="cls-1" d="M47.46,107.21H.25V84.07H.46a13.56,13.56,0,0,0,4.47,9.61,35.79,35.79,0,0,0,11.23,7.17c8.42,3.64,17.36,5.18,26.45,6Z"/><path d="M42.51,44a1.71,1.71,0,0,1,1.12,2.11,1.64,1.64,0,0,1-2.05,1.2,17.67,17.67,0,0,1-7.91-3.74,11,11,0,0,1-3.58-5.07c-.36-1.25.4-2.34,2-2.33.23.2.93.5,1.11,1,1.06,2.87,3.35,4.34,6,5.49C40.27,43.08,41.39,43.5,42.51,44Z"/><path class="cls-5" d="M19.8,63.7l-.29.19-3.27-3.21,2.67-2.51Z"/></g></g></svg>