<svg xmlns="http://www.w3.org/2000/svg" viewBox="0 0 104.9 107.46"><defs><style>.cls-1{fill:#fff;}.cls-2{fill:#e16000;}.cls-3{fill:#8df1ff;}.cls-4{fill:#f2ff9f;}.cls-5{fill:none;stroke:#000;stroke-miterlimit:10;stroke-width:0.5px;}</style></defs><g id="Capa_2" data-name="Capa 2"><g id="Capa_1-2" data-name="Capa 1"><path class="cls-1" d="M75,9.39c1.47-.5,1.76-1.15,1.27-2.65s-1-3.29-1.65-4.9A7.55,7.55,0,0,0,73.51.25h31.14v107H72.5a8,8,0,0,0,.93-2c.31-2.11.47-4.25.69-6.37q1-10.27,2.11-20.55,1.27-12.4,2.58-24.79c.2-2,.44-4.09.66-6.16,1.52-.08,2.94.12,4.21-.95a4.89,4.89,0,0,0,1.81-5.31c-.45-1.43-2.58-3.61-4.6-3.34a3.17,3.17,0,0,1-1.11,0,1.28,1.28,0,0,1-.78-.58c-.85-2.35-1.67-4.71-2.45-7.1-.46-1.42-.72-1.67-2.22-1.67H57.14c0-4.12,0-8.09,0-12.06a1.11,1.11,0,0,1,.61-.74C61,14.35,64.21,13.17,67.46,12,70,11.11,72.51,10.26,75,9.39Z"/><path class="cls-2" d="M76.37,47.36q-2.93,28.27-5.85,56.53H34.58L28.72,47.36Z"/><path class="cls-3" d="M72.11,7.16c-5,1.73-10.06,3.45-15.07,5.2a14.78,14.78,0,0,0-2.18,1c-.75.38-.79,1.11-.79,1.85,0,3.94,0,7.88,0,11.81V28.3h-3c0-.36-.06-.7-.06-1.06,0-4,0-7.95,0-11.92,0-3.11.95-4.45,3.85-5.45C59.62,8.23,64.36,6.61,69.08,5c1-.34,2-.82,3-1.26.35,1.11.65,2.06,1,3.09C72.72,6.92,72.42,7.05,72.11,7.16Z"/><path class="cls-1" d="M32.6,107.2H.25V.25H72.5a1.73,1.73,0,0,1-.34.21Q65.69,2.81,59.21,5.14C57.4,5.79,55.56,6.38,53.74,7c-4,1.41-5.74,3.86-5.77,8.1,0,3.49,0,7,0,10.5v2.73H46.78c-5.39,0-10.79,0-16.17,0a1.75,1.75,0,0,0-2,1.25c-.79,2.41-1.63,4.81-2.4,7.23a1.08,1.08,0,0,1-1.29.91,4.58,4.58,0,0,0-3.5.91c-1.75,1.47-2.5,3.3-1.85,5.28a5.07,5.07,0,0,0,4.67,3.37H25.6c0,.24.07.36.08.49q1,9.56,2,19.12,2,19,3.92,38.08A2.8,2.8,0,0,0,32.6,107.2Z"/><path class="cls-4" d="M32.1,38.79A1.54,1.54,0,0,0,33.45,41a8.47,8.47,0,0,0,1,0H80.32c1.58,0,2.31.46,2.34,1.49s-.74,1.56-2.35,1.56H24.77c-1.61,0-2.37-.51-2.34-1.57S23.2,41,24.77,41H25.9c2.13,0,2.32-.17,3-2.23S30.31,34.46,31,32.3a.81.81,0,0,1,.92-.68l41.7,0,.25.06,2.07,6H34.06C33.19,37.73,32.46,37.83,32.1,38.79Z"/><path d="M73.62,31.64l-41.7,0a.81.81,0,0,0-.92.68c-.69,2.16-1.43,4.31-2.12,6.47S28,41,25.9,41H24.77c-1.57,0-2.3.45-2.34,1.48s.73,1.57,2.34,1.57H80.31c1.61,0,2.38-.5,2.35-1.56S81.9,41,80.32,41H34.46a8.47,8.47,0,0,1-1,0,1.54,1.54,0,0,1-1.35-2.19c.36-1,1.09-1.06,2-1.06H75.94l-2.07-6Zm-3.1,72.25q2.92-28.31,5.85-56.53H28.72l5.86,56.53ZM75,9.39c-2.53.87-5.06,1.72-7.58,2.62-3.25,1.16-6.47,2.34-9.69,3.55a1.11,1.11,0,0,0-.61.74c0,4,0,7.94,0,12.06H74.33c1.5,0,1.76.25,2.22,1.67.78,2.39,1.6,4.75,2.45,7.1a1.28,1.28,0,0,0,.78.58,3.17,3.17,0,0,0,1.11,0c2-.27,4.15,1.91,4.6,3.34a4.89,4.89,0,0,1-1.81,5.31c-1.27,1.07-2.69.87-4.21.95-.22,2.07-.46,4.12-.66,6.16q-1.31,12.4-2.58,24.79-1.07,10.27-2.11,20.55c-.22,2.12-.38,4.26-.69,6.37a8,8,0,0,1-.93,2H32.6a2.8,2.8,0,0,1-1-2.2q-2-19.05-3.92-38.08-1-9.56-2-19.12c0-.13-.05-.25-.08-.49H24.28a5.07,5.07,0,0,1-4.67-3.37c-.65-2,.1-3.81,1.85-5.28a4.58,4.58,0,0,1,3.5-.91,1.08,1.08,0,0,0,1.29-.91c.77-2.42,1.61-4.82,2.4-7.23a1.75,1.75,0,0,1,2-1.25c5.38,0,10.78,0,16.17,0H48V25.63c0-3.5,0-7,0-10.5,0-4.24,1.78-6.69,5.77-8.1,1.82-.65,3.66-1.24,5.47-1.89Q65.69,2.82,72.16.46A1.73,1.73,0,0,0,72.5.25h1a7.55,7.55,0,0,1,1.15,1.59c.62,1.61,1.11,3.27,1.65,4.9S76.51,8.89,75,9.39Zm-18,3c5-1.75,10.05-3.47,15.07-5.2.31-.11.61-.24,1-.38-.34-1-.64-2-1-3.09-1,.44-2,.92-3,1.26-4.72,1.66-9.46,3.28-14.2,4.92C52,10.87,51,12.21,51,15.32c0,4,0,8,0,11.92,0,.36,0,.7.06,1.06h3V27c0-3.93,0-7.87,0-11.81,0-.74,0-1.47.79-1.85A14.78,14.78,0,0,1,57,12.36Z"/><path class="cls-5" d="M32.6,107.2H.25V.25H72.5"/><path class="cls-5" d="M73.51.25h31.14v107H72.5"/><path class="cls-5" d="M73.51.25a7.55,7.55,0,0,1,1.15,1.59c.62,1.61,1.11,3.27,1.65,4.9s.2,2.15-1.27,2.65c-2.53.87-5.06,1.72-7.58,2.62-3.25,1.16-6.47,2.34-9.69,3.55a1.11,1.11,0,0,0-.61.74c0,4,0,7.94,0,12.06H74.33c1.5,0,1.76.25,2.22,1.67.78,2.39,1.6,4.75,2.45,7.1a1.28,1.28,0,0,0,.78.58,3.17,3.17,0,0,0,1.11,0c2-.27,4.15,1.91,4.6,3.34a4.89,4.89,0,0,1-1.81,5.31c-1.27,1.07-2.69.87-4.21.95-.22,2.07-.46,4.12-.66,6.16q-1.31,12.4-2.58,24.79-1.07,10.27-2.11,20.55c-.22,2.12-.38,4.26-.69,6.37a8,8,0,0,1-.93,2H32.6a2.8,2.8,0,0,1-1-2.2q-2-19.05-3.92-38.08-1-9.56-2-19.12c0-.13-.05-.25-.08-.49H24.28a5.07,5.07,0,0,1-4.67-3.37c-.65-2,.1-3.81,1.85-5.28a4.58,4.58,0,0,1,3.5-.91,1.08,1.08,0,0,0,1.29-.91c.77-2.42,1.61-4.82,2.4-7.23a1.75,1.75,0,0,1,2-1.25c5.38,0,10.78,0,16.17,0H48V25.63c0-3.5,0-7,0-10.5,0-4.24,1.78-6.69,5.77-8.1,1.82-.65,3.66-1.24,5.47-1.89Q65.69,2.82,72.16.46A1.73,1.73,0,0,0,72.5.25Z"/><path class="cls-5" d="M28.72,47.36H76.37q-2.93,28.27-5.85,56.53H34.58Z"/><path class="cls-5" d="M73.87,31.7l2.07,6H34.06c-.87,0-1.6.1-2,1.06A1.54,1.54,0,0,0,33.45,41a8.47,8.47,0,0,0,1,0H80.32c1.58,0,2.31.46,2.34,1.49s-.74,1.56-2.35,1.56H24.77c-1.61,0-2.37-.51-2.34-1.57S23.2,41,24.77,41H25.9c2.13,0,2.32-.17,3-2.23S30.31,34.46,31,32.3a.81.81,0,0,1,.92-.68l41.7,0Z"/><path class="cls-5" d="M72.07,3.69c.35,1.11.65,2.06,1,3.09-.34.14-.64.27-1,.38-5,1.73-10.06,3.45-15.07,5.2a14.78,14.78,0,0,0-2.18,1c-.75.38-.79,1.11-.79,1.85,0,3.94,0,7.88,0,11.81V28.3h-3c0-.36-.06-.7-.06-1.06,0-4,0-7.95,0-11.92,0-3.11.95-4.45,3.85-5.45C59.62,8.23,64.36,6.61,69.08,5,70.09,4.61,71,4.13,72.07,3.69Z"/></g></g></svg>