<svg xmlns="http://www.w3.org/2000/svg" viewBox="0 0 104.4 106.96"><defs><style>.cls-1{fill:#e16000;}</style></defs><g id="Capa_2" data-name="Capa 2"><g id="Capa_1-2" data-name="Capa 1"><path d="M104.39,96.28c.13,4.86-4.87,9.54-11.18,10.47-7.47,1.09-13.71-2.14-16.52-8.52a4.86,4.86,0,0,0-.42-.53c-14.52,0-29.26,0-44,.06a4.55,4.55,0,0,0-3,1.69A29.14,29.14,0,0,0,27,104c-.84,1.68-1.8,3.55-4.74,2.57-2.57-.86-1.81-2.58-1-4.21Q28.65,87.79,36,73.19c.5-1,.94-2,1.47-3.14-9.68-4.7-16-11.26-19.69-19.47-.35-.79-2.13-1.59-3.34-1.67-3.63-.22-7.32.09-10.93-.2-1.24-.1-2.34-1.36-3.49-2.09,1.19-.82,2.32-2.24,3.61-2.34,3.88-.32,7.83-.11,11.53-.11.36-.42.64-.59.63-.75-.41-6.26-.41-6.23,7.92-6.23q36.27,0,72.51,0c6.77,0,7.21.43,6.45,5.69-1.71,11.77-9,20.86-22,27.42,2.46,4.76,4.85,9.5,7.42,14.17a3.77,3.77,0,0,0,2.44,1.3C99.39,86.9,104.22,90.51,104.39,96.28Zm-13.92,5.91c4.32,0,7.88-2.63,7.82-5.87,0-3.09-3.41-5.68-7.56-5.8s-8,2.52-8,5.73S86.07,102.15,90.47,102.19ZM59.76,69.85c20-.7,37.09-13.61,36.47-27.79H22C23.22,57.79,40.66,70.53,59.76,69.85Zm17.9,22.29C79.43,90.51,81,88.75,82.74,87c-2.48-4.73-5-9.55-7.68-14.68A58.93,58.93,0,0,1,43,72.19c-3.5,7-6.88,13.74-10.43,20.81,14.65,0,28.66,0,42.69,0A4.09,4.09,0,0,0,77.66,92.14Z"/><path d="M98.29,96.32c.06,3.24-3.5,5.9-7.82,5.87s-7.82-2.66-7.78-5.94,3.77-5.86,8-5.73S98.25,93.23,98.29,96.32Z"/><path class="cls-1" d="M96.23,42.06c.62,14.18-16.45,27.09-36.47,27.79C40.66,70.53,23.22,57.79,22,42.06ZM42.44,57.48c-.56-1.07-.71-2.6-1.74-3.13-3.25-1.69-5.12-3.85-5.83-6.81-.23-.95-1.37-1.78-2.81-3.55-1.48,1.82-2.76,2.74-3,3.78-.66,3.43,4.57,9.62,9,10.54C39.34,58.58,41,57.78,42.44,57.48Z"/><path d="M84.7,9c-.18,1.06.13,2.66-.63,3.09-4.69,2.58-3.5,5.22-1,8.39,4,5.2,3,9.12-2.63,12.28A30.58,30.58,0,0,1,77.54,34c-.85-.49-2.13-.86-2.38-1.49s-.2-2.25.45-2.57c5.52-2.87,3.32-5.85.83-9.18-3.56-4.75-1.94-9.58,3.88-12C81.4,8.28,83.21,8.86,84.7,9Z"/><path d="M64,1.74A2.11,2.11,0,0,1,63.41,4c-8.09,4.08-5.35,8.57-1.54,13.61,4.61,6.11,2.75,11.68-4.57,15.17-1.17.55-3.16.06-4.77,0,.36-1.21.2-2.81,1.16-3.57,5.87-4.64,6.05-5.21,1.7-11.18-5.47-7.48-4.33-13.1,3.47-17C59.67.73,60.57.45,61.71,0,62.53.6,63.69,1.06,64,1.74Z"/><path d="M38.72,9.07c1.14-.6,3.15-.21,4.75-.26-.28,1.22,0,3-.93,3.58-3.5,2.2-3.39,4.33-1.24,7.1A33.14,33.14,0,0,1,44.41,25c-.28,4.37-2.61,6.64-6,8.14-1,.43-2.73-.17-4.12-.29.2-1.09-.13-2.73.66-3.17,4.81-2.66,3.19-5.35.86-8.44C32,16.24,33,12,38.72,9.07Z"/><path d="M40.7,54.35c1,.53,1.18,2.06,1.74,3.13-1.47.3-3.1,1.1-4.37.83-4.41-.92-9.64-7.11-9-10.54.21-1,1.49-2,3-3.78,1.44,1.77,2.58,2.6,2.81,3.55C35.58,50.5,37.45,52.66,40.7,54.35Z"/></g></g></svg>