<svg xmlns="http://www.w3.org/2000/svg" viewBox="0 0 107.39 109.95"><defs><style>.cls-1{fill:#e16000;}.cls-2{fill:#ff4602;}.cls-3{fill:#00d531;}.cls-4{fill:#ff7b78;}.cls-5{fill:none;stroke:#000;stroke-miterlimit:10;stroke-width:3px;}</style></defs><g id="Capa_2" data-name="Capa 2"><g id="Capa_1-2" data-name="Capa 1"><path class="cls-1" d="M103.93,40.6a51.34,51.34,0,0,1,1.8,18.32A53,53,0,0,1,95,87.71a52,52,0,0,1-22.62,17.2,51.07,51.07,0,0,1-43.79-3.07A52.47,52.47,0,0,1,9.4,83.22,54,54,0,0,1,2.56,65.79a55.19,55.19,0,0,1,4.7-35.25A52.79,52.79,0,0,1,27.18,8.93,51.15,51.15,0,0,1,44.82,2.24,51.76,51.76,0,0,1,80,8.78,49.76,49.76,0,0,1,96.23,24.14c1.94,2.94,3.46,6.17,5.17,9.27l.28.49,1.73-.24a4.25,4.25,0,0,1,0,1.62C102.63,37.17,103.42,38.87,103.93,40.6ZM96.85,65c0-.17-.26-.56-.48-.64-1.86-.7-3.73-1.35-5.6-2-.25-.09-.5-.14-.94-.25A17.15,17.15,0,0,1,91.9,77.42c.15,0,.2,0,.21-.06A40.71,40.71,0,0,0,96.85,65ZM94.12,38.54c.62-.38.6-.68.35-1.26a45.61,45.61,0,0,0-11.61-16.4,43.67,43.67,0,0,0-37-10.58,43.56,43.56,0,0,0-22.5,11.63A45.5,45.5,0,0,0,11.47,41.17c-.27.84-.44,1.72-.66,2.59a1,1,0,0,0,.63-.3,30.31,30.31,0,0,1,11.88-7.05c.27-.08.49-.14.67-.21l.5,1.45a25.17,25.17,0,0,0-4.71,2.07,3.75,3.75,0,0,0-2,2,10.13,10.13,0,0,0,1.28-.19c3.16-.86,6.3-1.79,9.47-2.62A33,33,0,0,1,42.7,38C50,39.23,56.82,41.85,63.57,44.8L71,48l.33-.39c-.21-.1-.42-.19-.62-.31l1.17-.45a5.82,5.82,0,0,0,4.56.7,46.58,46.58,0,0,0,8.08-3.13C87.83,42.69,90.91,40.49,94.12,38.54ZM88.5,81.78c4.37-5.94,4.89-12.35,1.33-18.94a4,4,0,0,0-1.5-1.43c-1-.58-2.08-.95-3.08-1.5-1.89-1-3.69-2.24-5.63-3.16a6.77,6.77,0,0,0-8.9,2.58c-.54.81-.3,1.49.64,1.55.62,0,.83.34.81.87A4.82,4.82,0,0,0,73.28,65a2.44,2.44,0,0,1,.07,1.76c0,.15-.87.22-1.3.14-.91-.16-1.79-.45-2.83-.72,5.9,6.52,6.91,13.59,2.9,21.44a4.14,4.14,0,0,0,.95.28,39.24,39.24,0,0,0,4.85,0A14.72,14.72,0,0,0,88.5,81.78ZM66.29,98.5A42.79,42.79,0,0,0,86.42,85.32,16.64,16.64,0,0,1,72,87.8C66.21,96,57.52,96.21,53.4,94.43c.6.08,1.43.2,2.26.29a15.45,15.45,0,0,0,13.87-5.43,16.94,16.94,0,0,0,1.23-20.82,11.47,11.47,0,0,0-2.68-2.83c-1.9-1.33-4-2.39-5.92-3.63a2.6,2.6,0,0,0-2.73-.33C56.24,63,53,64,49.79,65.16c.56.18,1.25.44,2,.6a1.62,1.62,0,0,1,1.42,1.92A5.7,5.7,0,0,0,54,71.11,16.59,16.59,0,0,1,54.76,73c.36,1,0,1.41-1,1.23-.6-.11-1.18-.3-1.79-.45-.28,7.83-3.91,13-9.71,15.75-4.18,2-9.45,1.83-12.16.38A15.63,15.63,0,0,0,45.36,86.5a16.17,16.17,0,0,0,5.69-13c-2-.51-3.84-1-5.68-1.49a22.23,22.23,0,0,1-8-3.84,2.48,2.48,0,0,0-2.17-.54,5.47,5.47,0,0,1-1.06.12c-2.85-.12-5.72-.09-8.56-.43a27.79,27.79,0,0,1-10-2.9c-1.92-1-3.74-2.24-5.65-3.39,1.26,14,12,32.3,32.51,37.89A42.16,42.16,0,0,0,66.29,98.5ZM14.64,49.66A2.6,2.6,0,0,0,11.94,47a3,3,0,0,0-3.09,2.89,2.8,2.8,0,0,0,2.82,2.59A3,3,0,0,0,14.64,49.66Z"/><path class="cls-2" d="M96.37,64.36c.22.08.52.47.48.64a40.71,40.71,0,0,1-4.74,12.36s-.06,0-.21.06A17.15,17.15,0,0,0,89.83,62.1c.44.11.69.16.94.25C92.64,63,94.51,63.66,96.37,64.36Z"/><path class="cls-3" d="M94.47,37.28c.25.58.27.88-.35,1.26-3.21,2-6.29,4.15-9.61,5.9a46.58,46.58,0,0,1-8.08,3.13,5.82,5.82,0,0,1-4.56-.7c-.15-.07-.29-.16-.43-.24,1.73.14,3.44.43,5.16-.51l-1-1c0-.07,0-.15.08-.23.36.15.74.29,1.09.46,1.68.85,3.25.44,4-1.14A12,12,0,0,0,81,42.61a1.66,1.66,0,0,1,.57-1c1.21-.69,2.47-1.28,3.72-1.91l-5.46-1.23v-.34L81,37.52l-6.55-2a5,5,0,0,0-.81-4.81l1.71-1.41a2.17,2.17,0,0,1-.07-.24H72.51l6.33-5.78-7,1.14-.13-.31,1-1c-.93.07-1.66.1-2.38.17-1.55.16-3.1.35-4.65.5A2,2,0,0,1,65,23.6c-.68-.19-1.36-.38-2-.6-.49-.17-1-.55-1.46-.53a17.54,17.54,0,0,0-3.06.47A1.19,1.19,0,0,1,57,22.48a4.16,4.16,0,0,0-5.24-1.64c1.1-2.37,2.12-4.53,3.08-6.6l-9,2.85c.2-.78.36-1.38.59-2.27l-11.7,7.43c-.18-.85-.36-1.69-.58-2.74a13.3,13.3,0,0,0-1.89.94c-4.75,3.31-7.43,7.82-7.41,13.83,0,1.36,0,1.61-.85,1.92-.18.07-.4.13-.67.21a30.31,30.31,0,0,0-11.88,7.05,1,1,0,0,1-.63.3c.22-.87.39-1.75.66-2.59A45.5,45.5,0,0,1,23.34,21.93,43.56,43.56,0,0,1,45.84,10.3a43.67,43.67,0,0,1,37,10.58A45.61,45.61,0,0,1,94.47,37.28Z"/><path class="cls-2" d="M89.83,62.84c3.56,6.59,3,13-1.33,18.94a14.72,14.72,0,0,1-10.58,6.08,39.24,39.24,0,0,1-4.85,0,4.14,4.14,0,0,1-.95-.28c4-7.85,3-14.92-2.9-21.44,1,.27,1.92.56,2.83.72.43.08,1.27,0,1.3-.14A2.44,2.44,0,0,0,73.28,65a4.82,4.82,0,0,1-1.11-3.21c0-.53-.19-.82-.81-.87-.94-.06-1.18-.74-.64-1.55a6.77,6.77,0,0,1,8.9-2.58c1.94.92,3.74,2.13,5.63,3.16,1,.55,2.1.92,3.08,1.5A4,4,0,0,1,89.83,62.84Z"/><path class="cls-4" d="M85.27,39.72c-1.25.63-2.51,1.22-3.72,1.91a1.66,1.66,0,0,0-.57,1,12,12,0,0,1-.24,1.64c-.73,1.58-2.3,2-4,1.14-.35-.17-.73-.31-1.09-.46,0,.08,0,.16-.08.23l1,1c-1.72.94-3.43.65-5.16.51.14.08.28.17.43.24l-1.17.45c-1.28-.78-2.52-1.63-3.84-2.35a71,71,0,0,0-14.18-6A64.75,64.75,0,0,0,42,36.53a66.21,66.21,0,0,0-11-.06,25.52,25.52,0,0,0-6.5,1.18L24,36.2c.88-.31.86-.56.85-1.92,0-6,2.66-10.52,7.41-13.83a13.3,13.3,0,0,1,1.89-.94c.22,1,.4,1.89.58,2.74l11.7-7.43c-.23.89-.39,1.49-.59,2.27l9-2.85c-1,2.07-2,4.23-3.08,6.6A4.16,4.16,0,0,1,57,22.48a1.19,1.19,0,0,0,1.49.46,17.54,17.54,0,0,1,3.06-.47c.48,0,1,.36,1.46.53.67.22,1.35.41,2,.6a2,2,0,0,0,.74.16c1.55-.15,3.1-.34,4.65-.5.72-.07,1.45-.1,2.38-.17l-1,1,.13.31,7-1.14L72.51,29h2.74a2.17,2.17,0,0,0,.07.24l-1.71,1.41a5,5,0,0,1,.81,4.81l6.55,2-1.16.63v.34Zm-8.36,1.57c.38-.63.79-1,.75-1.32s-.52-.61-.81-.91c-.27.3-.75.58-.75.88S76.49,40.65,76.91,41.29Zm-6-9.66c.23.05.56-.4,1.1-.82-.59-.4-.94-.81-1.26-.79s-.75.6-.7.82A1.28,1.28,0,0,0,70.92,31.63Zm-2,8.39c.35-.58.75-1,.69-1.22s-.51-.63-.79-.94c-.27.31-.75.61-.77.93S68.52,39.45,68.94,40ZM63.28,25.61c.19.07.56-.39,1.09-.79-.56-.41-.89-.83-1.21-.83s-.55.48-.83.75C62.64,25.05,62.91,25.47,63.28,25.61ZM61.45,36.4c-.58,0-.9,0-1.22.08s-.66.13-1.12.22L60,37.81Zm-2.31-5.2c.32,0,.83-.54.81-.81a1.32,1.32,0,0,0-.82-.86c-.21-.07-.58.38-1.12.77C58.55,30.75,58.87,31.24,59.14,31.2Zm-4.66-8.86c-.49-.42-.78-.86-1.13-.91s-.83.54-.78.69a1.68,1.68,0,0,0,.79,1C53.54,23.19,54,22.71,54.48,22.34ZM38.21,23.91c.06-.17-.57-.84-.74-.78a1.7,1.7,0,0,0-.94.87c-.08.16.32.57.64,1.08C37.65,24.58,38.08,24.3,38.21,23.91Z"/><path class="cls-2" d="M86.42,85.32A42.79,42.79,0,0,1,66.29,98.5a42.16,42.16,0,0,1-23.87.4C21.92,93.31,11.17,75,9.91,61c1.91,1.15,3.73,2.36,5.65,3.39a27.79,27.79,0,0,0,10,2.9c2.84.34,5.71.31,8.56.43a5.47,5.47,0,0,0,1.06-.12,2.48,2.48,0,0,1,2.17.54,22.23,22.23,0,0,0,8,3.84c1.84.53,3.7,1,5.68,1.49a16.17,16.17,0,0,1-5.69,13A15.63,15.63,0,0,1,30.1,89.86c2.71,1.45,8,1.6,12.16-.38,5.8-2.76,9.43-7.92,9.71-15.75.61.15,1.19.34,1.79.45,1,.18,1.36-.27,1-1.23A16.59,16.59,0,0,0,54,71.11a5.7,5.7,0,0,1-.81-3.43,1.62,1.62,0,0,0-1.42-1.92c-.72-.16-1.41-.42-2-.6C53,64,56.24,63,59.43,61.68a2.6,2.6,0,0,1,2.73.33c2,1.24,4,2.3,5.92,3.63a11.47,11.47,0,0,1,2.68,2.83,16.94,16.94,0,0,1-1.23,20.82,15.45,15.45,0,0,1-13.87,5.43c-.83-.09-1.66-.21-2.26-.29C57.52,96.21,66.21,96,72,87.8A16.64,16.64,0,0,0,86.42,85.32Z"/><path class="cls-3" d="M71.32,47.63,71,48,63.57,44.8C56.82,41.85,50,39.23,42.7,38a33,33,0,0,0-14.12,1c-3.17.83-6.31,1.76-9.47,2.62a10.13,10.13,0,0,1-1.28.19,3.75,3.75,0,0,1,2-2,25.17,25.17,0,0,1,4.71-2.07A25.52,25.52,0,0,1,31,36.47a66.21,66.21,0,0,1,11,.06,64.75,64.75,0,0,1,10.69,2.41,71,71,0,0,1,14.18,6c1.32.72,2.56,1.57,3.84,2.35C70.9,47.44,71.11,47.53,71.32,47.63Z"/><path d="M11.94,47a2.6,2.6,0,0,1,2.7,2.64,3,3,0,0,1-3,2.84,2.8,2.8,0,0,1-2.82-2.59A3,3,0,0,1,11.94,47Zm1.44,2.65a1.47,1.47,0,0,0-1.59-1.4,1.6,1.6,0,0,0-1.62,1.52,1.48,1.48,0,0,0,1.57,1.42A1.71,1.71,0,0,0,13.38,49.67Z"/><path d="M11.79,48.27a1.47,1.47,0,0,1,1.59,1.4,1.71,1.71,0,0,1-1.64,1.54,1.48,1.48,0,0,1-1.57-1.42A1.6,1.6,0,0,1,11.79,48.27Z"/><path class="cls-5" d="M101.68,33.9l1.73-.24a4.25,4.25,0,0,1,0,1.62c-.82,1.89,0,3.59.48,5.32a51.34,51.34,0,0,1,1.8,18.32A53,53,0,0,1,95,87.71a52,52,0,0,1-22.62,17.2,51.07,51.07,0,0,1-43.79-3.07A52.47,52.47,0,0,1,9.4,83.22,54,54,0,0,1,2.56,65.79a55.19,55.19,0,0,1,4.7-35.25A52.79,52.79,0,0,1,27.18,8.93,51.15,51.15,0,0,1,44.82,2.24,51.76,51.76,0,0,1,80,8.78,49.76,49.76,0,0,1,96.23,24.14c1.94,2.94,3.46,6.17,5.17,9.27Z"/><path class="cls-5" d="M9.91,61c1.26,14,12,32.3,32.51,37.89a42.16,42.16,0,0,0,23.87-.4A42.79,42.79,0,0,0,86.42,85.32,16.64,16.64,0,0,1,72,87.8C66.21,96,57.52,96.21,53.4,94.43c.6.08,1.43.2,2.26.29a15.45,15.45,0,0,0,13.87-5.43,16.94,16.94,0,0,0,1.23-20.82,11.47,11.47,0,0,0-2.68-2.83c-1.9-1.33-4-2.39-5.92-3.63a2.6,2.6,0,0,0-2.73-.33C56.24,63,53,64,49.79,65.16c.56.18,1.25.44,2,.6a1.62,1.62,0,0,1,1.42,1.92A5.7,5.7,0,0,0,54,71.11,16.59,16.59,0,0,1,54.76,73c.36,1,0,1.41-1,1.23-.6-.11-1.18-.3-1.79-.45-.28,7.83-3.91,13-9.71,15.75-4.18,2-9.45,1.83-12.16.38A15.63,15.63,0,0,0,45.36,86.5a16.17,16.17,0,0,0,5.69-13c-2-.51-3.84-1-5.68-1.49a22.23,22.23,0,0,1-8-3.84,2.48,2.48,0,0,0-2.17-.54,5.47,5.47,0,0,1-1.06.12c-2.85-.12-5.72-.09-8.56-.43a27.79,27.79,0,0,1-10-2.9C13.64,63.37,11.82,62.16,9.91,61Z"/><path class="cls-5" d="M24,36.2c.88-.31.86-.56.85-1.92,0-6,2.66-10.52,7.41-13.83a13.3,13.3,0,0,1,1.89-.94c.22,1,.4,1.89.58,2.74l11.7-7.43c-.23.89-.39,1.49-.59,2.27l9-2.85c-1,2.07-2,4.23-3.08,6.6A4.16,4.16,0,0,1,57,22.48a1.19,1.19,0,0,0,1.49.46,17.54,17.54,0,0,1,3.06-.47c.48,0,1,.36,1.46.53.67.22,1.35.41,2,.6a2,2,0,0,0,.74.16c1.55-.15,3.1-.34,4.65-.5.72-.07,1.45-.1,2.38-.17l-1,1,.13.31,7-1.14L72.51,29h2.74a2.17,2.17,0,0,0,.07.24l-1.71,1.41a5,5,0,0,1,.81,4.81l6.55,2-1.16.63v.34l5.46,1.23c-1.25.63-2.51,1.22-3.72,1.91a1.66,1.66,0,0,0-.57,1,12,12,0,0,1-.24,1.64c-.73,1.58-2.3,2-4,1.14-.35-.17-.73-.31-1.09-.46,0,.08,0,.16-.08.23l1,1c-1.72.94-3.43.65-5.16.51.14.08.28.17.43.24a5.82,5.82,0,0,0,4.56.7,46.58,46.58,0,0,0,8.08-3.13c3.32-1.75,6.4-3.95,9.61-5.9.62-.38.6-.68.35-1.26a45.61,45.61,0,0,0-11.61-16.4,43.67,43.67,0,0,0-37-10.58,43.56,43.56,0,0,0-22.5,11.63A45.5,45.5,0,0,0,11.47,41.17c-.27.84-.44,1.72-.66,2.59a1,1,0,0,0,.63-.3,30.31,30.31,0,0,1,11.88-7.05C23.59,36.33,23.81,36.27,24,36.2Z"/><path class="cls-5" d="M72.12,87.58a4.14,4.14,0,0,0,.95.28,39.24,39.24,0,0,0,4.85,0A14.72,14.72,0,0,0,88.5,81.78c4.37-5.94,4.89-12.35,1.33-18.94a4,4,0,0,0-1.5-1.43c-1-.58-2.08-.95-3.08-1.5-1.89-1-3.69-2.24-5.63-3.16a6.77,6.77,0,0,0-8.9,2.58c-.54.81-.3,1.49.64,1.55.62,0,.83.34.81.87A4.82,4.82,0,0,0,73.28,65a2.44,2.44,0,0,1,.07,1.76c0,.15-.87.22-1.3.14-.91-.16-1.79-.45-2.83-.72C75.12,72.66,76.13,79.73,72.12,87.58Z"/><path class="cls-5" d="M24.49,37.65a25.17,25.17,0,0,0-4.71,2.07,3.75,3.75,0,0,0-2,2,10.13,10.13,0,0,0,1.28-.19c3.16-.86,6.3-1.79,9.47-2.62A33,33,0,0,1,42.7,38C50,39.23,56.82,41.85,63.57,44.8L71,48l.33-.39c-.21-.1-.42-.19-.62-.31-1.28-.78-2.52-1.63-3.84-2.35a71,71,0,0,0-14.18-6A64.75,64.75,0,0,0,42,36.53a66.21,66.21,0,0,0-11-.06A25.52,25.52,0,0,0,24.49,37.65Z"/><path class="cls-5" d="M91.9,77.42c.15,0,.2,0,.21-.06A40.71,40.71,0,0,0,96.85,65c0-.17-.26-.56-.48-.64-1.86-.7-3.73-1.35-5.6-2-.25-.09-.5-.14-.94-.25A17.15,17.15,0,0,1,91.9,77.42Z"/><path class="cls-5" d="M11.94,47a3,3,0,0,0-3.09,2.89,2.8,2.8,0,0,0,2.82,2.59,3,3,0,0,0,3-2.84A2.6,2.6,0,0,0,11.94,47Z"/><path class="cls-5" d="M68.94,40c.35-.58.75-1,.69-1.22s-.51-.63-.79-.94c-.27.31-.75.61-.77.93S68.52,39.45,68.94,40Z"/><path class="cls-5" d="M37.17,25.08c.48-.5.91-.78,1-1.17.06-.17-.57-.84-.74-.78a1.7,1.7,0,0,0-.94.87C36.45,24.16,36.85,24.57,37.17,25.08Z"/><path class="cls-5" d="M76.91,41.29c.38-.63.79-1,.75-1.32s-.52-.61-.81-.91c-.27.3-.75.58-.75.88S76.49,40.65,76.91,41.29Z"/><path class="cls-5" d="M54.48,22.34c-.49-.42-.78-.86-1.13-.91s-.83.54-.78.69a1.68,1.68,0,0,0,.79,1C53.54,23.19,54,22.71,54.48,22.34Z"/><path class="cls-5" d="M64.37,24.82c-.56-.41-.89-.83-1.21-.83s-.55.48-.83.75c.31.31.58.73,1,.87C63.47,25.68,63.84,25.22,64.37,24.82Z"/><path class="cls-5" d="M58,30.3c.54.45.86.94,1.13.9s.83-.54.81-.81a1.32,1.32,0,0,0-.82-.86C58.92,29.46,58.55,29.91,58,30.3Z"/><path class="cls-5" d="M72,30.81c-.59-.4-.94-.81-1.26-.79s-.75.6-.7.82a1.28,1.28,0,0,0,.86.79C71.15,31.68,71.48,31.23,72,30.81Z"/><path class="cls-5" d="M61.45,36.4c-.58,0-.9,0-1.22.08s-.66.13-1.12.22L60,37.81Z"/><path class="cls-5" d="M11.79,48.27a1.47,1.47,0,0,1,1.59,1.4,1.71,1.71,0,0,1-1.64,1.54,1.48,1.48,0,0,1-1.57-1.42A1.6,1.6,0,0,1,11.79,48.27Z"/></g></g></svg>