<svg xmlns="http://www.w3.org/2000/svg" viewBox="0 0 104.9 107.46"><defs><style>.cls-1{fill:#fff;}.cls-2{fill:#ccc;}.cls-3{fill:#a46a00;}</style></defs><g id="Capa_2" data-name="Capa 2"><g id="Capa_1-2" data-name="Capa 1"><path class="cls-1" d="M90.39,36.75l-.24.28a8.84,8.84,0,0,0-1.45-3c.28-.34.54-.65.79-1,1.06-1.28,2.1-2.55,3.17-3.83A19.15,19.15,0,0,0,96.53,20c.18-1.1.75-1.76,1.4-1.66,1,.14,1.55,1.81,1,3.2A3.46,3.46,0,0,0,98.74,23c.1,1.24.79,2,1.58,1.71a1.21,1.21,0,0,1,.67-.1c.72.14,1.2,1.13,1.15,2.24s-.65,2-1.37,2C98.24,28.72,96,29.9,94,32.38,92.8,33.86,91.59,35.3,90.39,36.75Z"/><path class="cls-1" d="M91.84,6.25c0-3-1.42-5.48-3.3-5.92a.9.9,0,0,1-.21-.08h16.32V25.89a21.15,21.15,0,0,0-.46-2.11A4.6,4.6,0,0,0,102,20.84c-.26-.14-.33-.34-.34-.76-.09-2.59-1.15-4.75-2.7-5.49s-3.4.2-4.33,2.39l-.83-.21a7.7,7.7,0,0,0,.6-1.49c1.06-3.4,0-7.41-2.33-8.54C91.91,6.66,91.84,6.56,91.84,6.25Z"/><path class="cls-2" d="M2.88,93.14H91.52a15,15,0,0,1-.63,3.19c-1.45,4.42-3.73,6.85-6.87,6.85q-36.87.06-73.72,0c-3.53,0-6.69-4.13-7.38-9.62C2.91,93.45,2.9,93.32,2.88,93.14Z"/><path d="M65.07,61.23c1.69,6,6,9.33,10,7.91a10,10,0,0,0,4.89-4.5,63.61,63.61,0,0,0,6.94-16.12,30.72,30.72,0,0,0,1.22-7.15c.1-2.85-.65-4.59-2.39-5.26a15.71,15.71,0,0,0-2.44-.57s0,.08,0,.12A15.52,15.52,0,0,0,77.74,37a28.21,28.21,0,0,0-9.07,5.93C64.61,46.87,63.14,54.41,65.07,61.23ZM15.23,89.12l61.24,0a.67.67,0,0,0,.47-.25,45.9,45.9,0,0,0,3.73-5.28,39.59,39.59,0,0,0,3.9-8.23A25.3,25.3,0,0,0,86,67.71,51,51,0,0,0,85.63,61c0-.24-.06-.47-.09-.72-.06.06-.08.07-.08.09s-.11.24-.17.34a47.4,47.4,0,0,1-4.46,8c-2.87,4-6.19,5.47-9.93,4.32C63.8,70.88,59.76,58.61,62.63,48c0-.15.08-.29.12-.46l-.26-.1c-1-.49-2.06-.9-3.07-1.46a49.06,49.06,0,0,1-6.71-5c-4.13-3.4-8.44-5.9-13.09-6.69a21.54,21.54,0,0,0-9.35.22c-5.55,1.51-10,5.81-13.29,13.16a57.4,57.4,0,0,0-4.54,27.42,63.36,63.36,0,0,0,2.34,13.54C14.88,89,15,89.12,15.23,89.12ZM10.3,103.21q36.86,0,73.72,0c3.14,0,5.42-2.43,6.87-6.85a15,15,0,0,0,.63-3.19H2.88c0,.18,0,.31,0,.45C3.61,99.08,6.77,103.21,10.3,103.21ZM90.15,37l.24-.28c1.2-1.45,2.41-2.89,3.61-4.37,2-2.48,4.24-3.66,6.77-3.6.72,0,1.31-.84,1.37-2s-.43-2.1-1.15-2.24a1.21,1.21,0,0,0-.67.1c-.79.28-1.48-.47-1.58-1.71A3.46,3.46,0,0,1,99,21.51c.51-1.39,0-3.06-1-3.2-.65-.1-1.22.56-1.4,1.66a19.15,19.15,0,0,1-3.87,9.24c-1.07,1.28-2.11,2.55-3.17,3.83-.25.32-.51.63-.79,1A8.84,8.84,0,0,1,90.15,37ZM92.24,12c-.22-1.1-.94-1.68-1.68-1.37S89,10.2,88.9,8.91a3.36,3.36,0,0,1,.23-1.43,3.09,3.09,0,0,0,0-2.22c-.27-.7-.69-1-1.19-1S86.85,4.94,86.67,6a19,19,0,0,1-3.92,9.26c-1.06,1.26-2.11,2.55-3.16,3.82l-.73.89a8.75,8.75,0,0,1,1.45,3c.1-.12.18-.2.25-.3,1.29-1.54,2.57-3.11,3.86-4.65a9.35,9.35,0,0,1,3.34-2.65A7.62,7.62,0,0,1,91,14.73C91.89,14.72,92.51,13.34,92.24,12ZM45.43,32A33.7,33.7,0,0,1,52,36a2.2,2.2,0,0,0,.25.17c.18-.76.34-1.51.53-2.24a17.7,17.7,0,0,1,5-8.81,28.2,28.2,0,0,1,13.79-7.35,8.82,8.82,0,0,1,4.47.21.41.41,0,0,0,.34-.14c1.68-2,3.37-4,5-6.1a14.29,14.29,0,0,0,2.75-6.69c.47-2.7,1.55-4.32,3.31-4.76,0,0,.06,0,.1-.06h.7a.9.9,0,0,0,.21.08c1.88.44,3.25,2.89,3.3,5.92,0,.31.07.41.24.49,2.28,1.13,3.39,5.14,2.33,8.54a7.7,7.7,0,0,1-.6,1.49,3.21,3.21,0,0,1-2.83,2,6.71,6.71,0,0,0-5.4,2.9c-1.36,1.73-2.74,3.4-4.15,5a2.5,2.5,0,0,0-.72,2.05c0,.06,0,.12,0,.18-.13,1-.25,2.06-.37,3.12l.22,0A10.56,10.56,0,0,1,86,32a.38.38,0,0,0,.34-.16c1.57-1.89,3.12-3.81,4.7-5.67a14.87,14.87,0,0,0,3.12-7.34A9.12,9.12,0,0,1,94.64,17c.93-2.19,2.64-3.21,4.33-2.39s2.61,2.9,2.7,5.49c0,.42.08.62.34.76a4.6,4.6,0,0,1,2.18,2.94,21.15,21.15,0,0,1,.46,2.11v1.56c0,.13-.05.26-.07.4A6.61,6.61,0,0,1,102.67,32a3.12,3.12,0,0,1-2.23.78,6,6,0,0,0-4.66,2.47c-1.67,2-3.32,4-5,6a1.07,1.07,0,0,0-.21.58,35.49,35.49,0,0,1-.93,6.34,61.65,61.65,0,0,1-2.2,7.24,1.41,1.41,0,0,0-.07.64,44.21,44.21,0,0,1,1,7.17,45.59,45.59,0,0,1,0,6,32.22,32.22,0,0,1-1.84,8.62,46.72,46.72,0,0,1-5.63,10.89c-.06.09-.15.13-.23.21a1,1,0,0,1,.08.15h12c.84,0,1.37.87,1.35,2.22,0,.39,0,.8,0,1.2-.33,6.58-3.32,12.35-7.32,14.06a19,19,0,0,1-1.94.62H9.55a.6.6,0,0,0-.21-.08C5,106.42,1.5,101.48.51,94.77.4,94,.34,93.19.25,92.4V90.66c.26-1.17.8-1.57,1.56-1.56,3.32,0,6.64,0,10,0h.37c-.05-.18-.07-.31-.1-.44a68.46,68.46,0,0,1-2.18-20.9c.55-10.44,3-19.66,7.64-27.19,3.13-5.06,7-8.16,11.31-9.66A20.38,20.38,0,0,1,37.26,30,25.36,25.36,0,0,1,45.43,32Zm11.93,8.24a19.19,19.19,0,0,0,6.58,3.58c.18,0,.28,0,.4-.22a15,15,0,0,1,2-3,21.63,21.63,0,0,1,3.37-3.16,31.35,31.35,0,0,1,7.48-4.36c.18-.07.28-.19.33-.48.1-.57.24-1.12.34-1.69A19.71,19.71,0,0,0,78.22,26a4.41,4.41,0,0,0-1.59-3.54,5.13,5.13,0,0,0-.72-.41,5.58,5.58,0,0,0-2.72-.41,5.47,5.47,0,0,0-.57,0c-.27,0-.54.06-.81.1a21.77,21.77,0,0,0-7.06,2.7,27.23,27.23,0,0,0-6,4.43,15.58,15.58,0,0,0-4.12,8.8c0,.27,0,.4.15.52C55.66,38.89,56.5,39.59,57.36,40.26Z"/><path class="cls-1" d="M90.56,10.59c.74-.31,1.46.27,1.68,1.37.27,1.38-.35,2.76-1.26,2.77a7.62,7.62,0,0,0-3.22.66A9.35,9.35,0,0,0,84.42,18c-1.29,1.54-2.57,3.11-3.86,4.65-.07.1-.15.18-.25.3a8.75,8.75,0,0,0-1.45-3l.73-.89c1-1.27,2.1-2.56,3.16-3.82A19,19,0,0,0,86.67,6c.18-1.06.64-1.7,1.26-1.73s.92.29,1.19,1a3.09,3.09,0,0,1,0,2.22,3.36,3.36,0,0,0-.23,1.43C89,10.2,89.73,10.93,90.56,10.59Z"/><path class="cls-3" d="M83.27,35.54a15.71,15.71,0,0,1,2.44.57c1.74.67,2.49,2.41,2.39,5.26a30.72,30.72,0,0,1-1.22,7.15,63.61,63.61,0,0,1-6.94,16.12,10,10,0,0,1-4.89,4.5c-4,1.42-8.29-2-10-7.91-1.93-6.82-.46-14.36,3.6-18.33A28.21,28.21,0,0,1,77.74,37a15.52,15.52,0,0,1,5.52-1.31S83.27,35.58,83.27,35.54Z"/><path class="cls-1" d="M94.15,91.33c0-1.35-.51-2.22-1.35-2.22h-12a1,1,0,0,0-.08-.15c.08-.08.17-.12.23-.21a46.72,46.72,0,0,0,5.63-10.89,32.22,32.22,0,0,0,1.84-8.62,45.59,45.59,0,0,0,0-6,44.21,44.21,0,0,0-1-7.17,1.41,1.41,0,0,1,.07-.64,61.65,61.65,0,0,0,2.2-7.24,35.49,35.49,0,0,0,.93-6.34,1.07,1.07,0,0,1,.21-.58c1.65-2,3.3-4,5-6a6,6,0,0,1,4.66-2.47,3.12,3.12,0,0,0,2.23-.78,6.61,6.61,0,0,0,1.91-4.17c0-.14,0-.27.07-.4v79.76H84.85a19,19,0,0,0,1.94-.62c4-1.71,7-7.48,7.32-14.06C94.13,92.13,94.14,91.72,94.15,91.33Z"/><path class="cls-1" d="M94.11,18.87A14.87,14.87,0,0,1,91,26.21c-1.58,1.86-3.13,3.78-4.7,5.67A.38.38,0,0,1,86,32,10.56,10.56,0,0,0,80.54,32l-.22,0c.12-1.06.24-2.09.37-3.12,0-.06,0-.12,0-.18a2.5,2.5,0,0,1,.72-2.05c1.41-1.63,2.79-3.3,4.15-5a6.71,6.71,0,0,1,5.4-2.9,3.21,3.21,0,0,0,2.83-2l.83.21A9.12,9.12,0,0,0,94.11,18.87Z"/><path class="cls-3" d="M66.34,40.58a15,15,0,0,0-2,3c-.12.21-.22.26-.4.22a19.19,19.19,0,0,1-6.58-3.58c-.86-.67-1.7-1.37-2.55-2-.17-.12-.2-.25-.15-.52a15.58,15.58,0,0,1,4.12-8.8,27.23,27.23,0,0,1,6-4.43,21.77,21.77,0,0,1,7.06-2.7c.27,0,.54-.08.81-.1a5.47,5.47,0,0,1,.57,0,5.58,5.58,0,0,1,2.72.41,5.13,5.13,0,0,1,.72.41A4.41,4.41,0,0,1,78.22,26a19.71,19.71,0,0,1-.36,4.87c-.1.57-.24,1.12-.34,1.69,0,.29-.15.41-.33.48a31.35,31.35,0,0,0-7.48,4.36A21.63,21.63,0,0,0,66.34,40.58Z"/><path class="cls-3" d="M28.11,48.12a2.89,2.89,0,0,0,.07-2.44c-.33-.76-.94-1.09-1.49-.7a17.3,17.3,0,0,0-2.24,1.74C18.91,52,16.11,59.86,15.82,70c0,.6,0,1.2,0,1.78,0,.38,0,.75,0,1.13a2.46,2.46,0,0,0,.59,1.67.85.85,0,0,0,1.31,0,2.5,2.5,0,0,0,.61-2,34.42,34.42,0,0,1,2.35-15,18.9,18.9,0,0,1,6.78-8.88A1.94,1.94,0,0,0,28.11,48.12ZM62.63,48C59.76,58.61,63.8,70.88,70.9,73.1c3.74,1.15,7.06-.36,9.93-4.32a47.4,47.4,0,0,0,4.46-8c.06-.1.11-.22.17-.34s0,0,.08-.09c0,.25.07.48.09.72A51,51,0,0,1,86,67.71a25.3,25.3,0,0,1-1.39,7.63,39.59,39.59,0,0,1-3.9,8.23,45.9,45.9,0,0,1-3.73,5.28.67.67,0,0,1-.47.25l-61.24,0c-.23,0-.35-.13-.45-.46a63.36,63.36,0,0,1-2.34-13.54A57.4,57.4,0,0,1,17,47.7c3.24-7.35,7.74-11.65,13.29-13.16a21.54,21.54,0,0,1,9.35-.22c4.65.79,9,3.29,13.09,6.69a49.06,49.06,0,0,0,6.71,5c1,.56,2,1,3.07,1.46l.26.1C62.71,47.74,62.68,47.88,62.63,48Z"/><path d="M26.69,45c.55-.39,1.16-.06,1.49.7a2.89,2.89,0,0,1-.07,2.44,1.94,1.94,0,0,1-.61.63,18.9,18.9,0,0,0-6.78,8.88,34.42,34.42,0,0,0-2.35,15,2.5,2.5,0,0,1-.61,2,.85.85,0,0,1-1.31,0,2.46,2.46,0,0,1-.59-1.67c0-.38,0-.75,0-1.13,0-.58,0-1.18,0-1.78.29-10.17,3.09-18,8.63-23.31A17.3,17.3,0,0,1,26.69,45Z"/><path class="cls-1" d="M52.81,34c-.19.73-.35,1.48-.53,2.24A2.2,2.2,0,0,1,52,36a33.7,33.7,0,0,0-6.6-4,25.36,25.36,0,0,0-8.17-2,20.38,20.38,0,0,0-8.46.91c-4.35,1.5-8.18,4.6-11.31,9.66-4.67,7.53-7.09,16.75-7.64,27.19A68.46,68.46,0,0,0,12,88.67c0,.13.05.26.1.44h-.37c-3.31,0-6.63,0-9.95,0-.76,0-1.3.39-1.56,1.56V.25H87.63s-.07.06-.1.06c-1.76.44-2.84,2.06-3.31,4.76a14.29,14.29,0,0,1-2.75,6.69c-1.67,2.06-3.36,4.07-5,6.1a.41.41,0,0,1-.34.14,8.82,8.82,0,0,0-4.47-.21,28.2,28.2,0,0,0-13.79,7.35A17.7,17.7,0,0,0,52.81,34Z"/><path class="cls-1" d="M9.34,107.13a.6.6,0,0,1,.21.08H.25V92.4c.09.79.15,1.58.26,2.37C1.5,101.48,5,106.42,9.34,107.13Z"/></g></g></svg>