<svg xmlns="http://www.w3.org/2000/svg" viewBox="0 0 104.9 107.46"><defs><style>.cls-1{fill:#fff;}.cls-2{fill:#c33e00;}.cls-3{fill:#f9ff93;}.cls-4{fill:#0cc900;}</style></defs><g id="Capa_2" data-name="Capa 2"><g id="Capa_1-2" data-name="Capa 1"><path class="cls-1" d="M104.65,53.58v53.63H52.49V107a51.9,51.9,0,0,0,21-4.53,52.62,52.62,0,0,0,12.77-8.29A53.61,53.61,0,0,0,99.52,76.41a49.38,49.38,0,0,0,4.78-19.12c.07-1.25.1-2.48.1-3.71Z"/><path class="cls-1" d="M104.65.25V53.58h-.25a51.31,51.31,0,0,0-5.92-24.65A54.83,54.83,0,0,0,84.41,11.57,51.17,51.17,0,0,0,61.59,1.09c-2-.37-4-.56-6-.84Z"/><path class="cls-2" d="M81.4,67.59a3.51,3.51,0,0,1-2.51-4c.47-4.23,1-8.45,1.52-12.67.16-1.3.29-2.61.46-3.91A2.17,2.17,0,0,1,81.16,46c.46-.49,1-1.16,1.58-1.16A2.06,2.06,0,0,1,84.26,46a17.28,17.28,0,0,1,.65,3.54c.4,2.66.78,5.31,1.12,8,.28,2.17.52,4.32.83,7C87.25,66.62,83.64,68.44,81.4,67.59Z"/><path class="cls-3" d="M61.34,74.44a21.61,21.61,0,0,0,.27-7.87c-.09-.61,0-.94.65-1.14A18.13,18.13,0,0,1,72.73,65c-1.26,1-2.54,1.8-3.71,2.79a19,19,0,0,0-5.29,6.69,2.47,2.47,0,0,0-.19.56Z"/><path class="cls-3" d="M61.43,85.6a5.88,5.88,0,0,1-.73.43c0-.61,0-1.07,0-1.54.06-1.72.33-3.48-.82-5-.13-.16,0-.59.07-.85a21.32,21.32,0,0,0,1.39-4.2l2.2.58a2,2,0,0,0,2.18,2.55,2.54,2.54,0,0,0,1.59-1.21,18.79,18.79,0,0,1,7.88-7.72c.46-.26.72-.2,1,.24a2.44,2.44,0,0,0,.66.76c1.32.8,1.46,2.14,1.5,3.5a18.08,18.08,0,0,1-1.1,7.15,17.28,17.28,0,0,1-.94,1.78c-1.34-1.36-2.87-2.25-4.4-1.15-1.25.89-2.1,2.4-3.19,3.7l-.78-1a2.24,2.24,0,0,0-3.56-.54C63.36,83.89,62.42,84.77,61.43,85.6Z"/><path class="cls-4" d="M62.59,29.57c1.63,1,2.16.92,3.7-.56,1.48,2.43,2.94,4.82,4.41,7.25-2.43,2-4.67,3.9-7,5.67a7.78,7.78,0,0,0-3.16,8.53A8,8,0,0,0,67.22,57a7.15,7.15,0,0,0,7.4-2.77c.4-.5.78-1,1.16-1.54l.16.12c-.33,2.75-.66,5.49-1,8.2a29.24,29.24,0,0,0-4.57-.76c-2.32,0-4.64.27-7,.4a4.32,4.32,0,0,1-1.42-.2,9.46,9.46,0,0,1-5-4,28.41,28.41,0,0,0-3.9-3.85A4.91,4.91,0,0,1,52,51.31C51,49,50,46.61,49.08,44.25c-.29-.72,0-1.1.59-1.48,3-1.76,5.95-3.56,8.93-5.34.6-.37,1.26-.63,1.86-1A2.17,2.17,0,0,0,61,32.9a15.27,15.27,0,0,0-7-4.53c-.29-.09-.59-.16-.88-.24a4.4,4.4,0,0,1,5.27-1C59.72,27.94,61.16,28.73,62.59,29.57Z"/><path class="cls-2" d="M57.82,14.91c3.51,2.2,5.67,6.4,4.87,9.72-5.21-3.08-10.37-6.15-15.57-9.24C49.69,13,54.5,12.81,57.82,14.91Z"/><path d="M51.4,71.87a2,2,0,0,1-2-2.05,2,2,0,0,1,1.94-2.07,2,2,0,0,1,2,2A2,2,0,0,1,51.4,71.87Z"/><path class="cls-1" d="M46,28.54c-.18-.54-.28-.83-.37-1.12a14.59,14.59,0,0,0-4.34-6.54L42.84,18l8.47,5c.27.16.53.34.56.36-1.51,1.51-3,3-4.49,4.46A7.9,7.9,0,0,1,46,28.54Z"/><path class="cls-1" d="M46.25,49.47,43.34,49c-.52-2.23-.47-2.33,1.58-3.37C45.34,46.84,45.78,48.09,46.25,49.47Z"/><path d="M43.3,79.28a2,2,0,0,1-2-2,2,2,0,1,1,4-.06A2,2,0,0,1,43.3,79.28Z"/><path class="cls-1" d="M51.4,71.87a2,2,0,0,0,2-2.14,2,2,0,0,0-2-2,2,2,0,0,0-1.94,2.07A2,2,0,0,0,51.4,71.87Zm-8.1,7.41a2,2,0,0,0,2-2.08,2,2,0,1,0-4,.06A2,2,0,0,0,43.3,79.28Zm-5-14.48a2,2,0,1,0,2-2A2,2,0,0,0,38.26,64.8Zm-6.08,7.79a2.08,2.08,0,1,0,0-4.16,2.08,2.08,0,0,0,0,4.16Zm9.24,13.75a16.61,16.61,0,0,1,0-33.2A16.27,16.27,0,0,1,57.6,69.73C57.61,79,50.45,86.43,41.42,86.34Z"/><path d="M40.15,67a2,2,0,0,1-1.89-2.16,2,2,0,0,1,2-2A2.08,2.08,0,0,1,40.15,67Z"/><path class="cls-2" d="M23.24,27.83c1-3.36,5-6,8.94-5.9s8,2.62,8.91,5.9Z"/><path d="M32.15,68.43a2.08,2.08,0,1,1,0,4.16,2.08,2.08,0,0,1,0-4.16Z"/><path class="cls-3" d="M21.52,42.61c.07-1.41,0-2.83,0-4.52.78.63,1.42,1.13,2,1.65s1.21,1.11,1.87,1.58a2.2,2.2,0,0,0,3.26-.57l1.08-1.38c1.33,2.53,2.38,5.32,5.92,4.06.7,2,.1,4.69,2.8,5.69a21.76,21.76,0,0,0-9,3.79c-1-1.48-2.12-2.87-3-4.37-.82-1.34-1.82-1.89-2.94-1.29a2,2,0,0,0-1.09,2.14l-2.94.22A7.89,7.89,0,0,0,18,46.2c.54-.26,1-.53,1.53-.72A3,3,0,0,0,21.52,42.61Z"/><path class="cls-3" d="M22.41,49.39a3.06,3.06,0,0,0,.4,1.07c.91,1.53,2,2.93,3,4.37a6.68,6.68,0,0,0,.64.73c-.75,1.08-1.44,2.09-2.17,3.08-.13.17-.46.38-.61.34-2.59-.93-5.2-1.88-6.7-4.55A2.35,2.35,0,0,1,16.8,54a1.82,1.82,0,0,1-.11-.42c1.19-.73,2.48-1.48,2.75-3.13a3.18,3.18,0,0,0,0-.81Z"/><path class="cls-1" d="M22.19,34a3.34,3.34,0,0,0-1.25-.24V32.21H39.59a25.37,25.37,0,0,0-2.4,4.06,4,4,0,0,1-2.8,2.6c-.8-1.57-1.71-3.09-3.38-3.76-1.87-.76-3.24.4-4.31,1.41A31.87,31.87,0,0,0,22.19,34Z"/><path d="M43.34,49l2.91.52c-.47-1.38-.91-2.63-1.33-3.89C42.87,46.62,42.82,46.72,43.34,49ZM62.69,24.63c.8-3.32-1.36-7.52-4.87-9.72-3.32-2.1-8.13-1.92-10.7.48C52.32,18.48,57.48,21.55,62.69,24.63ZM61.61,66.57a21.61,21.61,0,0,1-.27,7.87A21.32,21.32,0,0,1,60,78.64c-.11.26-.2.69-.07.85,1.15,1.52.88,3.28.82,5,0,.47,0,.93,0,1.54a5.88,5.88,0,0,0,.73-.43c1-.83,1.93-1.71,2.95-2.51a2.24,2.24,0,0,1,3.56.54l.78,1c1.09-1.3,1.94-2.81,3.19-3.7,1.53-1.1,3.06-.21,4.4,1.15a17.28,17.28,0,0,0,.94-1.78,18.08,18.08,0,0,0,1.1-7.15c0-1.36-.18-2.7-1.5-3.5a2.44,2.44,0,0,1-.66-.76c-.28-.44-.54-.5-1-.24a18.79,18.79,0,0,0-7.88,7.72,2.54,2.54,0,0,1-1.59,1.21A2,2,0,0,1,63.54,75a2.47,2.47,0,0,1,.19-.56A19,19,0,0,1,69,67.77c1.17-1,2.45-1.84,3.71-2.79a18.13,18.13,0,0,0-10.47.45C61.65,65.63,61.52,66,61.61,66.57ZM61,32.9a2.17,2.17,0,0,1-.49,3.52c-.6.38-1.26.64-1.86,1-3,1.78-5.94,3.58-8.93,5.34-.63.38-.88.76-.59,1.48C50,46.61,51,49,52,51.31a4.91,4.91,0,0,0,1.17,1.37A28.41,28.41,0,0,1,57,56.53a9.46,9.46,0,0,0,5,4,4.32,4.32,0,0,0,1.42.2c2.32-.13,4.64-.42,7-.4a29.24,29.24,0,0,1,4.57.76c.32-2.71.65-5.45,1-8.2l-.16-.12c-.38.52-.76,1-1.16,1.54A7.15,7.15,0,0,1,67.22,57a8,8,0,0,1-6.69-6.58,7.78,7.78,0,0,1,3.16-8.53c2.34-1.77,4.58-3.69,7-5.67-1.47-2.43-2.93-4.82-4.41-7.25-1.54,1.48-2.07,1.52-3.7.56-1.43-.84-2.87-1.63-4.29-2.46a4.4,4.4,0,0,0-5.27,1c.29.08.59.15.88.24A15.27,15.27,0,0,1,61,32.9ZM25.3,69.75A16.24,16.24,0,0,0,41.42,86.34c9,.09,16.19-7.34,16.18-16.61a16.16,16.16,0,1,0-32.3,0ZM17,54.43c1.5,2.67,4.11,3.62,6.7,4.55.15,0,.48-.17.61-.34.73-1,1.42-2,2.17-3.08a6.68,6.68,0,0,1-.64-.73c-1-1.44-2.13-2.84-3-4.37a3.06,3.06,0,0,1-.4-1.07,2,2,0,0,1,1.09-2.14c1.12-.6,2.12,0,2.94,1.29.91,1.5,2,2.89,3,4.37a21.76,21.76,0,0,1,9-3.79c-2.7-1-2.1-3.67-2.8-5.69-3.54,1.26-4.59-1.53-5.92-4.06L28.7,40.75a2.2,2.2,0,0,1-3.26.57c-.66-.47-1.24-1.06-1.87-1.58s-1.26-1-2-1.65c0,1.69.06,3.11,0,4.52a3,3,0,0,1-2,2.87c-.5.19-1,.46-1.53.72a7.89,7.89,0,0,1,1.44,3.41,3.18,3.18,0,0,1,0,.81c-.27,1.65-1.56,2.4-2.75,3.13a1.82,1.82,0,0,0,.11.42A2.35,2.35,0,0,0,17,54.43Zm3.93-20.69a3.34,3.34,0,0,1,1.25.24,31.87,31.87,0,0,1,4.51,2.54c1.07-1,2.44-2.17,4.31-1.41,1.67.67,2.58,2.19,3.38,3.76a4,4,0,0,0,2.8-2.6,25.37,25.37,0,0,1,2.4-4.06H20.73c-2.38,0-3.12-1-2.57-3.43,1.32-5.85,6.9-10.92,13.05-11.23a14.22,14.22,0,0,1,10,3.33,14.59,14.59,0,0,1,4.34,6.54c.09.29.19.58.37,1.12a7.9,7.9,0,0,0,1.42-.81c1.51-1.44,3-2.95,4.49-4.46,0,0-.29-.2-.56-.36l-8.47-5a.13.13,0,0,0-.06-.05c-1.88-1.12-2.06-2.45-.59-4.11a14,14,0,0,1,16.27-3.45c5.49,2.53,8.26,7,8.58,13.17a2.08,2.08,0,0,0,.51,1.13c1.44,1.86,3,3.64,4.39,5.52.8,1.07,1.47,2.26,2.24,3.44L76.24,32c2.69-2.12,6.78-2.61,9.59,1.78a6,6,0,0,1-.32,5.82,12.2,12.2,0,0,0-.69,1.14,16.59,16.59,0,0,1,1.45.81A7.15,7.15,0,0,1,89,46.64c.68,5.69,1.37,11.37,2,17.06a7.75,7.75,0,0,1-5.36,8c-1,.29-2.07.45-3,.67-.2,2-.25,4.07-.61,6.06A17.59,17.59,0,0,1,80.51,83c-1.58,3.3-3.75,4-6.87,2.39-3.52,4.78-4.49,5-8,2.19-.71.57-1.43,1.18-2.2,1.73A4.93,4.93,0,0,1,60,90.43a3.67,3.67,0,0,1-3.48-3.51c-.13-.93-.15-1.86-.22-2.77-8.17,7.51-17,8.73-26.38,2.68C24,83,19.06,74.12,22.23,63c-.7-.29-1.39-.59-2.11-.86a13,13,0,0,1-5.66-4.13c-2.71-3.41-2.53-5.78.61-8.6-.31-.64-.68-1.26-1-1.92-.93-2.36-.18-4.34,2.13-5.21.92-.35,1.07-.84,1-1.75a17.89,17.89,0,0,1,.19-3.73A3.62,3.62,0,0,1,20.94,33.74ZM81.4,67.59c2.24.85,5.85-1,5.46-3.07-.31-2.69-.55-4.84-.83-7-.34-2.66-.72-5.31-1.12-8A17.28,17.28,0,0,0,84.26,46a2.06,2.06,0,0,0-1.52-1.18c-.54,0-1.12.67-1.58,1.16a2.17,2.17,0,0,0-.29,1.07c-.17,1.3-.3,2.61-.46,3.91-.51,4.22-1,8.44-1.52,12.67A3.51,3.51,0,0,0,81.4,67.59ZM23.24,27.83H41.09c-.91-3.28-4.82-5.84-8.91-5.9C28.24,21.87,24.24,24.47,23.24,27.83Z"/><path d="M14.89,17.32a2,2,0,1,1,4,.06,2,2,0,0,1-2,2.08A2.07,2.07,0,0,1,14.89,17.32Z"/><path d="M23,13.11a1.8,1.8,0,0,1-.84-2.06,3.48,3.48,0,0,1,1.2-1.67A46.82,46.82,0,0,1,37.18,2.56,47.59,47.59,0,0,1,48.38.42a5.19,5.19,0,0,0,.76-.17h6.41c2,.28,4.05.47,6,.84A51.17,51.17,0,0,1,84.41,11.57,54.83,54.83,0,0,1,98.48,28.93a51.31,51.31,0,0,1,5.92,24.65c0,1.23,0,2.46-.1,3.71a49.38,49.38,0,0,1-4.78,19.12A53.61,53.61,0,0,1,86.25,94.18a52.62,52.62,0,0,1-12.77,8.29,51.9,51.9,0,0,1-21,4.53,51.67,51.67,0,0,1-32-11.2A55.56,55.56,0,0,1,7.32,80.41,51.38,51.38,0,0,1,.43,57.87c0-.31-.13-.6-.18-.91V50.29c.27-2,.48-4,.8-6a51.29,51.29,0,0,1,5.37-16c.85-1.6,1.89-3.08,2.87-4.59a2,2,0,0,1,3-.77,2.15,2.15,0,0,1,.37,3A63.77,63.77,0,0,0,7.1,37.34,42.43,42.43,0,0,0,4.54,48.82,45.81,45.81,0,0,0,6.17,67.16C8.79,75.66,13,83.29,19.38,89.35a47.19,47.19,0,0,0,37.43,13.22A47.21,47.21,0,0,0,85.07,89.45c6.54-6,10.65-13.63,13.3-22.21a46.93,46.93,0,0,0,1.8-18.16,39.5,39.5,0,0,0-1.15-7C96.69,33.56,93,25.75,86.81,19.43A48,48,0,0,0,73.19,9.32a47,47,0,0,0-38.5-1.4,45.33,45.33,0,0,0-9.28,5A2,2,0,0,1,23,13.11Z"/><path class="cls-1" d="M29.92,86.83c9.35,6,18.21,4.83,26.38-2.68.07.91.09,1.84.22,2.77A3.67,3.67,0,0,0,60,90.43a4.93,4.93,0,0,0,3.45-1.11c.77-.55,1.49-1.16,2.2-1.73,3.5,2.86,4.47,2.59,8-2.19,3.12,1.59,5.29.91,6.87-2.39A17.59,17.59,0,0,0,82,78.4c.36-2,.41-4.06.61-6.06,1-.22,2-.38,3-.67a7.75,7.75,0,0,0,5.36-8c-.63-5.69-1.32-11.37-2-17.06a7.15,7.15,0,0,0-2.72-5.14,16.59,16.59,0,0,0-1.45-.81,12.2,12.2,0,0,1,.69-1.14,6,6,0,0,0,.32-5.82c-2.81-4.39-6.9-3.9-9.59-1.78L74.18,33.6c-.77-1.18-1.44-2.37-2.24-3.44-1.43-1.88-3-3.66-4.39-5.52A2.08,2.08,0,0,1,67,23.51c-.32-6.18-3.09-10.64-8.58-13.17a14,14,0,0,0-16.27,3.45c-1.47,1.66-1.29,3,.59,4.11a.13.13,0,0,1,.06.05l-1.59,2.93a14.22,14.22,0,0,0-10-3.33c-6.15.31-11.73,5.38-13,11.23-.55,2.4.19,3.41,2.57,3.43h.21v1.53a3.62,3.62,0,0,0-3.46,3.1,17.89,17.89,0,0,0-.19,3.73c0,.91-.12,1.4-1,1.75-2.31.87-3.06,2.85-2.13,5.21.27.66.64,1.28,1,1.92-3.14,2.82-3.32,5.19-.61,8.6a13,13,0,0,0,5.66,4.13c.72.27,1.41.57,2.11.86C19.06,74.12,24,83,29.92,86.83Zm-15-69.51a2.07,2.07,0,0,0,2,2.14,2,2,0,0,0,2-2.08,2,2,0,1,0-4-.06ZM.25,50.29V.25H49.14a5.19,5.19,0,0,1-.76.17,47.59,47.59,0,0,0-11.2,2.14A46.82,46.82,0,0,0,23.33,9.38a3.48,3.48,0,0,0-1.2,1.67A1.8,1.8,0,0,0,23,13.11,2,2,0,0,0,25.41,13a45.33,45.33,0,0,1,9.28-5,47,47,0,0,1,38.5,1.4A48,48,0,0,1,86.81,19.43C93,25.75,96.69,33.56,99,42.12a39.5,39.5,0,0,1,1.15,7,46.93,46.93,0,0,1-1.8,18.16c-2.65,8.58-6.76,16.16-13.3,22.21a47.21,47.21,0,0,1-28.26,13.12A47.19,47.19,0,0,1,19.38,89.35C13,83.29,8.79,75.66,6.17,67.16A45.81,45.81,0,0,1,4.54,48.82,42.43,42.43,0,0,1,7.1,37.34,63.77,63.77,0,0,1,12.68,26a2.15,2.15,0,0,0-.37-3,2,2,0,0,0-3,.77c-1,1.51-2,3-2.87,4.59a51.29,51.29,0,0,0-5.37,16C.73,46.3.52,48.29.25,50.29Z"/><path class="cls-1" d="M.25,107.21V57c0,.31.14.6.18.91A51.38,51.38,0,0,0,7.32,80.41,55.56,55.56,0,0,0,20.45,95.8a51.67,51.67,0,0,0,32,11.2v.21Z"/></g></g></svg>