<svg xmlns="http://www.w3.org/2000/svg" viewBox="0 0 104.9 107.46"><defs><style>.cls-1{fill:#ffbb59;}.cls-2{fill:#a2e7ff;}.cls-3{fill:#def1ff;}.cls-4{fill:#fff;}.cls-5{fill:#ff818b;}</style></defs><g id="Capa_2" data-name="Capa 2"><g id="Capa_1-2" data-name="Capa 1"><path d="M88.28,82a1.69,1.69,0,1,1,1.64-1.71A1.66,1.66,0,0,1,88.28,82Z"/><path class="cls-1" d="M87.94,53.27a6.35,6.35,0,0,1-4.08-4.77,1.24,1.24,0,0,1,.3-.84c.75-1,1.52-2.09,2.3-3.1.19-.22.48-.51.72-.51a17.49,17.49,0,0,0,10.25-2.8c-1.08,5.44-3.66,9.56-8.43,12A1.44,1.44,0,0,1,87.94,53.27Z"/><path class="cls-2" d="M86.65,80.31a1.64,1.64,0,1,0,1.59-1.66A1.66,1.66,0,0,0,86.65,80.31Zm-7.17-10c.21-.47.37-.84,1-.57,6,2.53,11.62,5.81,16,10.92.36.41.69.85,1.07,1.35a32.34,32.34,0,0,1-10,8.69C85.38,92,83,93,80.66,94.2c-.64.33-.93.13-1.21-.51A27.77,27.77,0,0,1,79.48,70.31Z"/><path class="cls-3" d="M60.11,65.59a59.32,59.32,0,0,1,15.4,2.47l1.22.4a30.71,30.71,0,0,0,0,27.14c-1.78.5-3.39,1.08-5,1.39a80.71,80.71,0,0,1-22.09,1.44,40.75,40.75,0,0,1-14-3.85,78.47,78.47,0,0,1-8.38-4.5,9.6,9.6,0,0,1,0-16.16,49.15,49.15,0,0,1,21.85-8.24A71.85,71.85,0,0,1,60.11,65.59ZM44.68,94a1.7,1.7,0,0,0,2.55,1.2L59,90.82c1.8-.67,2.09-1.59,1-3.23A11.43,11.43,0,0,1,60,76.4c1-1.59.73-2.53-1-3.18-3.94-1.46-7.9-2.91-11.85-4.36a5.48,5.48,0,0,0-.74-.22,1.85,1.85,0,0,0-1.78,1.46A35.41,35.41,0,0,0,44.68,94Z"/><path class="cls-1" d="M66.56,50.32c.38,1.59.66,3.2,1,4.89-1.8,0-3.74,0-5.69,0a2.52,2.52,0,0,1-2.59-2,2.32,2.32,0,0,1,1.09-2.66A7.25,7.25,0,0,1,62.58,50a29.32,29.32,0,0,1,3.11-.18C66,49.81,66.5,50.08,66.56,50.32Z"/><path d="M55.57,21.84a1.91,1.91,0,0,1,1.91,1.83,1.94,1.94,0,0,1-1.94,1.69,1.62,1.62,0,0,1-1.67-1.77A1.63,1.63,0,0,1,55.57,21.84Z"/><path class="cls-1" d="M53.87,23.59a1.62,1.62,0,0,0,1.67,1.77,1.94,1.94,0,0,0,1.94-1.69,1.91,1.91,0,0,0-1.91-1.83A1.63,1.63,0,0,0,53.87,23.59ZM61.51,35A18.08,18.08,0,0,1,46.2,19.63c-.15-1.05.48-.94,1.09-.94q13.4,0,26.76,0c2.62,0,5.24.06,7.87.21a27.85,27.85,0,0,1,3.45.64c1,.17,1.13.78,1,1.67A21.92,21.92,0,0,1,83,29.72a23.32,23.32,0,0,1-4.76,5.05,1.63,1.63,0,0,1-.9.4c-3,0-5.9,0-8.89,0,.64-1.41,1.28-2.67,1.79-4a1.85,1.85,0,0,0-.9-2.62c-1-.37-1.81.13-2.37,1.33s-1.27,2.43-2,3.61A3.12,3.12,0,0,1,61.51,35Z"/><path class="cls-4" d="M27.24,61.37a6.29,6.29,0,0,0,3.12.5c2.4-.26,4.1-2.75,4.2-5.21a24.29,24.29,0,0,0,0-2.83,1.35,1.35,0,0,1,.73-1.41c1.49-.87,2.94-1.82,4.4-2.76a6,6,0,0,0,1.85-8.73,23,23,0,0,0-7.92-7.54C29.5,31,25.18,29.7,20.47,30.5a22.68,22.68,0,0,0-16.22,11,5.9,5.9,0,0,0,1.91,7.94,37.71,37.71,0,0,0,3.62,2.26c1.55.78,2.52,1.75,2,3.66v.94c0,4.41,3.22,6.76,7.12,5A9.57,9.57,0,0,1,27.24,61.37ZM38.56,24.23a30.19,30.19,0,0,0,5.32.07,1.79,1.79,0,0,1,.09.19c3.69,9.16,10.91,14.13,20.52,14.13,5.17,0,10.36,0,15.55,0a3.33,3.33,0,0,1,3.46,3.28,3.38,3.38,0,0,1-3.31,3.58c-2.56.15-5.11.28-7.67.44-4,.25-8,.53-12,.76a1.3,1.3,0,0,1-.88-.48,10.46,10.46,0,0,0-6-3.78A34,34,0,0,0,47.86,42c-1.42-.06-2,.62-2,2.1A11.68,11.68,0,0,0,50.45,53l.85.68L51,53.9A11.84,11.84,0,0,0,46,62a1.22,1.22,0,0,1-.79.79,51,51,0,0,0-12,4c-3.27,1.58-6.37,3.53-9.59,5.34-.05-.06-.22-.31-.39-.57a17.88,17.88,0,0,0-8.46-6.8c-3-1.19-6.12-1.2-9.26-1.16-1.42,0-2,.64-1.95,2.14A18.13,18.13,0,0,0,9.76,79.27a41.32,41.32,0,0,0,4.09,2.81A28.69,28.69,0,0,0,11,83.72,18.22,18.22,0,0,0,3.49,98.44a1.65,1.65,0,0,0,1.85,1.92c1.15,0,2.29,0,3.44,0a17.49,17.49,0,0,0,14.44-8l.5-.7a54.34,54.34,0,0,0,12.21,6.76A48.77,48.77,0,0,0,53.62,102a90.21,90.21,0,0,0,16.08-1.27,54.14,54.14,0,0,0,23-9.35,32.9,32.9,0,0,0,8-8,2.07,2.07,0,0,0,0-2.75,52,52,0,0,0-3.34-4A46.16,46.16,0,0,0,79.65,65.87a67,67,0,0,0-17.46-3.53l-3.28-.25a27.72,27.72,0,0,0,1.76-2.59,1.42,1.42,0,0,1,1.49-.87c6.26,0,12.52.07,18.78,0,4.75-.06,9.25-1.24,13-4.46,6.67-5.78,8.41-13.42,6.77-21.86a20.87,20.87,0,0,0-20.77-17H44.55c-3.08,0-5.11-2.11-5.13-5.29,0-1,0-2.09,0-3.13a1.58,1.58,0,0,0-1.57-1.58,1.46,1.46,0,0,0-1.59,1.42,26.4,26.4,0,0,0,.27,5.7,8.17,8.17,0,0,0,1,2.5l-2.1.63a1.7,1.7,0,0,0-2.53,2,21.78,21.78,0,0,0,.71,2.06C34.53,21.94,36.06,23.79,38.56,24.23Zm66.08-24v107H.25V.25Z"/><path class="cls-2" d="M56.31,88.14l-9.13,3.41c-.46-2.64-.91-5.16-1.37-7.77,1.5-.17,3.27.3,3.28-1.77s-1.77-1.6-3.26-1.77c.44-2.57.86-5.07,1.33-7.78l9.13,3.42A16.16,16.16,0,0,0,56.31,88.14Z"/><path d="M47.18,91.55l9.13-3.41a16.16,16.16,0,0,1,0-12.26l-9.13-3.42c-.47,2.71-.89,5.21-1.33,7.78,1.49.17,3.27-.31,3.26,1.77s-1.78,1.6-3.28,1.77C46.27,86.39,46.72,88.91,47.18,91.55Zm12.84-4c1,1.64.76,2.56-1,3.23L47.23,95.16A1.7,1.7,0,0,1,44.68,94a35.41,35.41,0,0,1,0-23.86,1.85,1.85,0,0,1,1.78-1.46,5.48,5.48,0,0,1,.74.22c4,1.45,7.91,2.9,11.85,4.36,1.73.65,2,1.59,1,3.18A11.43,11.43,0,0,0,60,87.59Z"/><path class="cls-4" d="M42,18.22c.77.22.81.73.81,1.3s0,1.12-.23,1.28a4,4,0,0,1-5.65-2c-.3-.82-.54-1.65-.87-2.45a1.74,1.74,0,0,0-.65-.8l2.1-.63A7.61,7.61,0,0,0,42,18.22Z"/><path d="M83.86,48.5a6.35,6.35,0,0,0,4.08,4.77,1.44,1.44,0,0,0,1.06,0c4.77-2.45,7.35-6.57,8.43-12a17.49,17.49,0,0,1-10.25,2.8c-.24,0-.53.29-.72.51-.78,1-1.55,2-2.3,3.1A1.24,1.24,0,0,0,83.86,48.5ZM79.45,93.69c.28.64.57.84,1.21.51,2.32-1.17,4.72-2.2,7-3.5a32.34,32.34,0,0,0,10-8.69c-.38-.5-.71-.94-1.07-1.35-4.39-5.11-10-8.39-16-10.92-.66-.27-.82.1-1,.57A27.77,27.77,0,0,0,79.45,93.69ZM7,67.05c.4,7.18,7,12.67,12.6,13,.55-1.48,1.09-2.82,1.53-4.19a1.82,1.82,0,0,0,0-1.28A14.08,14.08,0,0,0,13.65,68,15.93,15.93,0,0,0,7,67.05ZM61.85,55.2c1.95,0,3.89,0,5.69,0-.32-1.69-.6-3.3-1-4.89-.06-.24-.57-.51-.87-.51a29.32,29.32,0,0,0-3.11.18,7.25,7.25,0,0,0-2.23.51,2.32,2.32,0,0,0-1.09,2.66A2.52,2.52,0,0,0,61.85,55.2ZM46.2,19.63A18.08,18.08,0,0,0,61.51,35,3.12,3.12,0,0,0,65,33.53c.7-1.18,1.38-2.38,2-3.61s1.35-1.7,2.37-1.33a1.85,1.85,0,0,1,.9,2.62c-.51,1.31-1.15,2.57-1.79,4,3,0,5.93,0,8.89,0a1.63,1.63,0,0,0,.9-.4A23.32,23.32,0,0,0,83,29.72a21.92,21.92,0,0,0,3.38-8.5c.14-.89,0-1.5-1-1.67a27.85,27.85,0,0,0-3.45-.64c-2.63-.15-5.25-.2-7.87-.21q-13.38,0-26.76,0C46.68,18.69,46.05,18.58,46.2,19.63Zm-9.28-.87a4,4,0,0,0,5.65,2c.25-.16.23-.84.23-1.28s0-1.08-.81-1.3a7.61,7.61,0,0,1-4.49-3.34,8.17,8.17,0,0,1-1-2.5,26.4,26.4,0,0,1-.27-5.7,1.46,1.46,0,0,1,1.59-1.42A1.58,1.58,0,0,1,39.4,6.84c.05,1,0,2.09,0,3.13,0,3.18,2,5.28,5.13,5.29H79.89a20.87,20.87,0,0,1,20.77,17c1.64,8.44-.1,16.08-6.77,21.86-3.7,3.22-8.2,4.4-13,4.46-6.26.08-12.52,0-18.78,0a1.42,1.42,0,0,0-1.49.87,27.72,27.72,0,0,1-1.76,2.59l3.28.25a67,67,0,0,1,17.46,3.53A46.16,46.16,0,0,1,97.31,76.62a52,52,0,0,1,3.34,4,2.07,2.07,0,0,1,0,2.75,32.9,32.9,0,0,1-8,8,54.14,54.14,0,0,1-23,9.35A90.21,90.21,0,0,1,53.62,102a48.77,48.77,0,0,1-17.69-3.65,54.34,54.34,0,0,1-12.21-6.76l-.5.7a17.49,17.49,0,0,1-14.44,8c-1.15.05-2.29,0-3.44,0a1.65,1.65,0,0,1-1.85-1.92A18.22,18.22,0,0,1,11,83.72a28.69,28.69,0,0,1,2.83-1.64,41.32,41.32,0,0,1-4.09-2.81A18.13,18.13,0,0,1,3.49,65.79c-.06-1.5.53-2.11,2-2.14,3.14,0,6.26,0,9.26,1.16a17.88,17.88,0,0,1,8.46,6.8c.17.26.34.51.39.57,3.22-1.81,6.32-3.76,9.59-5.34a51,51,0,0,1,12-4A1.22,1.22,0,0,0,46,62a11.84,11.84,0,0,1,5-8.12l.33-.22L50.45,53a11.68,11.68,0,0,1-4.55-8.92c-.08-1.48.54-2.16,2-2.1a34,34,0,0,1,5.81.45,10.46,10.46,0,0,1,6,3.78,1.3,1.3,0,0,0,.88.48c4-.23,8-.51,12-.76,2.56-.16,5.11-.29,7.67-.44a3.38,3.38,0,0,0,3.31-3.58A3.33,3.33,0,0,0,80,38.63c-5.19,0-10.38,0-15.55,0-9.61,0-16.83-5-20.52-14.13a1.79,1.79,0,0,0-.09-.19,30.19,30.19,0,0,1-5.32-.07c-2.5-.44-4-2.29-5-4.64a21.78,21.78,0,0,1-.71-2.06,1.7,1.7,0,0,1,2.53-2,1.74,1.74,0,0,1,.65.8C36.38,17.11,36.62,17.94,36.92,18.76ZM35.68,94.58a40.75,40.75,0,0,0,14,3.85A80.71,80.71,0,0,0,71.72,97c1.66-.31,3.27-.89,5-1.39a30.71,30.71,0,0,1,0-27.14l-1.22-.4a59.32,59.32,0,0,0-15.4-2.47,71.85,71.85,0,0,0-11,.09,49.15,49.15,0,0,0-21.85,8.24,9.6,9.6,0,0,0,0,16.16A78.47,78.47,0,0,0,35.68,94.58ZM21.05,89.49a1.43,1.43,0,0,0,.15-1.1c-.5-1.46-1.09-2.89-1.69-4.44C13.57,84.44,7.22,90.16,7,97.05c1.18-.08,2.35-.09,3.51-.26A14,14,0,0,0,21.05,89.49Z"/><path class="cls-5" d="M38.61,42.6c1.18,1.81.92,3.12-.89,4.26s-3.33,2.09-5,3a8.56,8.56,0,0,1-2.05.47c.78-1.63,1.48-2.89,2-4.24a2.49,2.49,0,0,0-.21-1.91,1.77,1.77,0,0,0-1.56-.58,2.28,2.28,0,0,0-1.32,1.1c-.74,1.32-1.35,2.71-2,4.08-.78,1.61-.84,1.63-2.76,1.25,0-2.08,0-4.19,0-6.31a1.68,1.68,0,0,0-1.39-1.86,1.66,1.66,0,0,0-2,1.78c0,2.12,0,4.23,0,6.34-1.63.52-2,.37-2.68-1s-1.34-2.81-2-4.19c-.59-1.19-1.52-1.59-2.46-1.09s-1.17,1.5-.61,2.7,1.15,2.41,1.74,3.61c-.06.1-.1.21-.16.31a8.32,8.32,0,0,1-1.88-.54c-1.74-1-3.44-2-5.13-3.1a2.47,2.47,0,0,1-.82-3.81c3.79-5.58,9-8.86,15.61-9.12a15.75,15.75,0,0,1,6,1.17A19.48,19.48,0,0,1,38.61,42.6Z"/><path class="cls-2" d="M19.55,80.05C14,79.72,7.35,74.23,7,67.05a15.93,15.93,0,0,1,6.7,1,14.08,14.08,0,0,1,7.42,6.56,1.82,1.82,0,0,1,0,1.28C20.64,77.23,20.1,78.57,19.55,80.05Z"/><path class="cls-2" d="M21.05,89.49a14,14,0,0,1-10.57,7.3C9.32,97,8.15,97,7,97.05c.25-6.89,6.6-12.61,12.54-13.1.6,1.55,1.19,3,1.69,4.44A1.43,1.43,0,0,1,21.05,89.49Z"/><path d="M37.72,46.86c1.81-1.14,2.07-2.45.89-4.26a19.48,19.48,0,0,0-9.68-7.66,15.75,15.75,0,0,0-6-1.17c-6.65.26-11.82,3.54-15.61,9.12a2.47,2.47,0,0,0,.82,3.81c1.69,1.06,3.39,2.13,5.13,3.1a8.32,8.32,0,0,0,1.88.54c.06-.1.1-.21.16-.31-.59-1.2-1.17-2.4-1.74-3.61s-.33-2.22.61-2.7,1.87-.1,2.46,1.09c.69,1.38,1.35,2.79,2,4.19s1.05,1.55,2.68,1c0-2.11,0-4.22,0-6.34a1.66,1.66,0,0,1,2-1.78,1.68,1.68,0,0,1,1.39,1.86c0,2.12,0,4.23,0,6.31,1.92.38,2,.36,2.76-1.25.66-1.37,1.27-2.76,2-4.08a2.28,2.28,0,0,1,1.32-1.1,1.77,1.77,0,0,1,1.56.58,2.49,2.49,0,0,1,.21,1.91c-.49,1.35-1.19,2.61-2,4.24a8.56,8.56,0,0,0,2.05-.47C34.39,49,36.05,47.91,37.72,46.86Zm3.82-5.93a6,6,0,0,1-1.85,8.73c-1.46.94-2.91,1.89-4.4,2.76a1.35,1.35,0,0,0-.73,1.41,24.29,24.29,0,0,1,0,2.83c-.1,2.46-1.8,5-4.2,5.21a6.29,6.29,0,0,1-3.12-.5,9.57,9.57,0,0,0-8.37,0c-3.9,1.71-7.11-.64-7.12-5V55.4c.55-1.91-.42-2.88-2-3.66a37.71,37.71,0,0,1-3.62-2.26,5.9,5.9,0,0,1-1.91-7.94,22.68,22.68,0,0,1,16.22-11c4.71-.8,9,.52,13.15,2.89A23,23,0,0,1,41.54,40.93Z"/></g></g></svg>