<svg xmlns="http://www.w3.org/2000/svg" viewBox="0 0 104.4 106.96"><defs><style>.cls-1{fill:#fff341;}.cls-2{fill:#00d531;}.cls-3{fill:#f00040;}</style></defs><g id="Capa_2" data-name="Capa 2"><g id="Capa_1-2" data-name="Capa 1"><path d="M101.68,26.57c3.39,2.92,2.77,6,2.46,9.63-1.55,18.27-8.4,32.91-20.06,44.39a8.2,8.2,0,0,0-2,4.94c-.24,6-.12,12.1-.09,18.16,0,3.12-.82,3.85-3.44,2.84a32.73,32.73,0,0,0-9.38-2c-13.49-.94-27-1.44-40.43.94a9.71,9.71,0,0,0-1.22.21c-5.06,1.57-5.06,1.57-5.06-4.79V99c0-5,1.06-10.59-.33-15-1.3-4.12-5.23-7-7.93-10.47C5.4,62.09.89,48.34.07,32.69c-.23-4.25-.2-4.26,6-5-1.31-2.95-2.33-5.71-3.68-8.2C.88,16.71.42,5.92,2.08,3.34,2.57,2.59,3.71,1.75,4.33,2c6.84,2.28,13.83,4.29,18.81,11.23,1.43,2,2.87,4,4.5,6.19,2.34-3.27,4.58-6.65,7-9.8,4.15-5.33,5.11-6.38,10.63-1.65.69.58,2.57,0,3.37-.75,2.13-2.12,4-4.22,7.14-3.31.84.25,1.93-.65,2.87-1.13C60,2.05,61.26,1.13,62.62.58,66.33-.9,68.23.42,69.12,5c6,.16,6.15,7,8.65,11.2,6.17-3.31,12.65-.85,13.65,5.46C95.73,20.5,98.4,23.76,101.68,26.57Zm-.34,5.53H3.18l1,9.54h96.22C100.69,38.51,101,35.45,101.34,32.1ZM99.17,45.79h-94C9.14,67,27.88,91.93,56.4,89.69,75.55,88.19,97,66.75,99.17,45.79ZM97.24,27.7c0-.39.09-.77.15-1.16-1.47-.33-3.08-1.28-4.39-.87-2.84.88-3.91-.81-4.94-3.49a6.28,6.28,0,0,0-2.35-2.91c-2.53-1.55-4.72-1.1-6.89,1.55-3.21,3.94-4.1,3.73-7.86.25a21.41,21.41,0,0,0-3.11-2L61.76,27.7ZM78.66,102.05V85.14c-17.73,11.47-35.24,11.35-52.92,0v17A159.34,159.34,0,0,1,78.66,102.05Zm-4.43-83c.09.08.33-.12.85-.33-1-2.59-2-5.16-3.13-7.66-.31-.71-1.09-1.79-1.44-1.68-3.66,1.11-4.38-2-5.09-5.66-1.41.58-2.64,1-3.84,1.6-1.72.79-3.45,2.41-5.12,2.3C53.65,7.45,51.88,8.9,50,11c-2.75,3-3.92,2.8-7-.09a31.18,31.18,0,0,0-3.44-2.52c-3.19,4.61-6.23,8.87-9.1,13.28a6,6,0,0,0-.76,3.58c.73,5,3.8,1.87,5.81,2.69.81-7.23,3.2-10.68,7.41-11,4.48-.35,6.82,2.58,8.65,10.81,3.71,1,6.88.42,8.88-4.15A14.66,14.66,0,0,1,62.27,21C67.23,14.07,68.12,13.94,74.23,19.07ZM46.09,28c1.71,0,2.15-.92,1.76-2.85-.58-2.82-2.79-4.77-5.05-4.34-2.49.47-3.79,2.83-3.61,7.18C41.6,28,43.84,28,46.09,28Zm-25.15-.07c1.81.15,3.64.05,5.74.05-1.38-8.72-10-18.63-16.29-19.65,2.88,6,5.82,12.26,8.84,18.43A2.41,2.41,0,0,0,20.94,27.93ZM8.52,24c1.22,2.61,3.63,6.09,7.8,2.95C12.55,20.22,8.8,13.6,5.07,7l-.82.49c-.1.7-.23,1.41-.3,2.13C3.39,15.33,6.46,19.56,8.52,24Z"/><path class="cls-1" d="M97.39,26.54c-.06.39-.11.77-.15,1.16H61.76l6.09-8.64a21.41,21.41,0,0,1,3.11,2c3.76,3.48,4.65,3.69,7.86-.25,2.17-2.65,4.36-3.1,6.89-1.55a6.28,6.28,0,0,1,2.35,2.91c1,2.68,2.1,4.37,4.94,3.49C94.31,25.26,95.92,26.21,97.39,26.54Z"/><path class="cls-2" d="M75.08,18.74c-.52.21-.76.41-.85.33-6.11-5.13-7-5-12,1.92a14.66,14.66,0,0,0-1.8,2.57c-2,4.57-5.17,5.18-8.88,4.15-1.83-8.23-4.17-11.16-8.65-10.81-4.21.34-6.6,3.79-7.41,11-2-.82-5.08,2.35-5.81-2.69a6,6,0,0,1,.76-3.58c2.87-4.41,5.91-8.67,9.1-13.28A31.18,31.18,0,0,1,43,10.89c3,2.89,4.22,3.09,7,.09,1.89-2.08,3.66-3.53,6.47-3.34,1.67.11,3.4-1.51,5.12-2.3,1.2-.55,2.43-1,3.84-1.6.71,3.65,1.43,6.77,5.09,5.66.35-.11,1.13,1,1.44,1.68C73.05,13.58,74,16.15,75.08,18.74Z"/><path class="cls-1" d="M47.85,25.15c.39,1.93-.05,2.89-1.76,2.85-2.25,0-4.49,0-6.9,0-.18-4.35,1.12-6.71,3.61-7.18C45.06,20.38,47.27,22.33,47.85,25.15Z"/><path class="cls-3" d="M26.68,28c-2.1,0-3.93.1-5.74-.05a2.41,2.41,0,0,1-1.71-1.17c-3-6.17-6-12.42-8.84-18.43C16.71,9.35,25.3,19.26,26.68,28Z"/><path class="cls-3" d="M16.32,26.91c-4.17,3.14-6.58-.34-7.8-2.95C6.46,19.56,3.39,15.33,4,9.59c.07-.72.2-1.43.3-2.13L5.07,7C8.8,13.6,12.55,20.22,16.32,26.91Z"/></g></g></svg>