<svg xmlns="http://www.w3.org/2000/svg" viewBox="0 0 104.9 107.46"><defs><style>.cls-1{fill:#fff;}.cls-2{fill:#def1ff;}.cls-3{fill:#a46a00;}</style></defs><g id="Capa_2" data-name="Capa 2"><g id="Capa_1-2" data-name="Capa 1"><path class="cls-1" d="M104.65,49.81V107.2H73.24c.14-1.78.39-3.57.37-5.34,0-1.47.37-2.06,1.51-2.56a43.71,43.71,0,0,0,20.8-18c5.08-8.48,7.41-18.18,8.33-28.5C104.34,51.83,104.51,50.82,104.65,49.81Z"/><path d="M40,95.09a5.69,5.69,0,0,0,2.82.79c9.55.05,19.09,0,28.64,0a6,6,0,0,0,2.3-.33A40.63,40.63,0,0,0,96.39,72.7a70.13,70.13,0,0,0,4.8-23.29h-86c0,.64,0,1,0,1.33C16.72,71.22,25.09,85.94,40,95.09Zm-34.44-73Q15.8,32.85,26.09,43.53a3.35,3.35,0,0,0,2.05,1c3.88.1,7.77,0,12.31,0-3.62-3.81-6.76-7.14-9.92-10.45-6.46-6.75-12.89-13.56-19.4-20.22-2.26-2.3-4.91-1.88-6.59.65C3,16.93,3.33,19.73,5.57,22.09ZM9,8.65a9.68,9.68,0,0,1,4.84,2.83C24.1,22,34.2,32.73,44.43,43.28a5.65,5.65,0,0,0,3.74,1.64c17.8.1,35.6,0,53.4.12,1,0,2.05.73,3.08,1.12v3.65c-.14,1-.31,2-.4,3-.92,10.32-3.25,20-8.33,28.5a43.71,43.71,0,0,1-20.8,18c-1.14.5-1.52,1.09-1.51,2.56,0,1.77-.23,3.56-.37,5.34H41a28.9,28.9,0,0,1-.48-4.52c.08-2-.42-3-1.94-4a52.11,52.11,0,0,1-21.5-24.93C13.66,65.69,12.27,57,11.71,48c-.13-2.09.58-3.08,2.31-3,2.53.05,5.06,0,8,0-.63-.83-.95-1.32-1.33-1.73C14.91,37.17,9,31.18,3.32,25,2,23.55,1.26,21.38.25,19.55V15.9C2.34,10.18,4.86,7.87,9,8.65Z"/><path d="M87.47,6.86c1.28,1.2.69,2.58-.21,3.8C85.5,13.06,86,15.5,87,18.13c1.13,3.05,2,6.24,3,9.38a8.56,8.56,0,0,1,.16,1.55l.35.16c-.79,2.67-1.46,5.4-2.45,7.94-.28.71-1.55.85-2.36,1.25-.25-1-1-2.37-.69-3,2.38-5.24,1.34-10-.89-14.78C81.52,15,81.7,11.76,84.42,8,85.26,6.8,86.22,5.68,87.47,6.86Z"/><path d="M85.12,75c-.16.41-1.23.75-1.53.5a2.44,2.44,0,0,1-.49-1.94q2-6,4.15-11.89a1.58,1.58,0,0,1,1.47-.85c.41.12.64,1.06,1.08,1.88C88.23,66.89,86.74,71,85.12,75Z"/><path d="M82.45,77.71c.07.69.4,1.61.17,2a52.57,52.57,0,0,1-3.38,5,1.28,1.28,0,0,1-1.3.23c-.32-.11-.52-.71-.8-1.14a7,7,0,0,1,.5-1.21c1-1.54,2-3.12,3.15-4.52C81.11,77.65,81.89,77.81,82.45,77.71Z"/><path d="M70.27.25c1.57,1.23,1.88,2.64.5,4.42C69,6.9,69.41,9.31,70.34,11.88a67.56,67.56,0,0,1,3,9.58c.73,3.6-.4,7-2,10.08a2.28,2.28,0,0,1-2.31.79,3.15,3.15,0,0,1-.74-2.51c2.84-5.78,1.16-10.9-1.15-16.14C64.72,8.05,65.45,4.31,69.42.25Z"/><path class="cls-1" d="M54.2,39.58c.32-.87.61-1.75,1-2.59a18,18,0,0,0,.94-13.49c-.63-1.84-1.35-3.63-2.14-5.37-1.25-2.78-1.34-5.3.41-7.94.46-.68,0-2.23,0-3.37-.87.19-2,0-2.59.64-3.05,3.31-3.45,7.27-1.07,12.48s3.76,10.08,1,15.67a2.08,2.08,0,0,0,1.63,3Zm13-25.9c2.31,5.24,4,10.36,1.15,16.14a3.15,3.15,0,0,0,.74,2.51,2.28,2.28,0,0,0,2.31-.79c1.6-3,2.73-6.48,2-10.08a67.56,67.56,0,0,0-3-9.58c-.93-2.57-1.3-5,.43-7.21,1.38-1.78,1.07-3.19-.5-4.42h34.38V46.16c-1-.39-2.05-1.12-3.08-1.12-17.8-.07-35.6,0-53.4-.12a5.65,5.65,0,0,1-3.74-1.64C34.2,32.73,24.1,22,13.88,11.48A9.68,9.68,0,0,0,9,8.65C4.86,7.87,2.34,10.18.25,15.9V.25H69.42C65.45,4.31,64.72,8.05,67.19,13.68ZM84.42,8c-2.72,3.79-2.9,7-.3,12.64,2.23,4.82,3.27,9.54.89,14.78-.29.65.44,2,.69,3,.81-.4,2.08-.54,2.36-1.25,1-2.54,1.66-5.27,2.45-7.94l-.35-.16A8.56,8.56,0,0,0,90,27.51c-1-3.14-1.87-6.33-3-9.38-1-2.63-1.5-5.07.26-7.47.9-1.22,1.49-2.6.21-3.8S85.26,6.8,84.42,8Z"/><path d="M56.12,23.5A18,18,0,0,1,55.18,37c-.37.84-.66,1.72-1,2.59l-.76-.92a2.08,2.08,0,0,1-1.63-3C54.53,30,53.1,25,50.77,19.94s-2-9.17,1.07-12.48c.57-.62,1.72-.45,2.59-.64,0,1.14.42,2.69,0,3.37-1.75,2.64-1.66,5.16-.41,7.94C54.77,19.87,55.49,21.66,56.12,23.5Z"/><path class="cls-1" d="M11.71,48c.56,9,1.95,17.68,5.36,25.77a52.11,52.11,0,0,0,21.5,24.93c1.52.93,2,2,1.94,4A28.9,28.9,0,0,0,41,107.2H.25V19.55c1,1.83,1.77,4,3.07,5.42C9,31.18,14.91,37.17,20.72,43.25c.38.41.7.9,1.33,1.73-3,0-5.5,0-8,0C12.29,44.93,11.58,45.92,11.71,48Z"/><path class="cls-2" d="M15.18,49.41h86a70.13,70.13,0,0,1-4.8,23.29A40.63,40.63,0,0,1,73.77,95.57a6,6,0,0,1-2.3.33c-9.55,0-19.09,0-28.64,0A5.69,5.69,0,0,1,40,95.09C25.09,85.94,16.72,71.22,15.19,50.74,15.16,50.39,15.18,50.05,15.18,49.41Zm62,34.36c.28.43.48,1,.8,1.14a1.28,1.28,0,0,0,1.3-.23,52.57,52.57,0,0,0,3.38-5c.23-.41-.1-1.33-.17-2-.56.1-1.34-.06-1.66.33-1.14,1.4-2.13,3-3.15,4.52A7,7,0,0,0,77.14,83.77Zm6.45-8.27c.3.25,1.37-.09,1.53-.5,1.62-4,3.11-8.11,4.68-12.3-.44-.82-.67-1.76-1.08-1.88a1.58,1.58,0,0,0-1.47.85q-2.19,5.86-4.15,11.89A2.44,2.44,0,0,0,83.59,75.5Z"/><path class="cls-3" d="M4.54,14.57c1.68-2.53,4.33-3,6.59-.65,6.51,6.66,12.94,13.47,19.4,20.22,3.16,3.31,6.3,6.64,9.92,10.45-4.54,0-8.43.06-12.31,0a3.35,3.35,0,0,1-2.05-1Q15.8,32.85,5.57,22.09C3.33,19.73,3,16.93,4.54,14.57Z"/></g></g></svg>